0
SECTION
2
HEADER
9
$INSUNITS
70
4
9
$ACADVER
1
AC1014
9
$HANDSEED
5
FFFF
0
ENDSEC
0
SECTION
2
TABLES
0
TABLE
2
VPORT
5
8
100
AcDbSymbolTable
0
ENDTAB
0
TABLE
2
LTYPE
5
5
100
AcDbSymbolTable
0
LTYPE
5
14
100
AcDbSymbolTableRecord
100
AcDbLinetypeTableRecord
2
BYBLOCK
70
0
0
LTYPE
5
15
100
AcDbSymbolTableRecord
100
AcDbLinetypeTableRecord
2
BYLAYER
70
0
0
ENDTAB
0
TABLE
2
LAYER
5
2
100
AcDbSymbolTable
70
2
0
LAYER
5
50
100
AcDbSymbolTableRecord
100
AcDbLayerTableRecord
2
0
70
0
6
CONTINUOUS
0
ENDTAB
0
TABLE
2
STYLE
5
3
100
AcDbSymbolTable
70
1
0
STYLE
5
11
100
AcDbSymbolTableRecord
100
AcDbTextStyleTableRecord
2
STANDARD
70
0
0
ENDTAB
0
TABLE
2
VIEW
5
6
100
AcDbSymbolTable
70
0
0
ENDTAB
0
TABLE
2
UCS
5
7
100
AcDbSymbolTable
70
0
0
ENDTAB
0
TABLE
2
APPID
5
9
100
AcDbSymbolTable
70
2
0
APPID
5
12
100
AcDbSymbolTableRecord
100
AcDbRegAppTableRecord
2
ACAD
70
0
0
ENDTAB
0
TABLE
2
DIMSTYLE
5
A
100
AcDbSymbolTable
70
1
0
ENDTAB
0
TABLE
2
BLOCK_RECORD
5
1
100
AcDbSymbolTable
70
1
0
BLOCK_RECORD
5
1F
100
AcDbSymbolTableRecord
100
AcDbBlockTableRecord
2
*MODEL_SPACE
0
BLOCK_RECORD
5
1B
100
AcDbSymbolTableRecord
100
AcDbBlockTableRecord
2
*PAPER_SPACE
0
ENDTAB
0
ENDSEC
0
SECTION
2
BLOCKS
0
BLOCK
5
20
100
AcDbEntity
100
AcDbBlockBegin
2
*MODEL_SPACE
0
ENDBLK
5
21
100
AcDbEntity
100
AcDbBlockEnd
0
BLOCK
5
1C
100
AcDbEntity
100
AcDbBlockBegin
2
*PAPER_SPACE
0
ENDBLK
5
1D
100
AcDbEntity
100
AcDbBlockEnd
0
ENDSEC
0
SECTION
2
ENTITIES
0
LWPOLYLINE
5
100
100
AcDbEntity
8
0
100
AcDbPolyline
90
8
70
1
43
0.0
10
168.99707599999999
20
-121.16
42
0.4142135623730222
10
168.49707600000002
20
-120.66000000000001
10
155.49707599999999
20
-120.66000000000001
42
0.41421356237315748
10
154.99707600000002
20
-121.16
10
154.99707599999999
20
-134.16
42
0.41421356237310542
10
155.49707599999999
20
-134.66000000000003
10
168.49707599999999
20
-134.66000000000008
42
0.4142135623731783
10
168.99707599999999
20
-134.16
0
LWPOLYLINE
5
101
100
AcDbEntity
8
0
100
AcDbPolyline
90
20
70
1
43
0.0
10
164.49707600000005
20
-115.21000000000001
42
0.41421356237307422
10
164.99707599999999
20
-115.71000000000001
10
177.99707600000002
20
-115.70999999999998
42
0.41421356237311585
10
178.49707599999999
20
-115.21000000000001
10
178.49707600000002
20
-102.21000000000001
42
0.4142135623730846
10
177.99707600000002
20
-101.70999999999999
10
168.62707599999999
20
-101.71000000000012
42
-0.41421356237307422
10
168.12707599999999
20
-101.21000000000001
10
168.12707599999999
20
-97.109999999999999
42
-0.41421356237304302
10
168.62707599999999
20
-96.610000000000014
10
177.99707600000005
20
-96.609999999999999
42
0.41421356237304302
10
178.49707599999999
20
-96.110000000000014
10
178.49707600000002
20
-83.109999999999999
42
0.4142135623730846
10
177.99707600000002
20
-82.609999999999985
10
164.99707600000005
20
-82.609999999999971
42
0.4142135623730846
10
164.49707599999999
20
-83.109999999999999
10
164.49707599999999
20
-97.371852759978765
42
-0.19606521575929553
10
164.35448340740743
20
-97.721509656279011
42
0.40780717927025067
10
164.35448340740743
20
-100.79849034372111
42
-0.19606521575930164
10
164.49707599999999
20
-101.1481472400213
0
LWPOLYLINE
5
102
100
AcDbEntity
8
0
100
AcDbPolyline
90
20
70
1
43
0.0
10
130.02707600000002
20
-97.109999999999999
10
130.02707600000002
20
-101.21000000000001
42
0.4142135623730534
10
130.52707599999999
20
-101.70999999999999
10
139.897076
20
-101.70999999999999
42
-0.41421356237310542
10
140.397076
20
-102.21000000000001
10
140.397076
20
-115.21000000000001
42
-0.4142135623730534
10
139.897076
20
-115.70999999999999
10
126.897076
20
-115.71000000000001
42
-0.41421356237315748
10
126.39707600000003
20
-115.21000000000001
10
126.39707600000001
20
-101.1481472400213
42
0.19606521575936178
10
126.25448340740739
20
-100.79849034372103
42
-0.40780717927024546
10
126.25448340740739
20
-97.721509656279011
42
0.19606521575936178
10
126.39707600000001
20
-97.371852759978736
10
126.39707600000001
20
-83.110000000000014
42
-0.4142135623730846
10
126.897076
20
-82.610000000000014
10
139.897076
20
-82.610000000000014
42
-0.4142135623730846
10
140.397076
20
-83.110000000000014
10
140.397076
20
-96.110000000000014
42
-0.41421356237310542
10
139.897076
20
-96.610000000000014
10
130.52707599999999
20
-96.610000000000014
42
0.4142135623730534
0
LWPOLYLINE
5
103
100
AcDbEntity
8
0
100
AcDbPolyline
90
8
70
1
43
0.0
10
197.09707600000002
20
-63.309999999999995
42
0.41421356237309503
10
197.59707599999996
20
-62.809999999999988
10
197.59707599999999
20
-49.810000000000016
42
0.41421356237304818
10
197.09707600000002
20
-49.310000000000009
10
184.09707600000002
20
-49.310000000000016
42
0.41421356237316787
10
183.59707600000002
20
-49.810000000000016
10
183.59707600000002
20
-62.810000000000002
42
0.41421356237311585
10
184.09707600000002
20
-63.310000000000024
0
LWPOLYLINE
5
104
100
AcDbEntity
8
0
100
AcDbPolyline
90
8
70
1
43
0.0
10
120.897076
20
-99.010000000000019
10
107.897076
20
-99.009999999999977
42
-0.41421356237312623
10
107.39707600000001
20
-98.510000000000005
10
107.39707600000001
20
-85.510000000000019
42
-0.4142135623730534
10
107.897076
20
-85.010000000000034
10
120.897076
20
-85.010000000000034
42
-0.41421356237306384
10
121.39707600000001
20
-85.510000000000019
10
121.39707600000001
20
-98.510000000000005
42
-0.41421356237307422
0
LWPOLYLINE
5
105
100
AcDbEntity
8
0
100
AcDbPolyline
90
8
70
1
43
0.0
10
183.59707600000002
20
-81.70999999999998
42
0.41421356237304302
10
184.09707599999996
20
-82.210000000000008
10
197.09707600000002
20
-82.210000000000022
42
0.41421356237306384
10
197.59707599999999
20
-81.70999999999998
10
197.59707599999999
20
-68.709999999999994
42
0.41421356237302737
10
197.09707600000002
20
-68.209999999999965
10
184.09707600000002
20
-68.210000000000008
42
0.41421356237313667
10
183.59707600000002
20
-68.710000000000008
0
LWPOLYLINE
5
106
100
AcDbEntity
8
0
100
AcDbPolyline
90
8
70
1
43
0.0
10
203.09707599999999
20
-50.810000000000024
10
216.09707600000002
20
-50.810000000000016
42
-0.41421356237313145
10
216.59707600000002
20
-51.310000000000009
10
216.59707599999996
20
-64.310000000000002
42
-0.4142135623730378
10
216.09707600000002
20
-64.810000000000002
10
203.09707599999999
20
-64.810000000000059
42
-0.41421356237311585
10
202.59707599999999
20
-64.310000000000002
10
202.59707599999999
20
-51.310000000000016
42
-0.41421356237316787
0
LWPOLYLINE
5
107
100
AcDbEntity
8
0
100
AcDbPolyline
90
8
70
1
43
0.0
10
107.39707600000001
20
-60.410000000000004
42
0.41421356237314189
10
107.897076
20
-60.910000000000004
10
120.897076
20
-60.909999999999982
42
0.41421356237312623
10
121.39707600000001
20
-60.409999999999982
10
121.39707600000001
20
-47.409999999999989
42
0.41421356237308982
10
120.897076
20
-46.909999999999989
10
107.897076
20
-46.909999999999997
42
0.41421356237302737
10
107.397076
20
-47.409999999999997
0
CIRCLE
5
108
100
AcDbEntity
8
0
100
AcDbCircle
10
123.49707600000002
20
-63.509999999999998
30
0
40
2.1499999999999986
210
0
220
-0
230
1
0
LWPOLYLINE
5
109
100
AcDbEntity
8
0
100
AcDbPolyline
90
13
70
1
43
0.0
10
144.177076
20
-120.66000000000001
42
0.41421356237307422
10
144.677076
20
-120.16
10
144.677076
20
-118.31000000000002
42
-0.99999999999999989
10
149.07707600000003
20
-118.31000000000002
10
149.07707600000003
20
-120.17633338981142
42
0.36214419182680085
10
149.487076
20
-120.66816669490571
42
-0.36214419182680085
10
149.897076
20
-121.16
10
149.897076
20
-134.16
42
-0.41421356237306384
10
149.397076
20
-134.66000000000005
10
136.39707600000003
20
-134.66000000000003
42
-0.41421356237309503
10
135.897076
20
-134.16
10
135.897076
20
-121.16
42
-0.41421356237314705
10
136.39707600000003
20
-120.66000000000001
0
LWPOLYLINE
5
110
100
AcDbEntity
8
0
100
AcDbPolyline
90
8
70
1
43
0.0
10
202.64707600000003
20
-121.41
10
202.64707600000003
20
-108.41000000000001
42
-0.41421356237314705
10
203.14707600000003
20
-107.91
10
216.14707599999997
20
-107.90999999999998
42
-0.41421356237314705
10
216.647076
20
-108.41000000000001
10
216.647076
20
-121.41
42
-0.41421356237314705
10
216.147076
20
-121.91000000000001
10
203.14707600000003
20
-121.91000000000001
42
-0.41421356237309503
0
LWPOLYLINE
5
111
100
AcDbEntity
8
0
100
AcDbPolyline
90
10
70
1
43
0.0
10
158.99707599999999
20
-95.310000000000059
42
0.41421356237312623
10
159.49707600000002
20
-94.810000000000016
10
159.49707599999999
20
-81.810000000000031
42
0.41421356237310542
10
158.99707599999999
20
-81.310000000000031
10
149.50956531621759
20
-81.310000000000016
42
-0.48148026291618584
10
149.02206729469583
20
-80.698888888888902
42
1.7097357972024343
10
145.34522414814811
20
-81.78905981646615
42
-0.20285890552299646
10
145.49707599999999
20
-82.147937047481165
10
145.49707600000002
20
-94.810000000000016
42
0.41421356237309503
10
145.99707599999999
20
-95.310000000000045
0
CIRCLE
5
112
100
AcDbEntity
8
0
100
AcDbCircle
10
98.897076000000013
20
-118.71000000000001
30
0
40
2.1499999999999986
210
0
220
-0
230
1
0
CIRCLE
5
113
100
AcDbEntity
8
0
100
AcDbCircle
10
199.69707600000004
20
-103.91
30
0
40
2.1499999999999986
210
0
220
-0
230
1
0
LWPOLYLINE
5
114
100
AcDbEntity
8
0
100
AcDbPolyline
90
8
70
1
43
0.0
10
140.397076
20
-45.010000000000012
10
140.397076
20
-58.009999999999984
42
-0.41421356237311063
10
139.897076
20
-58.509999999999991
10
126.89707600000003
20
-58.510000000000005
42
-0.41421356237308982
10
126.39707600000001
20
-58.009999999999991
10
126.39707600000001
20
-45.010000000000012
42
-0.41421356237307944
10
126.897076
20
-44.510000000000012
10
139.897076
20
-44.509999999999998
42
-0.41421356237311063
0
LWPOLYLINE
5
115
100
AcDbEntity
8
0
100
AcDbPolyline
90
8
70
1
43
0.0
10
130.897076
20
-123.41000000000001
10
130.897076
20
-136.41
42
-0.41421356237307422
10
130.397076
20
-136.91
10
117.39707600000001
20
-136.91
42
-0.4142135623730534
10
116.897076
20
-136.41
10
116.897076
20
-123.41000000000001
42
-0.41421356237307422
10
117.39707600000001
20
-122.91
10
130.397076
20
-122.91
42
-0.41421356237309503
0
LWPOLYLINE
5
116
100
AcDbEntity
8
0
100
AcDbPolyline
90
8
70
1
43
0.0
10
88.297076000000004
20
-107.91
42
0.41421356237307422
10
88.797076000000018
20
-108.41000000000001
10
101.797076
20
-108.41000000000001
42
0.41421356237309503
10
102.297076
20
-107.91
10
102.297076
20
-94.909999999999997
42
0.41421356237314705
10
101.797076
20
-94.410000000000011
10
88.797076000000018
20
-94.410000000000039
42
0.41421356237310542
10
88.297076000000004
20
-94.909999999999997
0
LWPOLYLINE
5
117
100
AcDbEntity
8
0
100
AcDbPolyline
90
8
70
1
43
0.0
10
164.99707599999999
20
-44.509999999999998
42
0.4142135623730378
10
164.49707600000005
20
-45.009999999999991
10
164.49707599999999
20
-58.010000000000019
42
0.41421356237313145
10
164.99707599999999
20
-58.510000000000019
10
177.99707600000002
20
-58.510000000000019
42
0.41421356237309503
10
178.49707599999999
20
-58.010000000000019
10
178.49707599999999
20
-45.009999999999991
42
0.41421356237312101
10
177.99707600000002
20
-44.510000000000019
0
LWPOLYLINE
5
118
100
AcDbEntity
8
0
100
AcDbPolyline
90
8
70
1
43
0.0
10
197.59707599999999
20
-106.91000000000001
42
0.41421356237307422
10
197.09707600000002
20
-106.41
10
184.09707600000002
20
-106.41
42
0.41421356237309503
10
183.59707600000002
20
-106.91000000000001
10
183.59707600000002
20
-119.91
42
0.41421356237314705
10
184.09707600000002
20
-120.41
10
197.09707599999999
20
-120.41
42
0.4142135623730846
10
197.59707599999999
20
-119.91
0
CIRCLE
5
119
100
AcDbEntity
8
0
100
AcDbCircle
10
123.49707600000002
20
-101.51000000000002
30
0
40
2.1499999999999986
210
0
220
-0
230
1
0
LWPOLYLINE
5
120
100
AcDbEntity
8
0
100
AcDbPolyline
90
8
70
1
43
0.0
10
202.59707599999999
20
-102.41
42
0.41421356237312623
10
203.09707599999996
20
-102.91000000000003
10
216.09707600000002
20
-102.91
42
0.41421356237304302
10
216.59707599999996
20
-102.41
10
216.59707600000002
20
-89.410000000000011
42
0.41421356237313667
10
216.09707600000002
20
-88.909999999999997
10
203.09707599999999
20
-88.909999999999997
42
0.41421356237309503
10
202.59707599999999
20
-89.410000000000011
0
LWPOLYLINE
5
121
100
AcDbEntity
8
0
100
AcDbPolyline
90
8
70
1
43
0.0
10
197.59707599999999
20
-87.910000000000039
10
197.59707599999999
20
-100.91000000000001
42
-0.41421356237311585
10
197.09707600000002
20
-101.41
10
184.09707599999996
20
-101.41
42
-0.4142135623730222
10
183.59707600000002
20
-100.91000000000001
10
183.59707600000002
20
-87.910000000000039
42
-0.41421356237311585
10
184.09707600000002
20
-87.410000000000053
10
197.09707600000002
20
-87.410000000000011
42
-0.4142135623730846
0
LWPOLYLINE
5
122
100
AcDbEntity
8
0
100
AcDbPolyline
90
8
70
1
43
0.0
10
164.99707599999999
20
-63.510000000000026
10
177.99707600000002
20
-63.510000000000076
42
-0.41421356237311063
10
178.49707599999999
20
-64.010000000000005
10
178.49707600000002
20
-77.010000000000019
42
-0.41421356237309503
10
177.99707600000002
20
-77.510000000000019
10
164.99707599999999
20
-77.510000000000019
42
-0.41421356237313145
10
164.49707599999999
20
-77.010000000000019
10
164.49707599999996
20
-64.010000000000019
42
-0.41421356237311063
0
LWPOLYLINE
5
123
100
AcDbEntity
8
0
100
AcDbPolyline
90
8
70
1
43
0.0
10
107.897076
20
-66.010000000000019
42
0.41421356237305862
10
107.39707600000001
20
-66.510000000000019
10
107.39707600000001
20
-79.510000000000019
42
0.41421356237312623
10
107.897076
20
-80.010000000000034
10
120.897076
20
-80.010000000000034
42
0.41421356237310025
10
121.39707600000001
20
-79.510000000000019
10
121.39707600000001
20
-66.510000000000005
42
0.41421356237312101
10
120.897076
20
-66.009999999999977
0
LWPOLYLINE
5
124
100
AcDbEntity
8
0
100
AcDbPolyline
90
4
70
1
43
0.0
10
125.74707600000002
20
-72.875
10
122.04707600000003
20
-72.875
10
122.04707600000003
20
-66.875
10
125.74707600000002
20
-66.875
0
LWPOLYLINE
5
125
100
AcDbEntity
8
0
100
AcDbPolyline
90
8
70
1
43
0.0
10
216.09707600000002
20
-83.70999999999998
10
203.09707600000002
20
-83.710000000000008
42
-0.41421356237314705
10
202.59707599999999
20
-83.20999999999998
10
202.59707599999999
20
-70.209999999999994
42
-0.41421356237313667
10
203.09707599999999
20
-69.710000000000008
10
216.09707600000002
20
-69.710000000000022
42
-0.41421356237314705
10
216.59707600000002
20
-70.20999999999998
10
216.59707599999996
20
-83.20999999999998
42
-0.41421356237304302
0
LWPOLYLINE
5
126
100
AcDbEntity
8
0
100
AcDbPolyline
90
8
70
1
43
0.0
10
139.897076
20
-77.609999999999999
10
126.89707599999998
20
-77.609999999999985
42
-0.41421356237307944
10
126.39707600000001
20
-77.109999999999999
10
126.39707600000001
20
-64.109999999999999
42
-0.41421356237310025
10
126.897076
20
-63.610000000000007
10
139.897076
20
-63.610000000000028
42
-0.41421356237312101
10
140.39707600000008
20
-64.109999999999999
10
140.39707600000011
20
-77.109999999999999
42
-0.41421356237308982
0
CIRCLE
5
127
100
AcDbEntity
8
0
100
AcDbCircle
10
199.69707600000004
20
-65.709999999999994
30
0
40
2.1499999999999986
210
0
220
-0
230
1
0
LWPOLYLINE
5
128
100
AcDbEntity
8
0
100
AcDbPolyline
90
8
70
1
43
0.0
10
120.897076
20
-118.01000000000002
42
0.41421356237309503
10
121.39707600000001
20
-117.51000000000002
10
121.39707600000001
20
-104.51000000000001
42
0.41421356237306384
10
120.897076
20
-104.01000000000002
10
107.897076
20
-104.01000000000002
42
0.41421356237313667
10
107.39707600000001
20
-104.51000000000001
10
107.39707600000001
20
-117.51000000000002
42
0.41421356237314705
10
107.897076
20
-118.01000000000002
0
LWPOLYLINE
5
129
100
AcDbEntity
8
0
100
AcDbPolyline
90
8
70
1
43
0.0
10
159.49707599999999
20
-100.81000000000002
10
159.49707599999999
20
-113.81
42
-0.41421356237309503
10
158.99707599999999
20
-114.31
10
145.99707599999999
20
-114.31
42
-0.41421356237307422
10
145.49707599999999
20
-113.81
10
145.49707599999999
20
-100.81000000000002
42
-0.4142135623730534
10
145.99707599999999
20
-100.31
10
158.99707599999999
20
-100.31
42
-0.41421356237307422
0
LWPOLYLINE
5
130
100
AcDbEntity
8
0
100
AcDbPolyline
90
8
70
1
43
0.0
10
159.49707599999999
20
-43.61999999999999
42
0.41421356237308982
10
158.99707599999999
20
-43.11999999999999
10
145.99707599999999
20
-43.120000000000005
42
0.41421356237307944
10
145.49707600000002
20
-43.620000000000005
10
145.49707599999999
20
-56.620000000000026
42
0.41421356237307944
10
145.99707599999999
20
-57.120000000000033
10
158.99707599999999
20
-57.119999999999997
42
0.41421356237308982
10
159.49707599999999
20
-56.619999999999997
0
LWPOLYLINE
5
131
100
AcDbEntity
8
0
100
AcDbPolyline
90
8
70
1
43
0.0
10
145.49707599999999
20
-75.70999999999998
10
145.49707600000002
20
-62.710000000000001
42
-0.4142135623730534
10
145.99707599999999
20
-62.210000000000001
10
158.99707599999999
20
-62.20999999999998
42
-0.41421356237308982
10
159.49707599999999
20
-62.70999999999998
10
159.49707599999999
20
-75.70999999999998
42
-0.41421356237310025
10
158.99707599999999
20
-76.20999999999998
10
145.99707599999999
20
-76.209999999999994
42
-0.41421356237308982
0
LWPOLYLINE
5
132
100
AcDbEntity
8
0
100
AcDbPolyline
90
8
70
1
43
0.0
10
89.7679108754011
20
-128.09782217350892
42
0.41421356237315571
10
89.584898173508932
20
-128.78083487540121
10
96.084898173508932
20
-140.03916512459921
42
0.41421356237315571
10
96.767910875401128
20
-140.22217782649145
10
108.0262411245989
20
-133.72217782649108
42
0.41421356237305756
10
108.20925382649109
20
-133.0391651245989
10
101.70925382649109
20
-121.78083487540121
42
0.41421356237303963
10
101.02624112459891
20
-121.59782217350892
0
LWPOLYLINE
5
133
100
AcDbEntity
8
0
100
AcDbPolyline
90
75
70
1
43
0.0
10
219.326628
20
-123.50223100000001
10
219.35707600000001
20
-123.19973500000002
10
219.35707600000001
20
-47.346755000000009
10
218.797076
20
-46.610000000000007
10
218.17554700000002
20
-46.066190000000013
10
214.78639500000003
20
-44.873846999999998
10
209.42277300000001
20
-43.795159000000012
10
202.317834
20
-42.855561000000002
10
193.70473000000004
20
-42.080488000000003
10
183.81661399999999
20
-41.495373999999998
10
172.886639
20
-41.125654000000004
10
161.14795700000002
20
-40.996762000000004
10
106.097076
20
-40.996762000000004
42
0.41421356237309631
10
104.09707600000002
20
-42.996761999999997
10
104.09707599999999
20
-89.009459122374551
42
-0.41420199905131816
10
101.99715890760402
20
-91.10945912073791
10
78.74009885973912
20
-91.110377305083873
42
0.32635742778175447
10
76.834853000000024
20
-92.502317000000005
10
77.032766000000024
20
-96.527561000000034
10
77.387372999999997
20
-100.567663
10
77.918048000000013
20
-104.600825
10
78.644159000000002
20
-108.60524599999999
10
79.585080000000019
20
-112.55912700000002
10
80.760181000000003
20
-116.44067
10
82.188834000000014
20
-120.22807299999999
10
83.889945000000026
20
-123.89842299999999
10
85.565639000000004
20
-126.76474200000001
10
87.241333999999981
20
-129.63106200000001
10
88.91702800000003
20
-132.49738100000002
10
90.592723000000021
20
-135.36370099999999
10
92.268416999999999
20
-138.23002
10
93.944112000000004
20
-141.09634
10
95.619806000000011
20
-143.962659
10
97.295501000000002
20
-146.828979
10
97.388913000000002
20
-146.99815000000001
10
97.494371000000015
20
-147.13288400000005
10
97.611404000000007
20
-147.23253200000002
10
97.739546000000033
20
-147.29644500000001
10
97.87832800000001
20
-147.32397399999999
10
98.027282000000014
20
-147.31446800000001
10
98.185940000000031
20
-147.267278
10
98.353834000000006
20
-147.18175600000001
10
100.02952800000001
20
-146.21161699999999
10
101.70522300000002
20
-145.241479
10
103.38091700000001
20
-144.27133999999998
10
105.05661200000003
20
-143.30120099999999
10
106.73230600000002
20
-142.33106200000003
10
108.40800100000001
20
-141.36092299999999
10
110.08369500000001
20
-140.390784
10
111.76024900000002
20
-139.42165800000001
10
170.71642399999999
20
-139.42165800000001
10
171.01892000000004
20
-139.391211
10
171.30057600000001
20
-139.303876
10
171.555384
20
-139.16566
10
171.77733700000002
20
-138.98257100000001
10
171.96042500000001
20
-138.76061899999999
10
172.09864100000001
20
-138.50581
10
172.18597700000001
20
-138.224154
10
172.21642400000002
20
-137.92165800000001
10
172.21642400000002
20
-128.199735
10
172.28746699999999
20
-127.49391100000003
10
172.49125000000004
20
-126.836713
10
172.81375400000002
20
-126.24216000000003
10
173.24096
20
-125.724271
10
173.758849
20
-125.297065
10
174.35340199999999
20
-124.97456100000001
10
175.01060000000001
20
-124.77077800000002
10
175.71642399999999
20
-124.69973500000002
10
217.85707500000001
20
-124.69973500000002
10
218.15957100000003
20
-124.66928799999999
10
218.44122799999997
20
-124.581952
10
218.69603600000002
20
-124.44373600000003
10
218.91798800000001
20
-124.260648
10
219.101077
20
-124.038696
10
219.239293
20
-123.78388700000002
0
ENDSEC
0
SECTION
2
OBJECTS
0
DICTIONARY
5
C
100
AcDbDictionary
3
ACAD_GROUP
350
D
3
ACAD_MLINESTYLE
350
17
0
DICTIONARY
5
D
100
AcDbDictionary
0
DICTIONARY
5
1A
330
C
100
AcDbDictionary
0
DICTIONARY
5
17
100
AcDbDictionary
0
ENDSEC
0
EOF
