0
SECTION
2
HEADER
9
$INSUNITS
70
4
9
$ACADVER
1
AC1014
9
$HANDSEED
5
FFFF
0
ENDSEC
0
SECTION
2
TABLES
0
TABLE
2
VPORT
5
8
100
AcDbSymbolTable
0
ENDTAB
0
TABLE
2
LTYPE
5
5
100
AcDbSymbolTable
0
LTYPE
5
14
100
AcDbSymbolTableRecord
100
AcDbLinetypeTableRecord
2
BYBLOCK
70
0
0
LTYPE
5
15
100
AcDbSymbolTableRecord
100
AcDbLinetypeTableRecord
2
BYLAYER
70
0
0
ENDTAB
0
TABLE
2
LAYER
5
2
100
AcDbSymbolTable
70
2
0
LAYER
5
50
100
AcDbSymbolTableRecord
100
AcDbLayerTableRecord
2
0
70
0
6
CONTINUOUS
0
ENDTAB
0
TABLE
2
STYLE
5
3
100
AcDbSymbolTable
70
1
0
STYLE
5
11
100
AcDbSymbolTableRecord
100
AcDbTextStyleTableRecord
2
STANDARD
70
0
0
ENDTAB
0
TABLE
2
VIEW
5
6
100
AcDbSymbolTable
70
0
0
ENDTAB
0
TABLE
2
UCS
5
7
100
AcDbSymbolTable
70
0
0
ENDTAB
0
TABLE
2
APPID
5
9
100
AcDbSymbolTable
70
2
0
APPID
5
12
100
AcDbSymbolTableRecord
100
AcDbRegAppTableRecord
2
ACAD
70
0
0
ENDTAB
0
TABLE
2
DIMSTYLE
5
A
100
AcDbSymbolTable
70
1
0
ENDTAB
0
TABLE
2
BLOCK_RECORD
5
1
100
AcDbSymbolTable
70
1
0
BLOCK_RECORD
5
1F
100
AcDbSymbolTableRecord
100
AcDbBlockTableRecord
2
*MODEL_SPACE
0
BLOCK_RECORD
5
1B
100
AcDbSymbolTableRecord
100
AcDbBlockTableRecord
2
*PAPER_SPACE
0
ENDTAB
0
ENDSEC
0
SECTION
2
BLOCKS
0
BLOCK
5
20
100
AcDbEntity
100
AcDbBlockBegin
2
*MODEL_SPACE
0
ENDBLK
5
21
100
AcDbEntity
100
AcDbBlockEnd
0
BLOCK
5
1C
100
AcDbEntity
100
AcDbBlockBegin
2
*PAPER_SPACE
0
ENDBLK
5
1D
100
AcDbEntity
100
AcDbBlockEnd
0
ENDSEC
0
SECTION
2
ENTITIES
0
CIRCLE
5
100
100
AcDbEntity
8
0
100
AcDbCircle
10
-199.69707600000004
20
103.91
30
0
40
1.0999999999999943
210
0
220
0
230
1
0
CIRCLE
5
101
100
AcDbEntity
8
0
100
AcDbCircle
10
-123.49707600000002
20
63.509999999999998
30
0
40
1.0999999999999943
210
0
220
0
230
1
0
CIRCLE
5
102
100
AcDbEntity
8
0
100
AcDbCircle
10
-98.897076000000013
20
118.71000000000001
30
0
40
1.0999999999999943
210
0
220
0
230
1
0
CIRCLE
5
103
100
AcDbEntity
8
0
100
AcDbCircle
10
-146.87707599999999
20
99.260000000000005
30
0
40
21.050000000000001
210
0
220
0
230
1
0
CIRCLE
5
104
100
AcDbEntity
8
0
100
AcDbCircle
10
-123.49707600000002
20
101.51000000000002
30
0
40
1.0999999999999943
210
0
220
0
230
1
0
CIRCLE
5
105
100
AcDbEntity
8
0
100
AcDbCircle
10
-199.69707600000004
20
65.709999999999994
30
0
40
1.0999999999999943
210
0
220
0
230
1
0
LWPOLYLINE
5
106
100
AcDbEntity
8
0
100
AcDbPolyline
90
79
70
1
43
0.0
10
-76.834603999999999
20
42.046762000000008
10
-76.834852999999995
20
92.502317000000005
10
-77.032765999999995
20
96.52756100000002
10
-77.387372999999997
20
100.567663
10
-77.918047999999999
20
104.600825
10
-78.644159000000002
20
108.60524599999999
10
-79.585080000000005
20
112.55912700000002
10
-80.760181000000003
20
116.44067
10
-82.188834000000014
20
120.22807299999999
10
-83.889945000000012
20
123.89842299999999
10
-85.565639000000004
20
126.76474200000001
10
-87.241333999999995
20
129.63106199999999
10
-88.917028000000016
20
132.49738099999999
10
-90.592723000000021
20
135.36370099999999
10
-92.268416999999999
20
138.23002
10
-93.944112000000004
20
141.09634
10
-95.619805999999997
20
143.962659
10
-97.295501000000002
20
146.828979
10
-97.388913000000002
20
146.99815000000001
10
-97.494371000000015
20
147.13288399999999
10
-97.611404000000007
20
147.23253199999999
10
-97.739546000000018
20
147.29644500000001
10
-97.87832800000001
20
147.32397399999999
10
-98.027282000000014
20
147.31446800000001
10
-98.185940000000016
20
147.267278
10
-98.353834000000006
20
147.18175600000001
10
-100.02952800000001
20
146.21161699999999
10
-101.70522300000002
20
145.241479
10
-103.380917
20
144.27134000000001
10
-105.056612
20
143.30120099999999
10
-106.73230599999999
20
142.33106200000003
10
-108.40800100000001
20
141.36092300000001
10
-110.08369500000001
20
140.390784
10
-111.76024900000002
20
139.42165800000001
10
-170.71642399999999
20
139.42165800000001
10
-171.01892000000004
20
139.391211
10
-171.30057600000001
20
139.303876
10
-171.555384
20
139.16566
10
-171.77733700000002
20
138.98257100000001
10
-171.96042500000001
20
138.76061899999999
10
-172.09864100000001
20
138.50581
10
-172.18597700000001
20
138.224154
10
-172.21642400000002
20
137.92165800000001
10
-172.21642400000002
20
128.199735
10
-172.28746699999999
20
127.493911
10
-172.49125000000004
20
126.836713
10
-172.81375399999999
20
126.24216000000001
10
-173.24096
20
125.724271
10
-173.758849
20
125.29706500000002
10
-174.35340199999999
20
124.97456100000001
10
-175.01060000000001
20
124.77077800000002
10
-175.71642399999999
20
124.69973500000002
10
-217.85707500000001
20
124.69973500000002
10
-218.15957100000003
20
124.66928799999999
10
-218.44122800000002
20
124.581952
10
-218.69603600000002
20
124.443736
10
-218.91798800000004
20
124.260648
10
-219.101077
20
124.038696
10
-219.239293
20
123.78388700000001
10
-219.32662800000003
20
123.50223100000001
10
-219.35707600000001
20
123.19973500000002
10
-219.35707600000001
20
47.346755000000009
10
-218.79707600000003
20
46.610000000000007
10
-218.17554700000002
20
46.066190000000006
10
-214.786395
20
44.873846999999998
10
-209.42277300000001
20
43.795159000000005
10
-202.317834
20
42.855561000000002
10
-193.70473000000004
20
42.080488000000003
10
-183.81661399999999
20
41.495373999999998
10
-172.886639
20
41.125654000000004
10
-161.14795699999999
20
40.996762000000004
10
-77.885285999999994
20
40.996762000000004
10
-77.673537999999994
20
41.018075000000003
10
-77.476378999999994
20
41.079210000000003
10
-77.298012999999997
20
41.175961000000001
10
-77.142645999999999
20
41.304122999999997
10
-77.014484999999993
20
41.459488999999998
10
-76.917732999999998
20
41.637855000000002
10
-76.856599000000017
20
41.835014999999999
0
ENDSEC
0
SECTION
2
OBJECTS
0
DICTIONARY
5
C
100
AcDbDictionary
3
ACAD_GROUP
350
D
3
ACAD_MLINESTYLE
350
17
0
DICTIONARY
5
D
100
AcDbDictionary
0
DICTIONARY
5
1A
330
C
100
AcDbDictionary
0
DICTIONARY
5
17
100
AcDbDictionary
0
ENDSEC
0
EOF
