999
dxfrw 0.6.3
  0
SECTION
  2
HEADER
  9
$ACADVER
  1
AC1021
  9
$DWGCODEPAGE
  3
ANSI_1252
  9
$INSBASE
 10
0
 20
0
 30
0
  9
$EXTMIN
 10
-219.357076
 20
40.996762
 30
0
  9
$EXTMAX
 10
-76.834853
 20
147.323974
 30
0
  9
$LIMMIN
 10
0
 20
0
  9
$LIMMAX
 10
420
 20
297
  9
$ORTHOMODE
 70
    0
  9
$REGENMODE
 70
    1
  9
$FILLMODE
 70
    1
  9
$QTEXTMODE
 70
    0
  9
$MIRRTEXT
 70
    0
  9
$LTSCALE
 40
1
  9
$ATTMODE
 70
    0
  9
$TEXTSIZE
 40
2.5
  9
$TRACEWID
 40
15.68
  9
$TEXTSTYLE
  7
STANDARD
  9
$CLAYER
  8
0
  9
$CELTYPE
  6
BYLAYER
  9
$CECOLOR
 62
  256
  9
$CELTSCALE
 40
1
  9
$DISPSILH
 70
    0
  9
$DIMSCALE
 40
2.5
  9
$DIMASZ
 40
2.5
  9
$DIMEXO
 40
0.625
  9
$DIMDLI
 40
3.75
  9
$DIMRND
 40
0
  9
$DIMDLE
 40
0
  9
$DIMEXE
 40
1.25
  9
$DIMTP
 40
0
  9
$DIMTM
 40
0
  9
$DIMTXT
 40
2.5
  9
$DIMCEN
 40
2.5
  9
$DIMTSZ
 40
0
  9
$DIMTOL
 70
    0
  9
$DIMLIM
 70
    0
  9
$DIMTIH
 70
    0
  9
$DIMTOH
 70
    0
  9
$DIMSE1
 70
    0
  9
$DIMSE2
 70
    0
  9
$DIMTAD
 70
    1
  9
$DIMZIN
 70
    8
  9
$DIMBLK
  1

  9
$DIMASO
 70
    1
  9
$DIMSHO
 70
    1
  9
$DIMPOST
  1

  9
$DIMAPOST
  1

  9
$DIMALT
 70
    0
  9
$DIMALTD
 70
    3
  9
$DIMALTF
 40
0.03937
  9
$DIMLFAC
 40
1
  9
$DIMTOFL
 70
    1
  9
$DIMTVP
 40
0
  9
$DIMTIX
 70
    0
  9
$DIMSOXD
 70
    0
  9
$DIMSAH
 70
    0
  9
$DIMBLK1
  1

  9
$DIMBLK2
  1

  9
$DIMSTYLE
  2
Standard
  9
$DIMCLRD
 70
    0
  9
$DIMCLRE
 70
    0
  9
$DIMCLRT
 70
    0
  9
$DIMTFAC
 40
1
  9
$DIMGAP
 40
0.625
  9
$DIMJUST
 70
    0
  9
$DIMSD1
 70
    0
  9
$DIMSD2
 70
    0
  9
$DIMTOLJ
 70
    0
  9
$DIMTZIN
 70
    8
  9
$DIMALTZ
 70
    0
  9
$DIMALTTZ
 70
    0
  9
$DIMUPT
 70
    0
  9
$DIMDEC
 70
    2
  9
$DIMTDEC
 70
    2
  9
$DIMALTU
 70
    2
  9
$DIMALTTD
 70
    3
  9
$DIMTXSTY
  7
STANDARD
  9
$DIMAUNIT
 70
    0
  9
$DIMADEC
 70
    0
  9
$DIMALTRND
 40
0
  9
$DIMAZIN
 70
    0
  9
$DIMDSEP
 70
   44
  9
$DIMATFIT
 70
    3
  9
$DIMFRAC
 70
    0
  9
$DIMLDRBLK
  1
STANDARD
  9
$DIMLUNIT
 70
    2
  9
$DIMLWD
 70
   -2
  9
$DIMLWE
 70
   -2
  9
$DIMTMOVE
 70
    0
  9
$DIMFXL
 40
1
  9
$DIMFXLON
 70
    0
  9
$DIMJOGANG
 40
0.7854
  9
$DIMTFILL
 70
    0
  9
$DIMTFILLCLR
 70
    0
  9
$DIMARCSYM
 70
    0
  9
$DIMLTYPE
  6

  9
$DIMLTEX1
  6

  9
$DIMLTEX2
  6

  9
$LUNITS
 70
    2
  9
$LUPREC
 70
    4
  9
$SKETCHINC
 40
1
  9
$FILLETRAD
 40
0
  9
$AUNITS
 70
    0
  9
$AUPREC
 70
    2
  9
$MENU
  1
.
  9
$ELEVATION
 40
0
  9
$PELEVATION
 40
0
  9
$THICKNESS
 40
0
  9
$LIMCHECK
 70
    0
  9
$CHAMFERA
 40
0
  9
$CHAMFERB
 40
0
  9
$CHAMFERC
 40
0
  9
$CHAMFERD
 40
0
  9
$SKPOLY
 70
    0
  9
$USRTIMER
 70
    1
  9
$ANGBASE
 50
0
  9
$ANGDIR
 70
    0
  9
$PDMODE
 70
   34
  9
$PDSIZE
 40
0
  9
$PLINEWID
 40
0
  9
$SPLFRAME
 70
    0
  9
$SPLINETYPE
 70
    2
  9
$SPLINESEGS
 70
    8
  9
$HANDSEED
  5
20000
  9
$SURFTAB1
 70
    6
  9
$SURFTAB2
 70
    6
  9
$SURFTYPE
 70
    6
  9
$SURFU
 70
    6
  9
$SURFV
 70
    6
  9
$UCSBASE
  2

  9
$UCSNAME
  2

  9
$UCSORG
 10
0
 20
0
 30
0
  9
$UCSXDIR
 10
1
 20
0
 30
0
  9
$UCSYDIR
 10
0
 20
1
 30
0
  9
$UCSORTHOREF
  2

  9
$UCSORTHOVIEW
 70
    0
  9
$UCSORGTOP
 10
0
 20
0
 30
0
  9
$UCSORGBOTTOM
 10
0
 20
0
 30
0
  9
$UCSORGLEFT
 10
0
 20
0
 30
0
  9
$UCSORGRIGHT
 10
0
 20
0
 30
0
  9
$UCSORGFRONT
 10
0
 20
0
 30
0
  9
$UCSORGBACK
 10
0
 20
0
 30
0
  9
$PUCSBASE
  2

  9
$PUCSNAME
  2

  9
$PUCSORG
 10
0
 20
0
 30
0
  9
$PUCSXDIR
 10
1
 20
0
 30
0
  9
$PUCSYDIR
 10
0
 20
1
 30
0
  9
$PUCSORTHOREF
  2

  9
$PUCSORTHOVIEW
 70
    0
  9
$PUCSORGTOP
 10
0
 20
0
 30
0
  9
$PUCSORGBOTTOM
 10
0
 20
0
 30
0
  9
$PUCSORGLEFT
 10
0
 20
0
 30
0
  9
$PUCSORGRIGHT
 10
0
 20
0
 30
0
  9
$PUCSORGFRONT
 10
0
 20
0
 30
0
  9
$PUCSORGBACK
 10
0
 20
0
 30
0
  9
$USERI1
 70
    0
  9
$USERI2
 70
    0
  9
$USERI3
 70
    0
  9
$USERI4
 70
    0
  9
$USERI5
 70
    0
  9
$USERR1
 40
0
  9
$USERR2
 40
0
  9
$USERR3
 40
0
  9
$USERR4
 40
0
  9
$USERR5
 40
0
  9
$WORLDVIEW
 70
    1
  9
$SHADEDGE
 70
    3
  9
$SHADEDIF
 70
   70
  9
$TILEMODE
 70
    1
  9
$MAXACTVP
 70
   64
  9
$PINSBASE
 10
0
 20
0
 30
0
  9
$PLIMCHECK
 70
    0
  9
$PEXTMIN
 10
0
 20
0
 30
0
  9
$PEXTMAX
 10
0
 20
0
 30
0
  9
$SNAPSTYLE
 70
    0
  9
$PLIMMIN
 10
0
 20
0
  9
$PLIMMAX
 10
210
 20
297
  9
$UNITMODE
 70
    0
  9
$VISRETAIN
 70
    1
  9
$PLINEGEN
 70
    0
  9
$PSLTSCALE
 70
    1
  9
$TREEDEPTH
 70
 3020
  9
$CMLSTYLE
  2
Standard
  9
$CMLJUST
 70
    0
  9
$CMLSCALE
 40
20
  9
$PROXYGRAPHICS
 70
    1
  9
$MEASUREMENT
 70
    1
  9
$CELWEIGHT
370
   -1
  9
$ENDCAPS
280
    0
  9
$JOINSTYLE
280
    0
  9
$LWDISPLAY
290
    0
  9
$INSUNITS
 70
    4
  9
$HYPERLINKBASE
  1

  9
$STYLESHEET
  1

  9
$XEDIT
290
    1
  9
$CEPSNTYPE
380
    0
  9
$PSTYLEMODE
290
    1
  9
$EXTNAMES
290
    1
  9
$PSVPSCALE
 40
1
  9
$OLESTARTUP
290
    0
  9
$SORTENTS
280
  127
  9
$INDEXCTL
280
    0
  9
$HIDETEXT
280
    1
  9
$XCLIPFRAME
290
    0
  9
$HALOGAP
280
    0
  9
$OBSCOLOR
 70
  257
  9
$OBSLTYPE
280
    0
  9
$INTERSECTIONDISPLAY
280
    0
  9
$INTERSECTIONCOLOR
 70
  257
  9
$DIMASSOC
280
    1
  9
$PROJECTNAME
  1

  9
$CAMERADISPLAY
290
    0
  9
$LENSLENGTH
 40
50
  9
$CAMERAHEIGHT
 40
0
  9
$STEPSPERSEC
 40
2
  9
$STEPSIZE
 40
50
  9
$3DDWFPREC
 40
2
  9
$PSOLWIDTH
 40
5
  9
$PSOLHEIGHT
 40
80
  9
$LOFTANG1
 40
1.570796326794897
  9
$LOFTANG2
 40
1.570796326794897
  9
$LOFTMAG1
 40
0
  9
$LOFTMAG2
 40
0
  9
$LOFTPARAM
 70
    7
  9
$LOFTNORMALS
280
    1
  9
$LATITUDE
 40
1
  9
$LONGITUDE
 40
1
  9
$NORTHDIRECTION
 40
0
  9
$TIMEZONE
 70
-8000
  9
$LIGHTGLYPHDISPLAY
280
    1
  9
$TILEMODELIGHTSYNCH
280
    1
  9
$SOLIDHIST
280
    1
  9
$SHOWHIST
280
    1
  9
$DWFFRAME
280
    2
  9
$DGNFRAME
280
    0
  9
$REALWORLDSCALE
290
    1
  9
$INTERFERECOLOR
 62
    1
  9
$CSHADOW
280
    0
  9
$SHADOWPLANELOCATION
 40
0
  0
ENDSEC
  0
SECTION
  2
CLASSES
  0
ENDSEC
  0
SECTION
  2
TABLES
  0
TABLE
  2
VPORT
  5
8
330
0
100
AcDbSymbolTable
 70
    1
  0
VPORT
  5
31
330
2
100
AcDbSymbolTableRecord
100
AcDbViewportTableRecord
  2
*ACTIVE
 70
    0
 10
0
 20
0
 11
1
 21
1
 12
32.61028869090248
 22
90.05226510056556
 13
0
 23
0
 14
10
 24
10
 15
10
 25
10
 16
0
 26
0
 36
1
 17
0
 27
0
 37
0
 40
179.2069993197301
 41
2.592654424040067
 42
50
 43
0
 44
0
 50
0
 51
0
 71
    0
 72
  100
 73
    1
 74
    3
 75
    0
 76
    1
 77
    0
 78
    0
281
    0
 65
    1
110
0
120
0
130
0
111
1
121
0
131
0
112
0
122
1
132
0
 79
    0
146
0
348
10020
 60
    7
 61
    5
292
1
282
    1
141
0
142
0
 63
  250
421
3358443
  0
ENDTAB
  0
TABLE
  2
LTYPE
  5
5
330
0
100
AcDbSymbolTable
 70
    4
  0
LTYPE
  5
14
330
5
100
AcDbSymbolTableRecord
100
AcDbLinetypeTableRecord
  2
ByBlock
 70
    0
  3

 72
   65
 73
    0
 40
0
  0
LTYPE
  5
15
330
5
100
AcDbSymbolTableRecord
100
AcDbLinetypeTableRecord
  2
ByLayer
 70
    0
  3

 72
   65
 73
    0
 40
0
  0
LTYPE
  5
16
330
5
100
AcDbSymbolTableRecord
100
AcDbLinetypeTableRecord
  2
Continuous
 70
    0
  3
Solid line
 72
   65
 73
    0
 40
0
  0
LTYPE
  5
32
330
5
100
AcDbSymbolTableRecord
100
AcDbLinetypeTableRecord
  2
DOT
 70
    0
  3
Dot . . . . . . . . . . . . . . . . . . . . . .
 72
   65
 73
    2
 40
6.35
 49
0
 74
    0
 49
-6.35
 74
    0
  0
LTYPE
  5
33
330
5
100
AcDbSymbolTableRecord
100
AcDbLinetypeTableRecord
  2
DOTTINY
 70
    0
  3
Dot (.15x) .....................................
 72
   65
 73
    2
 40
0.9525
 49
0
 74
    0
 49
-0.9525
 74
    0
  0
LTYPE
  5
34
330
5
100
AcDbSymbolTableRecord
100
AcDbLinetypeTableRecord
  2
DOT2
 70
    0
  3
Dot (.5x) .....................................
 72
   65
 73
    2
 40
3.175
 49
0
 74
    0
 49
-3.175
 74
    0
  0
LTYPE
  5
35
330
5
100
AcDbSymbolTableRecord
100
AcDbLinetypeTableRecord
  2
DOTX2
 70
    0
  3
Dot (2x) .  .  .  .  .  .  .  .  .  .  .  .  .
 72
   65
 73
    2
 40
12.7
 49
0
 74
    0
 49
-12.7
 74
    0
  0
LTYPE
  5
36
330
5
100
AcDbSymbolTableRecord
100
AcDbLinetypeTableRecord
  2
DASHED
 70
    0
  3
Dashed _ _ _ _ _ _ _ _ _ _ _ _ _ _ _ _ _
 72
   65
 73
    2
 40
19.05
 49
12.7
 74
    0
 49
-6.35
 74
    0
  0
LTYPE
  5
37
330
5
100
AcDbSymbolTableRecord
100
AcDbLinetypeTableRecord
  2
DASHEDTINY
 70
    0
  3
Dashed (.15x) _ _ _ _ _ _ _ _ _ _ _ _ _ _ _ _ _
 72
   65
 73
    2
 40
2.8575
 49
1.905
 74
    0
 49
-0.9525
 74
    0
  0
LTYPE
  5
38
330
5
100
AcDbSymbolTableRecord
100
AcDbLinetypeTableRecord
  2
DASHED2
 70
    0
  3
Dashed (.5x) _ _ _ _ _ _ _ _ _ _ _ _ _ _ _ _ _
 72
   65
 73
    2
 40
9.524999999999999
 49
6.35
 74
    0
 49
-3.175
 74
    0
  0
LTYPE
  5
39
330
5
100
AcDbSymbolTableRecord
100
AcDbLinetypeTableRecord
  2
DASHEDX2
 70
    0
  3
Dashed (2x) ____  ____  ____  ____  ____  ___
 72
   65
 73
    2
 40
38.09999999999999
 49
25.4
 74
    0
 49
-12.7
 74
    0
  0
LTYPE
  5
3A
330
5
100
AcDbSymbolTableRecord
100
AcDbLinetypeTableRecord
  2
DASHDOT
 70
    0
  3
Dash dot __ . __ . __ . __ . __ . __ . __ . __
 72
   65
 73
    4
 40
25.4
 49
12.7
 74
    0
 49
-6.35
 74
    0
 49
0
 74
    0
 49
-6.35
 74
    0
  0
LTYPE
  5
3B
330
5
100
AcDbSymbolTableRecord
100
AcDbLinetypeTableRecord
  2
DASHDOTTINY
 70
    0
  3
Dash dot (.15x) _._._._._._._._._._._._._._._.
 72
   65
 73
    4
 40
3.81
 49
1.905
 74
    0
 49
-0.9525
 74
    0
 49
0
 74
    0
 49
-0.9525
 74
    0
  0
LTYPE
  5
3C
330
5
100
AcDbSymbolTableRecord
100
AcDbLinetypeTableRecord
  2
DASHDOT2
 70
    0
  3
Dash dot (.5x) _._._._._._._._._._._._._._._.
 72
   65
 73
    4
 40
12.7
 49
6.35
 74
    0
 49
-3.175
 74
    0
 49
0
 74
    0
 49
-3.175
 74
    0
  0
LTYPE
  5
3D
330
5
100
AcDbSymbolTableRecord
100
AcDbLinetypeTableRecord
  2
DASHDOTX2
 70
    0
  3
Dash dot (2x) ____  .  ____  .  ____  .  ___
 72
   65
 73
    4
 40
50.8
 49
25.4
 74
    0
 49
-12.7
 74
    0
 49
0
 74
    0
 49
-12.7
 74
    0
  0
LTYPE
  5
3E
330
5
100
AcDbSymbolTableRecord
100
AcDbLinetypeTableRecord
  2
DIVIDE
 70
    0
  3
Divide ____ . . ____ . . ____ . . ____ . . ____
 72
   65
 73
    6
 40
31.75
 49
12.7
 74
    0
 49
-6.35
 74
    0
 49
0
 74
    0
 49
-6.35
 74
    0
 49
0
 74
    0
 49
-6.35
 74
    0
  0
LTYPE
  5
3F
330
5
100
AcDbSymbolTableRecord
100
AcDbLinetypeTableRecord
  2
DIVIDETINY
 70
    0
  3
Divide (.15x) __..__..__..__..__..__..__..__.._
 72
   65
 73
    6
 40
4.7625
 49
1.905
 74
    0
 49
-0.9525
 74
    0
 49
0
 74
    0
 49
-0.9525
 74
    0
 49
0
 74
    0
 49
-0.9525
 74
    0
  0
LTYPE
  5
40
330
5
100
AcDbSymbolTableRecord
100
AcDbLinetypeTableRecord
  2
DIVIDE2
 70
    0
  3
Divide (.5x) __..__..__..__..__..__..__..__.._
 72
   65
 73
    6
 40
15.875
 49
6.35
 74
    0
 49
-3.175
 74
    0
 49
0
 74
    0
 49
-3.175
 74
    0
 49
0
 74
    0
 49
-3.175
 74
    0
  0
LTYPE
  5
41
330
5
100
AcDbSymbolTableRecord
100
AcDbLinetypeTableRecord
  2
DIVIDEX2
 70
    0
  3
Divide (2x) ________  .  .  ________  .  .  _
 72
   65
 73
    6
 40
63.5
 49
25.4
 74
    0
 49
-12.7
 74
    0
 49
0
 74
    0
 49
-12.7
 74
    0
 49
0
 74
    0
 49
-12.7
 74
    0
  0
LTYPE
  5
42
330
5
100
AcDbSymbolTableRecord
100
AcDbLinetypeTableRecord
  2
BORDER
 70
    0
  3
Border __ __ . __ __ . __ __ . __ __ . __ __ .
 72
   65
 73
    6
 40
44.45
 49
12.7
 74
    0
 49
-6.35
 74
    0
 49
12.7
 74
    0
 49
-6.35
 74
    0
 49
0
 74
    0
 49
-6.35
 74
    0
  0
LTYPE
  5
43
330
5
100
AcDbSymbolTableRecord
100
AcDbLinetypeTableRecord
  2
BORDERTINY
 70
    0
  3
Border (.15x) __.__.__.__.__.__.__.__.__.__.__.
 72
   65
 73
    6
 40
6.6675
 49
1.905
 74
    0
 49
-0.9525
 74
    0
 49
1.905
 74
    0
 49
-0.9525
 74
    0
 49
0
 74
    0
 49
-0.9525
 74
    0
  0
LTYPE
  5
44
330
5
100
AcDbSymbolTableRecord
100
AcDbLinetypeTableRecord
  2
BORDER2
 70
    0
  3
Border (.5x) __.__.__.__.__.__.__.__.__.__.__.
 72
   65
 73
    6
 40
22.225
 49
6.35
 74
    0
 49
-3.175
 74
    0
 49
6.35
 74
    0
 49
-3.175
 74
    0
 49
0
 74
    0
 49
-3.175
 74
    0
  0
LTYPE
  5
45
330
5
100
AcDbSymbolTableRecord
100
AcDbLinetypeTableRecord
  2
BORDERX2
 70
    0
  3
Border (2x) ____  ____  .  ____  ____  .  ___
 72
   65
 73
    6
 40
88.89999999999999
 49
25.4
 74
    0
 49
-12.7
 74
    0
 49
25.4
 74
    0
 49
-12.7
 74
    0
 49
0
 74
    0
 49
-12.7
 74
    0
  0
LTYPE
  5
46
330
5
100
AcDbSymbolTableRecord
100
AcDbLinetypeTableRecord
  2
CENTER
 70
    0
  3
Center ____ _ ____ _ ____ _ ____ _ ____ _ ____
 72
   65
 73
    4
 40
50.8
 49
31.75
 74
    0
 49
-6.35
 74
    0
 49
6.35
 74
    0
 49
-6.35
 74
    0
  0
LTYPE
  5
47
330
5
100
AcDbSymbolTableRecord
100
AcDbLinetypeTableRecord
  2
CENTERTINY
 70
    0
  3
Center (.15x) ___ _ ___ _ ___ _ ___ _ ___ _ ___
 72
   65
 73
    4
 40
7.62
 49
4.7625
 74
    0
 49
-0.9525
 74
    0
 49
0.9525
 74
    0
 49
-0.9525
 74
    0
  0
LTYPE
  5
48
330
5
100
AcDbSymbolTableRecord
100
AcDbLinetypeTableRecord
  2
CENTER2
 70
    0
  3
Center (.5x) ___ _ ___ _ ___ _ ___ _ ___ _ ___
 72
   65
 73
    4
 40
28.575
 49
19.05
 74
    0
 49
-3.175
 74
    0
 49
3.175
 74
    0
 49
-3.175
 74
    0
  0
LTYPE
  5
49
330
5
100
AcDbSymbolTableRecord
100
AcDbLinetypeTableRecord
  2
CENTERX2
 70
    0
  3
Center (2x) ________  __  ________  __  _____
 72
   65
 73
    4
 40
101.6
 49
63.5
 74
    0
 49
-12.7
 74
    0
 49
12.7
 74
    0
 49
-12.7
 74
    0
  0
ENDTAB
  0
TABLE
  2
LAYER
  5
2
330
0
100
AcDbSymbolTable
 70
    1
  0
LAYER
  5
10
330
2
100
AcDbSymbolTableRecord
100
AcDbLayerTableRecord
  2
0
 70
    0
 62
    7
  6
CONTINUOUS
370
   -3
390
F
  0
ENDTAB
  0
TABLE
  2
STYLE
  5
3
330
0
100
AcDbSymbolTable
 70
    3
  0
STYLE
  5
4A
330
2
100
AcDbSymbolTableRecord
100
AcDbTextStyleTableRecord
  2
Standard
 70
    0
 40
0
 41
1
 50
0
 71
    0
 42
1
  3
txt
  4

  0
ENDTAB
  0
TABLE
  2
VIEW
  5
6
330
0
100
AcDbSymbolTable
 70
    0
  0
ENDTAB
  0
TABLE
  2
UCS
  5
7
330
0
100
AcDbSymbolTable
 70
    0
  0
ENDTAB
  0
TABLE
  2
APPID
  5
9
330
0
100
AcDbSymbolTable
 70
    1
  0
APPID
  5
12
330
9
100
AcDbSymbolTableRecord
100
AcDbRegAppTableRecord
  2
ACAD
 70
    0
  0
APPID
  5
4B
330
9
100
AcDbSymbolTableRecord
100
AcDbRegAppTableRecord
  2
LibreCad
 70
    0
  0
ENDTAB
  0
TABLE
  2
DIMSTYLE
  5
A
330
0
100
AcDbSymbolTable
 70
    1
100
AcDbDimStyleTable
 71
    1
  0
DIMSTYLE
105
4C
330
A
100
AcDbSymbolTableRecord
100
AcDbDimStyleTableRecord
  2
Standard
 70
    0
 40
1
 41
2.5
 42
0.625
 43
0.38
 44
1.25
 45
0
 46
0
 47
0
 48
0
 49
1
140
2.5
141
0.09
142
2.5
143
25.4
144
1
145
0
146
1
147
0.625
148
0
 71
    0
 72
    0
 73
    0
 74
    1
 75
    0
 76
    0
 77
    0
 78
    1
 79
    0
170
    0
171
    2
172
    0
173
    0
174
    0
175
    0
176
    0
177
    0
178
    0
179
    0
271
    2
272
    4
273
    2
274
    2
275
    0
276
    0
277
    2
278
    0
279
    0
280
    0
281
    0
282
    0
283
    1
284
    0
285
    0
286
    0
288
    0
289
    3
340
standard
341

371
   -2
372
   -2
  0
ENDTAB
  0
TABLE
  2
BLOCK_RECORD
  5
1
330
0
100
AcDbSymbolTable
 70
    2
  0
BLOCK_RECORD
  5
1F
330
1
100
AcDbSymbolTableRecord
100
AcDbBlockTableRecord
  2
*Model_Space
 70
    0
280
    1
281
    0
  0
BLOCK_RECORD
  5
1E
330
1
100
AcDbSymbolTableRecord
100
AcDbBlockTableRecord
  2
*Paper_Space
 70
    0
280
    1
281
    0
  0
ENDTAB
  0
ENDSEC
  0
SECTION
  2
BLOCKS
  0
BLOCK
  5
20
330
1F
100
AcDbEntity
  8
0
100
AcDbBlockBegin
  2
*Model_Space
 70
    0
 10
0
 20
0
 30
0
  3
*Model_Space
  1

  0
ENDBLK
  5
21
330
1F
100
AcDbEntity
  8
0
100
AcDbBlockEnd
  0
BLOCK
  5
1C
330
1B
100
AcDbEntity
  8
0
100
AcDbBlockBegin
  2
*Paper_Space
 70
    0
 10
0
 20
0
 30
0
  3
*Paper_Space
  1

  0
ENDBLK
  5
1D
330
1F
100
AcDbEntity
  8
0
100
AcDbBlockEnd
  0
ENDSEC
  0
SECTION
  2
ENTITIES
  0
LWPOLYLINE
  5
4D
100
AcDbEntity
  8
0
  6
ByLayer
 62
  256
370
   -1
100
AcDbPolyline
 90
   10
 70
    1
 43
0
 10
-149.0220672946958
 20
80.6988888888889
 42
0.4814802629162022
 10
-149.5095653162176
 20
81.31000000000002
 10
-158.997076
 20
81.31000000000003
 42
-0.414213562373095
 10
-159.497076
 20
81.81000000000003
 10
-159.497076
 20
94.81000000000002
 42
-0.4142135623731034
 10
-158.997076
 20
95.31000000000003
 10
-145.997076
 20
95.31000000000003
 42
-0.4142135623731034
 10
-145.497076
 20
94.81000000000002
 10
-145.497076
 20
82.14793704748116
 42
0.2028589055230031
 10
-145.3452241481481
 20
81.78905981646612
 42
-1.709735797202433
  0
LWPOLYLINE
  5
4E
100
AcDbEntity
  8
0
  6
ByLayer
 62
  256
370
   -1
100
AcDbPolyline
 90
   20
 70
    1
 43
0
 10
-164.497076
 20
101.1481472400213
 42
0.1960652157593133
 10
-164.3544834074074
 20
100.7984903437211
 42
-0.4078071792702582
 10
-164.3544834074074
 20
97.72150965627898
 42
0.1960652157593012
 10
-164.497076
 20
97.37185275997876
 10
-164.497076
 20
83.11
 42
-0.4142135623731034
 10
-164.997076
 20
82.60999999999999
 10
-177.997076
 20
82.60999999999999
 42
-0.4142135623731034
 10
-178.497076
 20
83.11
 10
-178.497076
 20
96.11000000000001
 42
-0.414213562373095
 10
-177.997076
 20
96.61000000000001
 10
-168.627076
 20
96.61000000000001
 42
0.4142135623731034
 10
-168.127076
 20
97.11000000000001
 10
-168.127076
 20
101.21
 42
0.4142135623731117
 10
-168.627076
 20
101.7100000000001
 10
-177.997076
 20
101.71
 42
-0.4142135623731034
 10
-178.497076
 20
102.21
 10
-178.497076
 20
115.21
 42
-0.414213562373095
 10
-177.997076
 20
115.71
 10
-164.997076
 20
115.71
 42
-0.414213562373095
 10
-164.497076
 20
115.21
  0
LWPOLYLINE
  5
4F
100
AcDbEntity
  8
0
  6
ByLayer
 62
  256
370
   -1
100
AcDbPolyline
 90
   13
 70
    1
 43
0
 10
-149.077076
 20
120.1763333898114
 42
0.3621441918267756
 10
-149.487076
 20
120.6681666949057
 42
-0.3621441918267399
 10
-149.897076
 20
121.16
 10
-149.897076
 20
134.16
 42
-0.414213562373095
 10
-149.397076
 20
134.6600000000001
 10
-136.397076
 20
134.66
 42
-0.4142135623730784
 10
-135.897076
 20
134.16
 10
-135.897076
 20
121.16
 42
-0.4142135623730867
 10
-136.397076
 20
120.66
 10
-144.177076
 20
120.66
 42
0.4142135623730867
 10
-144.677076
 20
120.16
 10
-144.677076
 20
118.31
 42
-0.9999999999999968
 10
-149.077076
 20
118.31
  0
LWPOLYLINE
  5
50
100
AcDbEntity
  8
0
  6
ByLayer
 62
  256
370
   -1
100
AcDbPolyline
 90
    8
 70
    1
 43
0
 10
-107.397076
 20
60.41
 42
0.414213562373095
 10
-107.897076
 20
60.91
 10
-120.897076
 20
60.90999999999998
 42
0.4142135623730909
 10
-121.397076
 20
60.40999999999998
 10
-121.397076
 20
47.40999999999999
 42
0.4142135623730909
 10
-120.897076
 20
46.90999999999999
 10
-107.897076
 20
46.91
 42
0.414213562373095
 10
-107.397076
 20
47.41
  0
LWPOLYLINE
  5
51
100
AcDbEntity
  8
0
  6
ByLayer
 62
  256
370
   -1
100
AcDbPolyline
 90
    8
 70
    1
 43
0
 10
-126.397076
 20
58.00999999999999
 42
0.414213562373095
 10
-126.897076
 20
58.50999999999999
 10
-139.897076
 20
58.50999999999998
 42
0.414213562373095
 10
-140.397076
 20
58.00999999999998
 10
-140.397076
 20
45.01000000000001
 42
0.414213562373095
 10
-139.897076
 20
44.51000000000001
 10
-126.897076
 20
44.51000000000001
 42
0.414213562373095
 10
-126.397076
 20
45.01000000000001
  0
LWPOLYLINE
  5
52
100
AcDbEntity
  8
0
  6
ByLayer
 62
  256
370
   -1
100
AcDbPolyline
 90
    8
 70
    1
 43
0
 10
-145.497076
 20
56.62000000000002
 42
0.414213562373095
 10
-145.997076
 20
57.12000000000002
 10
-158.997076
 20
57.12
 42
0.414213562373095
 10
-159.497076
 20
56.62
 10
-159.497076
 20
43.61999999999999
 42
0.414213562373095
 10
-158.997076
 20
43.11999999999999
 10
-145.997076
 20
43.12
 42
0.414213562373095
 10
-145.497076
 20
43.62
  0
LWPOLYLINE
  5
53
100
AcDbEntity
  8
0
  6
ByLayer
 62
  256
370
   -1
100
AcDbPolyline
 90
    8
 70
    1
 43
0
 10
-164.497076
 20
58.01000000000001
 42
0.4142135623730909
 10
-164.997076
 20
58.51000000000001
 10
-177.997076
 20
58.51000000000001
 42
0.414213562373095
 10
-178.497076
 20
58.01000000000001
 10
-178.497076
 20
45.00999999999999
 42
0.414213562373095
 10
-177.997076
 20
44.50999999999999
 10
-164.997076
 20
44.50999999999999
 42
0.414213562373095
 10
-164.497076
 20
45.00999999999999
  0
LWPOLYLINE
  5
54
100
AcDbEntity
  8
0
  6
ByLayer
 62
  256
370
   -1
100
AcDbPolyline
 90
    8
 70
    1
 43
0
 10
-183.597076
 20
62.81
 42
0.414213562373095
 10
-184.097076
 20
63.31
 10
-197.097076
 20
63.30999999999999
 42
0.414213562373095
 10
-197.597076
 20
62.80999999999999
 10
-197.597076
 20
49.81000000000002
 42
0.414213562373095
 10
-197.097076
 20
49.31000000000002
 10
-184.097076
 20
49.31000000000002
 42
0.414213562373095
 10
-183.597076
 20
49.81000000000002
  0
LWPOLYLINE
  5
55
100
AcDbEntity
  8
0
  6
ByLayer
 62
  256
370
   -1
100
AcDbPolyline
 90
    8
 70
    1
 43
0
 10
-202.597076
 20
64.31
 42
0.414213562373095
 10
-203.097076
 20
64.81
 10
-216.097076
 20
64.81
 42
0.414213562373095
 10
-216.597076
 20
64.31
 10
-216.597076
 20
51.31000000000001
 42
0.4142135623730909
 10
-216.097076
 20
50.81000000000002
 10
-203.097076
 20
50.81000000000002
 42
0.414213562373095
 10
-202.597076
 20
51.31000000000002
  0
LWPOLYLINE
  5
56
100
AcDbEntity
  8
0
  6
ByLayer
 62
  256
370
   -1
100
AcDbPolyline
 90
    8
 70
    1
 43
0
 10
-202.597076
 20
83.20999999999998
 42
0.414213562373095
 10
-203.097076
 20
83.70999999999998
 10
-216.097076
 20
83.70999999999998
 42
0.414213562373095
 10
-216.597076
 20
83.20999999999998
 10
-216.597076
 20
70.20999999999998
 42
0.414213562373095
 10
-216.097076
 20
69.70999999999998
 10
-203.097076
 20
69.70999999999999
 42
0.414213562373095
 10
-202.597076
 20
70.20999999999999
  0
LWPOLYLINE
  5
57
100
AcDbEntity
  8
0
  6
ByLayer
 62
  256
370
   -1
100
AcDbPolyline
 90
    8
 70
    1
 43
0
 10
-183.597076
 20
81.70999999999999
 42
0.4142135623731034
 10
-184.097076
 20
82.21000000000001
 10
-197.097076
 20
82.21000000000001
 42
0.4142135623731034
 10
-197.597076
 20
81.70999999999999
 10
-197.597076
 20
68.70999999999999
 42
0.414213562373095
 10
-197.097076
 20
68.20999999999999
 10
-184.097076
 20
68.21000000000001
 42
0.414213562373095
 10
-183.597076
 20
68.71000000000001
  0
LWPOLYLINE
  5
58
100
AcDbEntity
  8
0
  6
ByLayer
 62
  256
370
   -1
100
AcDbPolyline
 90
    8
 70
    1
 43
0
 10
-164.497076
 20
77.01000000000002
 42
0.414213562373095
 10
-164.997076
 20
77.51000000000002
 10
-177.997076
 20
77.51000000000001
 42
0.414213562373095
 10
-178.497076
 20
77.01000000000001
 10
-178.497076
 20
64.01000000000001
 42
0.414213562373095
 10
-177.997076
 20
63.51000000000001
 10
-164.997076
 20
63.51000000000002
 42
0.414213562373095
 10
-164.497076
 20
64.01000000000002
  0
LWPOLYLINE
  5
59
100
AcDbEntity
  8
0
  6
ByLayer
 62
  256
370
   -1
100
AcDbPolyline
 90
    8
 70
    1
 43
0
 10
-145.497076
 20
75.70999999999999
 42
0.414213562373095
 10
-145.997076
 20
76.20999999999999
 10
-158.997076
 20
76.20999999999999
 42
0.414213562373095
 10
-159.497076
 20
75.70999999999999
 10
-159.497076
 20
62.70999999999998
 42
0.414213562373095
 10
-158.997076
 20
62.20999999999998
 10
-145.997076
 20
62.20999999999999
 42
0.414213562373095
 10
-145.497076
 20
62.70999999999999
  0
LWPOLYLINE
  5
5A
100
AcDbEntity
  8
0
  6
ByLayer
 62
  256
370
   -1
100
AcDbPolyline
 90
    8
 70
    1
 43
0
 10
-126.397076
 20
77.11
 42
0.4142135623730867
 10
-126.897076
 20
77.60999999999999
 10
-139.897076
 20
77.61
 42
0.4142135623731034
 10
-140.3970760000001
 20
77.11
 10
-140.3970760000001
 20
64.11
 42
0.4142135623731034
 10
-139.897076
 20
63.61
 10
-126.897076
 20
63.61000000000001
 42
0.4142135623730867
 10
-126.397076
 20
64.11
  0
LWPOLYLINE
  5
5B
100
AcDbEntity
  8
0
  6
ByLayer
 62
  256
370
   -1
100
AcDbPolyline
 90
    8
 70
    1
 43
0
 10
-107.397076
 20
79.51000000000002
 42
0.414213562373095
 10
-107.897076
 20
80.01000000000002
 10
-120.897076
 20
80.01000000000002
 42
0.414213562373095
 10
-121.397076
 20
79.51000000000001
 10
-121.397076
 20
66.51000000000001
 42
0.414213562373095
 10
-120.897076
 20
66.00999999999999
 10
-107.897076
 20
66.01000000000002
 42
0.414213562373095
 10
-107.397076
 20
66.51000000000002
  0
LWPOLYLINE
  5
5C
100
AcDbEntity
  8
0
  6
ByLayer
 62
  256
370
   -1
100
AcDbPolyline
 90
    8
 70
    1
 43
0
 10
-107.397076
 20
98.50999999999999
 42
0.414213562373095
 10
-107.897076
 20
99.00999999999999
 10
-120.897076
 20
99.00999999999999
 42
0.414213562373095
 10
-121.397076
 20
98.50999999999999
 10
-121.397076
 20
85.51000000000002
 42
0.4142135623731034
 10
-120.897076
 20
85.01000000000002
 10
-107.897076
 20
85.01000000000002
 42
0.414213562373095
 10
-107.397076
 20
85.51000000000002
  0
LWPOLYLINE
  5
5D
100
AcDbEntity
  8
0
  6
ByLayer
 62
  256
370
   -1
100
AcDbPolyline
 90
    8
 70
    1
 43
0
 10
-183.597076
 20
100.91
 42
0.414213562373095
 10
-184.097076
 20
101.41
 10
-197.097076
 20
101.41
 42
0.414213562373095
 10
-197.597076
 20
100.91
 10
-197.597076
 20
87.91000000000003
 42
0.414213562373095
 10
-197.097076
 20
87.41000000000003
 10
-184.097076
 20
87.41000000000003
 42
0.414213562373095
 10
-183.597076
 20
87.91000000000003
  0
LWPOLYLINE
  5
5E
100
AcDbEntity
  8
0
  6
ByLayer
 62
  256
370
   -1
100
AcDbPolyline
 90
    8
 70
    1
 43
0
 10
-202.597076
 20
102.41
 42
0.414213562373095
 10
-203.097076
 20
102.91
 10
-216.097076
 20
102.91
 42
0.414213562373095
 10
-216.597076
 20
102.41
 10
-216.597076
 20
89.41
 42
0.414213562373095
 10
-216.097076
 20
88.91
 10
-203.097076
 20
88.91
 42
0.414213562373095
 10
-202.597076
 20
89.41
  0
LWPOLYLINE
  5
5F
100
AcDbEntity
  8
0
  6
ByLayer
 62
  256
370
   -1
100
AcDbPolyline
 90
    8
 70
    1
 43
0
 10
-202.647076
 20
121.41
 42
0.4142135623731034
 10
-203.147076
 20
121.91
 10
-216.147076
 20
121.91
 42
0.4142135623731034
 10
-216.647076
 20
121.41
 10
-216.647076
 20
108.41
 42
0.4142135623731034
 10
-216.147076
 20
107.91
 10
-203.147076
 20
107.91
 42
0.4142135623731034
 10
-202.647076
 20
108.41
  0
LWPOLYLINE
  5
60
100
AcDbEntity
  8
0
  6
ByLayer
 62
  256
370
   -1
100
AcDbPolyline
 90
    8
 70
    1
 43
0
 10
-183.597076
 20
119.91
 42
0.414213562373095
 10
-184.097076
 20
120.41
 10
-197.097076
 20
120.41
 42
0.414213562373095
 10
-197.597076
 20
119.91
 10
-197.597076
 20
106.91
 42
0.414213562373095
 10
-197.097076
 20
106.41
 10
-184.097076
 20
106.41
 42
0.414213562373095
 10
-183.597076
 20
106.91
  0
LWPOLYLINE
  5
61
100
AcDbEntity
  8
0
  6
ByLayer
 62
  256
370
   -1
100
AcDbPolyline
 90
    8
 70
    1
 43
0
 10
-145.497076
 20
113.81
 42
0.414213562373095
 10
-145.997076
 20
114.31
 10
-158.997076
 20
114.31
 42
0.414213562373095
 10
-159.497076
 20
113.81
 10
-159.497076
 20
100.81
 42
0.4142135623731034
 10
-158.997076
 20
100.31
 10
-145.997076
 20
100.31
 42
0.4142135623731034
 10
-145.497076
 20
100.81
  0
LWPOLYLINE
  5
62
100
AcDbEntity
  8
0
  6
ByLayer
 62
  256
370
   -1
100
AcDbPolyline
 90
    8
 70
    1
 43
0
 10
-107.397076
 20
117.51
 42
0.4142135623730867
 10
-107.897076
 20
118.01
 10
-120.897076
 20
118.01
 42
0.414213562373095
 10
-121.397076
 20
117.51
 10
-121.397076
 20
104.51
 42
0.4142135623731034
 10
-120.897076
 20
104.01
 10
-107.897076
 20
104.01
 42
0.4142135623731034
 10
-107.397076
 20
104.51
  0
LWPOLYLINE
  5
63
100
AcDbEntity
  8
0
  6
ByLayer
 62
  256
370
   -1
100
AcDbPolyline
 90
    8
 70
    1
 43
0
 10
-88.297076
 20
107.91
 42
0.414213562373095
 10
-88.797076
 20
108.41
 10
-101.797076
 20
108.41
 42
0.414213562373095
 10
-102.297076
 20
107.91
 10
-102.297076
 20
94.91000000000001
 42
0.414213562373095
 10
-101.797076
 20
94.41000000000001
 10
-88.797076
 20
94.41000000000003
 42
0.4142135623730867
 10
-88.297076
 20
94.91000000000001
  0
LWPOLYLINE
  5
64
100
AcDbEntity
  8
0
  6
ByLayer
 62
  256
370
   -1
100
AcDbPolyline
 90
    8
 70
    1
 43
0
 10
-154.997076
 20
134.16
 42
0.414213562373095
 10
-155.497076
 20
134.66
 10
-168.497076
 20
134.6600000000001
 42
0.4142135623731117
 10
-168.997076
 20
134.16
 10
-168.997076
 20
121.16
 42
0.414213562373095
 10
-168.497076
 20
120.66
 10
-155.497076
 20
120.66
 42
0.4142135623731034
 10
-154.997076
 20
121.16
  0
LWPOLYLINE
  5
65
100
AcDbEntity
  8
0
  6
ByLayer
 62
  256
370
   -1
100
AcDbPolyline
 90
    8
 70
    1
 43
0
 10
-116.897076
 20
136.41
 42
0.414213562373095
 10
-117.397076
 20
136.91
 10
-130.397076
 20
136.91
 42
0.4142135623730784
 10
-130.897076
 20
136.41
 10
-130.897076
 20
123.41
 42
0.4142135623731034
 10
-130.397076
 20
122.91
 10
-117.397076
 20
122.91
 42
0.4142135623731034
 10
-116.897076
 20
123.41
  0
LWPOLYLINE
  5
66
100
AcDbEntity
  8
0
  6
ByLayer
 62
  256
370
   -1
100
AcDbPolyline
 90
    8
 70
    1
 43
0
 10
-96.08489817350893
 20
140.0391651245992
 42
0.4142135623730836
 10
-96.76791087540111
 20
140.2221778264914
 10
-108.0262411245989
 20
133.7221778264911
 42
0.4142135623730949
 10
-108.2092538264911
 20
133.0391651245989
 10
-101.7092538264911
 20
121.7808348754012
 42
0.4142135623730992
 10
-101.0262411245989
 20
121.5978221735089
 10
-89.7679108754011
 20
128.0978221735089
 42
0.4142135623730919
 10
-89.58489817350889
 20
128.7808348754012
  0
LWPOLYLINE
  5
67
100
AcDbEntity
  8
0
  6
ByLayer
 62
  256
370
   -1
100
AcDbPolyline
 90
   75
 70
    1
 43
0
 10
-106.097076
 20
40.996762
 42
0.414213562373094
 10
-104.097076
 20
42.996762
 10
-104.097076
 20
89.00945912237454
 42
-0.4142019990513147
 10
-101.997158907604
 20
91.10945912073791
 10
-78.74009885973912
 20
91.11037730508389
 42
0.3263574277817586
 10
-76.834853
 20
92.50231700000001
 10
-77.032766
 20
96.52756100000002
 10
-77.387373
 20
100.567663
 10
-77.918048
 20
104.600825
 10
-78.644159
 20
108.605246
 10
-79.58508
 20
112.559127
 10
-80.760181
 20
116.44067
 10
-82.18883400000001
 20
120.228073
 10
-83.88994500000001
 20
123.898423
 10
-85.565639
 20
126.764742
 10
-87.24133399999999
 20
129.631062
 10
-88.91702800000002
 20
132.497381
 10
-90.59272300000002
 20
135.363701
 10
-92.268417
 20
138.23002
 10
-93.944112
 20
141.09634
 10
-95.619806
 20
143.962659
 10
-97.295501
 20
146.828979
 10
-97.388913
 20
146.99815
 10
-97.49437100000002
 20
147.132884
 10
-97.61140400000001
 20
147.232532
 10
-97.73954600000002
 20
147.296445
 10
-97.87832800000001
 20
147.323974
 10
-98.02728200000001
 20
147.314468
 10
-98.18594000000002
 20
147.267278
 10
-98.35383400000001
 20
147.181756
 10
-100.029528
 20
146.211617
 10
-101.705223
 20
145.241479
 10
-103.380917
 20
144.27134
 10
-105.056612
 20
143.301201
 10
-106.732306
 20
142.331062
 10
-108.408001
 20
141.360923
 10
-110.083695
 20
140.390784
 10
-111.760249
 20
139.421658
 10
-170.716424
 20
139.421658
 10
-171.01892
 20
139.391211
 10
-171.300576
 20
139.303876
 10
-171.555384
 20
139.16566
 10
-171.777337
 20
138.982571
 10
-171.960425
 20
138.760619
 10
-172.098641
 20
138.50581
 10
-172.185977
 20
138.224154
 10
-172.216424
 20
137.921658
 10
-172.216424
 20
128.199735
 10
-172.287467
 20
127.493911
 10
-172.49125
 20
126.836713
 10
-172.813754
 20
126.24216
 10
-173.24096
 20
125.724271
 10
-173.758849
 20
125.297065
 10
-174.353402
 20
124.974561
 10
-175.0106
 20
124.770778
 10
-175.716424
 20
124.699735
 10
-217.857075
 20
124.699735
 10
-218.159571
 20
124.669288
 10
-218.441228
 20
124.581952
 10
-218.696036
 20
124.443736
 10
-218.917988
 20
124.260648
 10
-219.101077
 20
124.038696
 10
-219.239293
 20
123.783887
 10
-219.326628
 20
123.502231
 10
-219.357076
 20
123.199735
 10
-219.357076
 20
47.34675500000001
 10
-218.797076
 20
46.61000000000001
 10
-218.175547
 20
46.06619000000001
 10
-214.786395
 20
44.873847
 10
-209.422773
 20
43.79515900000001
 10
-202.317834
 20
42.855561
 10
-193.70473
 20
42.080488
 10
-183.816614
 20
41.495374
 10
-172.886639
 20
41.125654
 10
-161.147957
 20
40.996762
  0
CIRCLE
  5
68
100
AcDbEntity
  8
0
  6
ByLayer
 62
  256
370
   -1
100
AcDbCircle
 10
-123.497076
 20
63.51
 40
1.099999999999994
  0
CIRCLE
  5
69
100
AcDbEntity
  8
0
  6
ByLayer
 62
  256
370
   -1
100
AcDbCircle
 10
-98.89707600000001
 20
118.71
 40
1.099999999999994
  0
CIRCLE
  5
6A
100
AcDbEntity
  8
0
  6
ByLayer
 62
  256
370
   -1
100
AcDbCircle
 10
-199.697076
 20
103.91
 40
1.099999999999994
  0
CIRCLE
  5
6B
100
AcDbEntity
  8
0
  6
ByLayer
 62
  256
370
   -1
100
AcDbCircle
 10
-123.497076
 20
101.51
 40
1.099999999999994
  0
CIRCLE
  5
6C
100
AcDbEntity
  8
0
  6
ByLayer
 62
  256
370
   -1
100
AcDbCircle
 10
-199.697076
 20
65.70999999999999
 40
1.099999999999994
  0
LWPOLYLINE
  5
6D
100
AcDbEntity
  8
0
  6
ByLayer
 62
  256
370
   -1
100
AcDbPolyline
 90
   20
 70
    1
 43
0
 10
-130.527076
 20
96.61000000000001
 42
0.4142135623730534
 10
-130.027076
 20
97.11
 10
-130.027076
 20
101.21
 42
0.4142135623730617
 10
-130.527076
 20
101.71
 10
-139.897076
 20
101.71
 42
-0.4142135623731034
 10
-140.397076
 20
102.21
 10
-140.397076
 20
115.21
 42
-0.414213562373095
 10
-139.897076
 20
115.71
 10
-126.897076
 20
115.71
 42
-0.414213562373095
 10
-126.397076
 20
115.21
 10
-126.397076
 20
101.1481472400213
 42
0.1960652157593977
 10
-126.2544834074074
 20
100.798490343721
 42
-0.4078071792702515
 10
-126.2544834074074
 20
97.72150965627898
 42
0.1960652157593924
 10
-126.397076
 20
97.37185275997874
 10
-126.397076
 20
83.11000000000001
 42
-0.4142135623730867
 10
-126.897076
 20
82.61000000000001
 10
-139.897076
 20
82.61000000000001
 42
-0.414213562373095
 10
-140.397076
 20
83.11000000000001
 10
-140.397076
 20
96.10999999999999
 42
-0.414213562373095
 10
-139.897076
 20
96.60999999999999
  0
ENDSEC
  0
SECTION
  2
OBJECTS
  0
DICTIONARY
  5
C
330
0
100
AcDbDictionary
281
    1
  3
ACAD_GROUP
350
D
  0
DICTIONARY
  5
D
330
C
100
AcDbDictionary
281
    1
  0
PLOTSETTINGS
  5
6E
100
AcDbPlotSettings
  6
1x1
 40
0
 41
0
 42
0
 43
0
  0
ENDSEC
  0
EOF
