0
SECTION
2
HEADER
9
$INSUNITS
70
4
9
$ACADVER
1
AC1014
9
$HANDSEED
5
FFFF
0
ENDSEC
0
SECTION
2
TABLES
0
TABLE
2
VPORT
5
8
100
AcDbSymbolTable
0
ENDTAB
0
TABLE
2
LTYPE
5
5
100
AcDbSymbolTable
0
LTYPE
5
14
100
AcDbSymbolTableRecord
100
AcDbLinetypeTableRecord
2
BYBLOCK
70
0
0
LTYPE
5
15
100
AcDbSymbolTableRecord
100
AcDbLinetypeTableRecord
2
BYLAYER
70
0
0
ENDTAB
0
TABLE
2
LAYER
5
2
100
AcDbSymbolTable
70
2
0
LAYER
5
50
100
AcDbSymbolTableRecord
100
AcDbLayerTableRecord
2
0
70
0
6
CONTINUOUS
0
ENDTAB
0
TABLE
2
STYLE
5
3
100
AcDbSymbolTable
70
1
0
STYLE
5
11
100
AcDbSymbolTableRecord
100
AcDbTextStyleTableRecord
2
STANDARD
70
0
0
ENDTAB
0
TABLE
2
VIEW
5
6
100
AcDbSymbolTable
70
0
0
ENDTAB
0
TABLE
2
UCS
5
7
100
AcDbSymbolTable
70
0
0
ENDTAB
0
TABLE
2
APPID
5
9
100
AcDbSymbolTable
70
2
0
APPID
5
12
100
AcDbSymbolTableRecord
100
AcDbRegAppTableRecord
2
ACAD
70
0
0
ENDTAB
0
TABLE
2
DIMSTYLE
5
A
100
AcDbSymbolTable
70
1
0
ENDTAB
0
TABLE
2
BLOCK_RECORD
5
1
100
AcDbSymbolTable
70
1
0
BLOCK_RECORD
5
1F
100
AcDbSymbolTableRecord
100
AcDbBlockTableRecord
2
*MODEL_SPACE
0
BLOCK_RECORD
5
1B
100
AcDbSymbolTableRecord
100
AcDbBlockTableRecord
2
*PAPER_SPACE
0
ENDTAB
0
ENDSEC
0
SECTION
2
BLOCKS
0
BLOCK
5
20
100
AcDbEntity
100
AcDbBlockBegin
2
*MODEL_SPACE
0
ENDBLK
5
21
100
AcDbEntity
100
AcDbBlockEnd
0
BLOCK
5
1C
100
AcDbEntity
100
AcDbBlockBegin
2
*PAPER_SPACE
0
ENDBLK
5
1D
100
AcDbEntity
100
AcDbBlockEnd
0
ENDSEC
0
SECTION
2
ENTITIES
0
LWPOLYLINE
5
100
100
AcDbEntity
8
0
100
AcDbPolyline
90
24
70
1
43
0.0
10
158.09707599999999
20
-135.91000000000008
42
0.41421356237310802
10
158.49707599999999
20
-136.31000000000012
10
165.49707600000002
20
-136.31000000000006
42
0.41421356237305601
10
165.89707600000003
20
-135.91000000000005
10
165.89707600000003
20
-135.16000000000008
42
-0.41421356237309503
10
166.49707600000002
20
-134.56000000000006
10
168.49707599999999
20
-134.56000000000009
42
0.41421356237312101
10
168.89707600000003
20
-134.16
10
168.89707599999997
20
-121.16000000000001
42
0.41421356237302998
10
168.49707600000002
20
-120.76000000000002
10
166.49707600000005
20
-120.76000000000006
42
-0.41421356237312101
10
165.89707599999997
20
-120.16000000000003
10
165.89707599999997
20
-119.4100000000001
42
0.41421356237305601
10
165.49707599999999
20
-119.0100000000001
10
158.49707599999999
20
-119.01000000000009
42
0.41421356237310802
10
158.09707599999999
20
-119.4100000000001
10
158.09707599999999
20
-120.16000000000003
42
-0.41421356237305174
10
157.49707599999999
20
-120.76000000000001
10
155.49707599999999
20
-120.76000000000001
42
0.41421356237319906
10
155.09707600000004
20
-121.16
10
155.09707600000002
20
-134.16
42
0.41421356237310802
10
155.49707599999999
20
-134.56
10
157.49707599999996
20
-134.56
42
-0.41421356237309503
10
158.09707599999999
20
-135.16000000000003
0
LWPOLYLINE
5
101
100
AcDbEntity
8
0
100
AcDbPolyline
90
13
70
1
43
0.0
10
135.99707599999999
20
-134.16
42
0.41421356237314705
10
136.39707600000003
20
-134.56
10
149.39707599999997
20
-134.56000000000006
42
0.414213562373069
10
149.797076
20
-134.16
10
149.797076
20
-121.16
42
0.36214419182681934
10
149.46907600000003
20
-120.76653335592457
42
-0.36214419182680369
10
148.97707600000001
20
-120.17633338981142
10
148.97707600000001
20
-118.31000000000002
42
0.99999999999999989
10
144.77707599999999
20
-118.31000000000002
10
144.77707599999999
20
-120.16
42
-0.41421356237307771
10
144.177076
20
-120.76000000000001
10
136.397076
20
-120.76000000000001
42
0.41421356237318607
10
135.99707599999999
20
-121.16
0
LWPOLYLINE
5
102
100
AcDbEntity
8
0
100
AcDbPolyline
90
8
70
1
43
0.0
10
202.69707600000001
20
-83.209999999999994
42
0.41421356237314705
10
203.09707599999999
20
-83.609999999999985
10
216.09707600000002
20
-83.609999999999985
42
0.41421356237297796
10
216.49707599999996
20
-83.20999999999998
10
216.49707599999999
20
-70.20999999999998
42
0.41421356237311452
10
216.09707600000002
20
-69.810000000000045
10
203.09707599999999
20
-69.810000000000002
42
0.41421356237320561
10
202.69707600000001
20
-70.209999999999994
0
LWPOLYLINE
5
103
100
AcDbEntity
8
0
100
AcDbPolyline
90
8
70
1
43
0.0
10
96.171500713887383
20
-139.98916512459923
42
0.4142135623731531
10
96.717910875401145
20
-140.13557528611304
10
107.97624112459889
20
-133.63557528611264
42
0.4142135623730257
10
108.12265128611266
20
-133.08916512459891
10
101.62265128611266
20
-121.83083487540119
42
0.41421356237300144
10
101.07624112459889
20
-121.68442471388732
10
89.817910875401097
20
-128.18442471388738
42
0.4142135623731128
10
89.671500713887355
20
-128.73083487540123
0
LWPOLYLINE
5
104
100
AcDbEntity
8
0
100
AcDbPolyline
90
8
70
1
43
0.0
10
107.49707600000001
20
-117.51000000000003
42
0.41421356237318607
10
107.897076
20
-117.91
10
120.897076
20
-117.91000000000003
42
0.41421356237314705
10
121.29707600000002
20
-117.51000000000002
10
121.29707600000002
20
-104.51000000000001
42
0.41421356237305601
10
120.897076
20
-104.11000000000001
10
107.897076
20
-104.11000000000001
42
0.41421356237319906
10
107.49707600000001
20
-104.51000000000001
0
LWPOLYLINE
5
105
100
AcDbEntity
8
0
100
AcDbPolyline
90
8
70
1
43
0.0
10
202.69707600000001
20
-102.41000000000001
42
0.41421356237314705
10
203.09707599999999
20
-102.81
10
216.09707600000002
20
-102.81
42
0.41421356237297796
10
216.49707599999996
20
-102.41
10
216.49707599999999
20
-89.410000000000011
42
0.41421356237309503
10
216.09707600000002
20
-89.010000000000019
10
203.09707599999999
20
-89.009999999999991
42
0.41421356237305601
10
202.69707599999998
20
-89.410000000000011
0
LWPOLYLINE
5
106
100
AcDbEntity
8
0
100
AcDbPolyline
90
8
70
1
43
0.0
10
197.49707599999996
20
-106.91000000000001
42
0.41421356237302998
10
197.09707600000002
20
-106.50999999999999
10
184.09707600000002
20
-106.50999999999999
42
0.41421356237305601
10
183.69707599999998
20
-106.91000000000001
10
183.69707600000001
20
-119.91000000000001
42
0.41421356237314705
10
184.09707600000002
20
-120.31
10
197.09707599999999
20
-120.31
42
0.41421356237313406
10
197.49707599999999
20
-119.91
0
LWPOLYLINE
5
107
100
AcDbEntity
8
0
100
AcDbPolyline
90
8
70
1
43
0.0
10
107.49707600000001
20
-98.510000000000005
42
0.41421356237310802
10
107.897076
20
-98.909999999999982
10
120.897076
20
-98.910000000000025
42
0.41421356237310802
10
121.29707600000002
20
-98.510000000000005
10
121.29707600000002
20
-85.510000000000019
42
0.41421356237305601
10
120.897076
20
-85.110000000000028
10
107.897076
20
-85.110000000000028
42
0.41421356237309503
10
107.49707600000001
20
-85.510000000000019
0
LWPOLYLINE
5
108
100
AcDbEntity
8
0
100
AcDbPolyline
90
8
70
1
43
0.0
10
159.397076
20
-100.81000000000002
42
0.41421356237310802
10
158.99707599999999
20
-100.41000000000003
10
145.99707599999999
20
-100.41
42
0.41421356237304302
10
145.59707599999999
20
-100.81000000000002
10
145.59707599999999
20
-113.81
42
0.41421356237310802
10
145.99707599999999
20
-114.21000000000001
10
158.99707599999999
20
-114.21000000000001
42
0.41421356237314705
10
159.397076
20
-113.81
0
LWPOLYLINE
5
109
100
AcDbEntity
8
0
100
AcDbPolyline
90
24
70
1
43
0.0
10
91.397075999999956
20
-109.66000000000001
42
0.41421356237314705
10
91.797075999999976
20
-110.06000000000002
10
98.797075999999961
20
-110.06000000000002
42
0.41421356237314705
10
99.197075999999967
20
-109.66000000000001
10
99.197075999999967
20
-108.91000000000003
42
-0.41421356237309503
10
99.797075999999976
20
-108.31000000000002
10
101.797076
20
-108.31000000000002
42
0.41421356237314705
10
102.19707600000001
20
-107.91
10
102.19707600000001
20
-94.909999999999997
42
0.41421356237316009
10
101.797076
20
-94.510000000000005
10
99.797075999999976
20
-94.510000000000005
42
-0.41421356237307771
10
99.197075999999967
20
-93.909999999999997
10
99.197075999999967
20
-93.160000000000025
42
0.41421356237314705
10
98.797075999999961
20
-92.760000000000019
10
91.797075999999976
20
-92.760000000000019
42
0.41421356237314705
10
91.397075999999956
20
-93.160000000000025
10
91.397075999999956
20
-93.910000000000039
42
-0.41421356237307771
10
90.797075999999947
20
-94.510000000000048
10
88.797076000000018
20
-94.510000000000048
42
0.41421356237305601
10
88.397075999999998
20
-94.909999999999997
10
88.397075999999998
20
-107.91
42
0.41421356237310802
10
88.797076000000018
20
-108.31000000000002
10
90.797075999999933
20
-108.31
42
-0.41421356237307771
10
91.397075999999956
20
-108.91000000000003
0
LWPOLYLINE
5
110
100
AcDbEntity
8
0
100
AcDbPolyline
90
8
70
1
43
0.0
10
116.99707599999999
20
-136.41
42
0.41421356237304302
10
117.39707600000001
20
-136.81
10
130.397076
20
-136.81
42
0.41421356237310802
10
130.797076
20
-136.41
10
130.797076
20
-123.41000000000001
42
0.41421356237314705
10
130.397076
20
-123.01000000000001
10
117.39707600000001
20
-123.01000000000001
42
0.41421356237310802
10
116.99707599999999
20
-123.41000000000001
0
LWPOLYLINE
5
111
100
AcDbEntity
8
0
100
AcDbPolyline
90
20
70
1
43
0.0
10
177.99707600000002
20
-115.60999999999999
42
0.41421356237309503
10
178.39707600000003
20
-115.21000000000001
10
178.397076
20
-102.21000000000001
42
0.41421356237305601
10
177.99707600000005
20
-101.81000000000003
10
168.62707599999999
20
-101.81000000000013
42
-0.41421356237307771
10
168.02707599999997
20
-101.21000000000001
10
168.02707599999997
20
-97.109999999999985
42
-0.41421356237304302
10
168.62707599999999
20
-96.510000000000019
10
177.99707600000005
20
-96.509999999999991
42
0.41421356237304302
10
178.39707599999997
20
-96.110000000000014
10
178.397076
20
-83.109999999999999
42
0.41421356237305601
10
177.99707600000005
20
-82.710000000000022
10
164.99707600000005
20
-82.70999999999998
42
0.41421356237309503
10
164.59707600000002
20
-83.109999999999999
10
164.59707599999999
20
-97.371852759978765
42
-0.19606521575930405
10
164.42596488888887
20
-97.791441035539052
42
0.40780717927025922
10
164.42596488888893
20
-100.72855896446107
42
-0.19606521575929828
10
164.59707600000002
20
-101.1481472400213
10
164.59707600000004
20
-115.21000000000001
42
0.41421356237301699
10
164.99707599999999
20
-115.61
0
LWPOLYLINE
5
112
100
AcDbEntity
8
0
100
AcDbPolyline
90
8
70
1
43
0.0
10
183.69707600000001
20
-62.810000000000016
42
0.41421356237311452
10
184.09707600000002
20
-63.210000000000036
10
197.09707600000002
20
-63.209999999999994
42
0.41421356237316659
10
197.49707599999994
20
-62.809999999999988
10
197.49707599999996
20
-49.810000000000016
42
0.41421356237302998
10
197.09707600000002
20
-49.410000000000011
10
184.09707600000002
20
-49.410000000000018
42
0.41421356237317958
10
183.69707599999998
20
-49.810000000000016
0
LWPOLYLINE
5
113
100
AcDbEntity
8
0
100
AcDbPolyline
90
20
70
1
43
0.0
10
126.49707600000002
20
-115.21000000000002
42
0.41421356237314705
10
126.897076
20
-115.61
10
139.897076
20
-115.61
42
0.41421356237309503
10
140.297076
20
-115.21000000000001
10
140.297076
20
-102.21000000000001
42
0.41421356237310802
10
139.897076
20
-101.80999999999999
10
130.52707599999997
20
-101.80999999999999
42
-0.41421356237305174
10
129.927076
20
-101.21000000000001
10
129.927076
20
-97.109999999999985
42
-0.41421356237305174
10
130.52707599999999
20
-96.510000000000019
10
139.897076
20
-96.510000000000019
42
0.41421356237310802
10
140.297076
20
-96.110000000000014
10
140.297076
20
-83.110000000000014
42
0.41421356237305601
10
139.897076
20
-82.710000000000008
10
126.897076
20
-82.710000000000008
42
0.41421356237305601
10
126.49707600000001
20
-83.110000000000014
10
126.49707600000001
20
-97.371852759978736
42
-0.19606521575935373
10
126.32596488888888
20
-97.791441035539052
42
0.40780717927025034
10
126.32596488888888
20
-100.72855896446099
42
-0.19606521575935373
10
126.49707600000001
20
-101.1481472400213
0
LWPOLYLINE
5
114
100
AcDbEntity
8
0
100
AcDbPolyline
90
10
70
1
43
0.0
10
145.59707600000002
20
-94.810000000000016
42
0.41421356237312101
10
145.99707599999999
20
-95.210000000000036
10
158.99707599999999
20
-95.210000000000065
42
0.41421356237310802
10
159.39707600000003
20
-94.810000000000016
10
159.397076
20
-81.810000000000031
42
0.41421356237310802
10
158.99707599999999
20
-81.410000000000039
10
149.50956531621759
20
-81.410000000000039
42
-0.48148026291617918
10
148.92456769039146
20
-80.676666666666677
42
1.7097357972024292
10
145.41485377777772
20
-81.717284370263144
42
-0.20285890552300107
10
145.59707599999999
20
-82.147937047481165
0
LWPOLYLINE
5
115
100
AcDbEntity
8
0
100
AcDbPolyline
90
8
70
1
43
0.0
10
178.39707599999997
20
-64.010000000000005
42
0.414213562373069
10
177.99707600000002
20
-63.610000000000085
10
164.99707599999999
20
-63.610000000000028
42
0.41421356237309503
10
164.59707599999996
20
-64.010000000000019
10
164.59707600000002
20
-77.010000000000034
42
0.41421356237308854
10
164.99707599999999
20
-77.410000000000011
10
177.99707600000002
20
-77.410000000000025
42
0.41421356237310802
10
178.397076
20
-77.010000000000019
0
LWPOLYLINE
5
116
100
AcDbEntity
8
0
100
AcDbPolyline
90
8
70
1
43
0.0
10
145.59707599999999
20
-56.620000000000026
42
0.41421356237305601
10
145.99707599999999
20
-57.020000000000039
10
158.99707599999999
20
-57.019999999999996
42
0.41421356237311452
10
159.397076
20
-56.619999999999997
10
159.397076
20
-43.61999999999999
42
0.41421356237311452
10
158.99707599999999
20
-43.219999999999992
10
145.99707599999999
20
-43.219999999999999
42
0.41421356237307555
10
145.59707600000002
20
-43.620000000000005
0
LWPOLYLINE
5
117
100
AcDbEntity
8
0
100
AcDbPolyline
90
24
70
1
43
0.0
10
213.54707599999989
20
-106.65999999999998
42
0.41421356237305601
10
213.14707599999991
20
-106.25999999999998
10
206.14707599999991
20
-106.25999999999999
42
0.414213562373069
10
205.74707599999988
20
-106.66
10
205.74707599999988
20
-107.40999999999998
42
-0.41421356237313839
10
205.14707599999991
20
-108.01000000000001
10
203.14707600000003
20
-108.01000000000001
42
0.41421356237321211
10
202.74707600000002
20
-108.41000000000001
10
202.74707600000002
20
-121.41
42
0.41421356237313406
10
203.14707600000003
20
-121.80999999999999
10
205.14707599999986
20
-121.80999999999996
42
-0.41421356237312101
10
205.74707599999996
20
-122.41
10
205.74707599999996
20
-123.16
42
0.41421356237305601
10
206.14707599999997
20
-123.55999999999997
10
213.14707599999994
20
-123.55999999999997
42
0.41421356237305601
10
213.54707599999998
20
-123.15999999999997
10
213.54707599999998
20
-122.41000000000001
42
-0.41421356237309503
10
214.14707599999997
20
-121.81
10
216.147076
20
-121.81
42
0.41421356237316009
10
216.54707599999998
20
-121.41
10
216.54707599999998
20
-108.41
42
0.41421356237314705
10
216.147076
20
-108.01000000000001
10
214.14707599999997
20
-108.01000000000002
42
-0.41421356237312978
10
213.54707599999995
20
-107.41
0
CIRCLE
5
118
100
AcDbEntity
8
0
100
AcDbCircle
10
123.49707600000002
20
-101.51000000000002
30
0
40
0.99999999999999645
210
0
220
0
230
1
0
LWPOLYLINE
5
119
100
AcDbEntity
8
0
100
AcDbPolyline
90
8
70
1
43
0.0
10
183.69707600000001
20
-100.91
42
0.41421356237302998
10
184.09707599999996
20
-101.31
10
197.09707600000002
20
-101.31
42
0.41421356237313406
10
197.49707599999996
20
-100.91000000000001
10
197.49707599999996
20
-87.910000000000039
42
0.41421356237309503
10
197.09707600000002
20
-87.510000000000034
10
184.09707600000002
20
-87.510000000000048
42
0.41421356237316009
10
183.69707599999998
20
-87.910000000000039
0
CIRCLE
5
120
100
AcDbEntity
8
0
100
AcDbCircle
10
123.49707600000002
20
-63.509999999999998
30
0
40
0.99999999999999645
210
0
220
0
230
1
0
LWPOLYLINE
5
121
100
AcDbEntity
8
0
100
AcDbPolyline
90
8
70
1
43
0.0
10
140.29707600000009
20
-64.110000000000014
42
0.41421356237312756
10
139.89707600000003
20
-63.710000000000015
10
126.897076
20
-63.710000000000008
42
0.41421356237310153
10
126.49707600000001
20
-64.109999999999999
10
126.49707600000001
20
-77.109999999999999
42
0.41421356237305601
10
126.89707599999998
20
-77.509999999999991
10
139.89707600000003
20
-77.510000000000005
42
0.41421356237307555
10
140.29707600000012
20
-77.109999999999999
0
CIRCLE
5
122
100
AcDbEntity
8
0
100
AcDbCircle
10
98.897076000000013
20
-118.71000000000001
30
0
40
0.99999999999999645
210
0
220
0
230
1
0
LWPOLYLINE
5
123
100
AcDbEntity
8
0
100
AcDbPolyline
90
8
70
1
43
0.0
10
107.49707600000001
20
-60.410000000000011
42
0.41421356237316659
10
107.897076
20
-60.809999999999995
10
120.897076
20
-60.809999999999988
42
0.41421356237314705
10
121.29707600000003
20
-60.409999999999982
10
121.29707600000002
20
-47.409999999999989
42
0.41421356237311452
10
120.897076
20
-47.009999999999991
10
107.89707600000001
20
-47.009999999999998
42
0.41421356237301699
10
107.49707599999999
20
-47.409999999999997
0
CIRCLE
5
124
100
AcDbEntity
8
0
100
AcDbCircle
10
199.69707600000004
20
-65.709999999999994
30
0
40
0.99999999999997868
210
0
220
0
230
1
0
CIRCLE
5
125
100
AcDbEntity
8
0
100
AcDbCircle
10
199.69707600000004
20
-103.91
30
0
40
0.99999999999997868
210
0
220
0
230
1
0
LWPOLYLINE
5
126
100
AcDbEntity
8
0
100
AcDbPolyline
90
8
70
1
43
0.0
10
164.59707600000002
20
-58.010000000000026
42
0.41421356237308854
10
164.99707599999999
20
-58.410000000000011
10
177.99707600000002
20
-58.410000000000018
42
0.41421356237310802
10
178.397076
20
-58.010000000000019
10
178.39707599999997
20
-45.009999999999991
42
0.41421356237308204
10
177.99707600000002
20
-44.61000000000007
10
164.99707599999999
20
-44.609999999999992
42
0.41421356237301699
10
164.59707600000004
20
-45.009999999999991
0
LWPOLYLINE
5
127
100
AcDbEntity
8
0
100
AcDbPolyline
90
8
70
1
43
0.0
10
159.397076
20
-62.70999999999998
42
0.41421356237311452
10
158.99707599999999
20
-62.309999999999981
10
145.99707599999999
20
-62.310000000000002
42
0.41421356237304302
10
145.59707599999999
20
-62.710000000000001
10
145.59707599999999
20
-75.70999999999998
42
0.41421356237308854
10
145.99707599999999
20
-76.109999999999999
10
158.99707599999996
20
-76.109999999999985
42
0.41421356237310153
10
159.39707599999997
20
-75.70999999999998
0
LWPOLYLINE
5
128
100
AcDbEntity
8
0
100
AcDbPolyline
90
8
70
1
43
0.0
10
126.49707600000001
20
-58.009999999999991
42
0.41421356237310153
10
126.89707599999998
20
-58.410000000000011
10
139.897076
20
-58.409999999999997
42
0.41421356237309503
10
140.29707599999998
20
-58.009999999999984
10
140.297076
20
-45.010000000000005
42
0.41421356237312101
10
139.89707600000003
20
-44.609999999999999
10
126.897076
20
-44.610000000000014
42
0.41421356237307555
10
126.49707600000001
20
-45.010000000000012
0
LWPOLYLINE
5
129
100
AcDbEntity
8
0
100
AcDbPolyline
90
8
70
1
43
0.0
10
121.29707600000002
20
-66.509999999999991
42
0.41421356237312101
10
120.897076
20
-66.109999999999985
10
107.897076
20
-66.110000000000028
42
0.41421356237307555
10
107.49707600000001
20
-66.510000000000019
10
107.49707600000001
20
-79.510000000000034
42
0.41421356237314705
10
107.897076
20
-79.910000000000025
10
120.89707599999998
20
-79.910000000000025
42
0.41421356237310153
10
121.297076
20
-79.510000000000019
0
LWPOLYLINE
5
130
100
AcDbEntity
8
0
100
AcDbPolyline
90
8
70
1
43
0.0
10
183.69707600000001
20
-81.70999999999998
42
0.41421356237299095
10
184.09707599999996
20
-82.109999999999999
10
197.09707600000002
20
-82.110000000000014
42
0.414213562373069
10
197.49707599999996
20
-81.70999999999998
10
197.49707599999996
20
-68.709999999999994
42
0.41421356237297796
10
197.09707600000002
20
-68.309999999999945
10
184.09707600000002
20
-68.310000000000016
42
0.41421356237320561
10
183.69707600000001
20
-68.710000000000008
0
LWPOLYLINE
5
131
100
AcDbEntity
8
0
100
AcDbPolyline
90
24
70
1
43
0.0
10
205.69707599999992
20
-66.060000000000059
42
0.41421356237304952
10
206.09707599999993
20
-66.460000000000065
10
213.09707599999993
20
-66.460000000000065
42
0.41421356237312756
10
213.49707599999991
20
-66.060000000000073
10
213.49707599999991
20
-65.310000000000002
42
-0.41421356237307339
10
214.09707599999993
20
-64.710000000000008
10
216.09707600000002
20
-64.710000000000008
42
0.41421356237301699
10
216.49707599999996
20
-64.310000000000002
10
216.49707599999999
20
-51.310000000000002
42
0.41421356237308854
10
216.09707600000002
20
-50.910000000000025
10
214.09707599999996
20
-50.910000000000096
42
-0.41421356237304302
10
213.49707599999991
20
-50.310000000000002
10
213.49707599999994
20
-49.560000000000059
42
0.41421356237304952
10
213.09707599999996
20
-49.160000000000053
10
206.09707599999996
20
-49.160000000000053
42
0.41421356237312756
10
205.69707599999998
20
-49.560000000000045
10
205.69707600000001
20
-50.310000000000031
42
-0.41421356237307339
10
205.09707599999996
20
-50.910000000000025
10
203.09707599999999
20
-50.910000000000018
42
0.41421356237317958
10
202.69707599999998
20
-51.310000000000016
10
202.69707600000001
20
-64.310000000000016
42
0.41421356237311452
10
203.09707599999999
20
-64.710000000000036
10
205.09707599999996
20
-64.710000000000036
42
-0.41421356237308204
10
205.69707599999998
20
-65.310000000000031
0
LWPOLYLINE
5
132
100
AcDbEntity
8
0
100
AcDbPolyline
90
75
70
1
43
0.0
10
101.99715495962288
20
-91.009459120815848
10
78.740094911757978
20
-91.010377305161811
42
0.3287710387763611
10
76.734096162836153
20
-92.489381017424847
10
76.932981002592001
20
-96.534390733401878
10
77.287945218573512
20
-100.57856256000257
10
77.819219307875812
20
-104.6162776748254
10
78.54624759850384
20
-108.62575743010387
10
79.488495406197842
20
-112.58521386069999
10
80.665438122550995
20
-116.47284033881688
10
82.096563277155894
20
-120.26679709663419
10
83.801215487625484
20
-123.94478768084477
10
85.479309318165434
20
-126.81521165458909
10
87.155004323616396
20
-129.68153166391318
10
88.830698318165446
20
-132.5478506545891
10
90.506393323616436
20
-135.41417066391315
10
92.182087318165429
20
-138.28048965458908
10
93.857782323616433
20
-141.14680966391316
10
95.533476318165441
20
-144.01312865458908
10
97.208552560419008
20
-146.87839025332647
10
97.305237489028684
20
-147.05348859248878
10
97.421850690745927
20
-147.20247456908771
10
97.55585918768611
20
-147.31657639253149
10
97.706923667907006
20
-147.3919223690603
10
97.871672452575837
20
-147.42460217835219
10
98.044944214336041
20
-147.41354425867706
10
98.223196621773155
20
-147.36052625071682
10
98.401614635098042
20
-147.26964351913873
10
100.079631641305
20
-146.29815962029764
10
101.75532658023005
20
-145.32802165565681
10
103.431020641305
20
-144.35788262029763
10
105.10671561891087
20
-143.38774363326269
10
106.78240964130501
20
-142.41760462029765
10
108.45810461891085
20
-141.44746563326268
10
110.1337694235601
20
-140.47734353584059
10
111.78707189182084
20
-139.521658
10
170.72144394637633
20
-139.521658
10
171.03893582445022
20
-139.48970162632327
10
171.33959931290039
20
-139.39647284453346
10
171.61156104643089
20
-139.24895211142595
10
171.84837244981281
20
-139.05360641646448
10
172.04371717554454
20
-138.81679596157059
10
172.19123779115961
20
-138.54483337732376
10
172.28446760994069
20
-138.24416998721429
10
172.31642400000001
20
-137.92667794637634
10
172.31642400000001
20
-128.20475494637634
10
172.38595761841316
20
-127.51392690303837
10
172.58384681742814
20
-126.87573634830999
10
172.89704614973567
20
-126.29833699009606
10
173.31199543597776
20
-125.79530643597779
10
173.8150259900961
20
-125.38035714973559
10
174.39242534830998
20
-125.06715781742811
10
175.03061590303841
20
-124.86926861841319
10
175.72144394637633
20
-124.79973500000001
10
217.86209494637635
20
-124.79973500000001
10
218.17958693674458
20
-124.76777861502056
10
218.48025141206728
20
-124.67454879074214
10
218.75221302560507
20
-124.52702812272257
10
218.98902333037509
20
-124.33168352082785
10
219.18436911102981
20
-124.09487308050717
10
219.33188986912668
20
-123.82291023358704
10
219.42511857737094
20
-123.52224698232183
10
219.45707600000003
20
-123.20475511042217
10
219.45707600000003
20
-47.313064266312367
10
218.87055414058108
20
-46.541416208212013
10
218.22690151770593
20
-45.978249030420244
10
214.8129765376101
20
-44.777190608566499
10
209.43920484451803
20
-43.696461384904204
10
202.32887529684294
20
-42.75615050787394
10
193.71216652684637
20
-41.98075312308822
10
183.82125859457872
20
-41.395473914806175
10
172.88887860964383
20
-41.025672563199237
10
161.14850598887062
20
-40.89676200000001
10
106.097076
20
-40.89676200000001
42
0.41421356237309626
10
103.99707600000002
20
-42.996761999999997
10
103.99707599999999
20
-89.009459122374551
42
-0.41420199905131283
0
ENDSEC
0
SECTION
2
OBJECTS
0
DICTIONARY
5
C
100
AcDbDictionary
3
ACAD_GROUP
350
D
3
ACAD_MLINESTYLE
350
17
0
DICTIONARY
5
D
100
AcDbDictionary
0
DICTIONARY
5
1A
330
C
100
AcDbDictionary
0
DICTIONARY
5
17
100
AcDbDictionary
0
ENDSEC
0
EOF
