0
SECTION
2
HEADER
9
$INSUNITS
70
4
9
$ACADVER
1
AC1014
9
$HANDSEED
5
FFFF
0
ENDSEC
0
SECTION
2
TABLES
0
TABLE
2
VPORT
5
8
100
AcDbSymbolTable
0
ENDTAB
0
TABLE
2
LTYPE
5
5
100
AcDbSymbolTable
0
LTYPE
5
14
100
AcDbSymbolTableRecord
100
AcDbLinetypeTableRecord
2
BYBLOCK
70
0
0
LTYPE
5
15
100
AcDbSymbolTableRecord
100
AcDbLinetypeTableRecord
2
BYLAYER
70
0
0
ENDTAB
0
TABLE
2
LAYER
5
2
100
AcDbSymbolTable
70
2
0
LAYER
5
50
100
AcDbSymbolTableRecord
100
AcDbLayerTableRecord
2
0
70
0
6
CONTINUOUS
0
ENDTAB
0
TABLE
2
STYLE
5
3
100
AcDbSymbolTable
70
1
0
STYLE
5
11
100
AcDbSymbolTableRecord
100
AcDbTextStyleTableRecord
2
STANDARD
70
0
0
ENDTAB
0
TABLE
2
VIEW
5
6
100
AcDbSymbolTable
70
0
0
ENDTAB
0
TABLE
2
UCS
5
7
100
AcDbSymbolTable
70
0
0
ENDTAB
0
TABLE
2
APPID
5
9
100
AcDbSymbolTable
70
2
0
APPID
5
12
100
AcDbSymbolTableRecord
100
AcDbRegAppTableRecord
2
ACAD
70
0
0
ENDTAB
0
TABLE
2
DIMSTYLE
5
A
100
AcDbSymbolTable
70
1
0
ENDTAB
0
TABLE
2
BLOCK_RECORD
5
1
100
AcDbSymbolTable
70
1
0
BLOCK_RECORD
5
1F
100
AcDbSymbolTableRecord
100
AcDbBlockTableRecord
2
*MODEL_SPACE
0
BLOCK_RECORD
5
1B
100
AcDbSymbolTableRecord
100
AcDbBlockTableRecord
2
*PAPER_SPACE
0
ENDTAB
0
ENDSEC
0
SECTION
2
BLOCKS
0
BLOCK
5
20
100
AcDbEntity
100
AcDbBlockBegin
2
*MODEL_SPACE
0
ENDBLK
5
21
100
AcDbEntity
100
AcDbBlockEnd
0
BLOCK
5
1C
100
AcDbEntity
100
AcDbBlockBegin
2
*PAPER_SPACE
0
ENDBLK
5
1D
100
AcDbEntity
100
AcDbBlockEnd
0
ENDSEC
0
SECTION
2
ENTITIES
0
CIRCLE
5
100
100
AcDbEntity
8
0
100
AcDbCircle
10
-123.49707600000002
20
63.509999999999998
30
0
40
0.99999999999999645
210
0
220
0
230
1
0
CIRCLE
5
101
100
AcDbEntity
8
0
100
AcDbCircle
10
-199.69707600000004
20
65.709999999999994
30
0
40
0.99999999999997868
210
0
220
0
230
1
0
CIRCLE
5
102
100
AcDbEntity
8
0
100
AcDbCircle
10
-199.69707600000004
20
103.91
30
0
40
0.99999999999997868
210
0
220
0
230
1
0
CIRCLE
5
103
100
AcDbEntity
8
0
100
AcDbCircle
10
-123.49707600000002
20
101.51000000000002
30
0
40
0.99999999999999645
210
0
220
0
230
1
0
CIRCLE
5
104
100
AcDbEntity
8
0
100
AcDbCircle
10
-146.87707599999999
20
99.260000000000005
30
0
40
20.950000000000006
210
0
220
0
230
1
0
CIRCLE
5
105
100
AcDbEntity
8
0
100
AcDbCircle
10
-98.897076000000013
20
118.71000000000001
30
0
40
0.99999999999999645
210
0
220
0
230
1
0
LWPOLYLINE
5
106
100
AcDbEntity
8
0
100
AcDbPolyline
90
79
70
1
43
0.0
10
-77.880266049058889
20
40.896762000000003
10
-77.653522040476929
20
40.919584388192135
10
-77.437355658794885
20
40.986613191057501
10
-77.241836060845998
20
41.092668810520578
10
-77.071610536676815
20
41.233087584317914
10
-76.931192933496447
20
41.403311921953545
10
-76.825136109908286
20
41.598831718920309
10
-76.758156034562163
20
41.814845584449188
10
-76.734603974437675
20
42.041582482615979
10
-76.734853012124958
20
92.504774160162938
10
-76.932981002591973
20
96.534390733401864
10
-77.287945218573512
20
100.57856256000257
10
-77.819219307875798
20
104.6162776748254
10
-78.54624759850384
20
108.62575743010387
10
-79.488495406197842
20
112.58521386069999
10
-80.665438122550995
20
116.47284033881688
10
-82.096563277155894
20
120.26679709663419
10
-83.80121548762547
20
123.94478768084477
10
-85.479309318165434
20
126.81521165458909
10
-87.155004323616424
20
129.68153166391315
10
-88.830698318165432
20
132.54785065458907
10
-90.506393323616436
20
135.41417066391315
10
-92.182087318165429
20
138.28048965458908
10
-93.857782323616433
20
141.14680966391316
10
-95.533476318165427
20
144.01312865458908
10
-97.208552560419008
20
146.87839025332647
10
-97.305237489028713
20
147.05348859248883
10
-97.421850690745828
20
147.2024745690876
10
-97.555859187686139
20
147.31657639253149
10
-97.706923667907006
20
147.3919223690603
10
-97.871672452575837
20
147.42460217835219
10
-98.044944214336056
20
147.41354425867706
10
-98.223196621773141
20
147.36052625071682
10
-98.401614635098042
20
147.26964351913873
10
-100.079631641305
20
146.29815962029764
10
-101.75532658023005
20
145.32802165565681
10
-103.43102064130498
20
144.35788262029766
10
-105.10671561891085
20
143.38774363326269
10
-106.78240964130498
20
142.41760462029765
10
-108.45810461891085
20
141.44746563326268
10
-110.13376942356012
20
140.47734353584056
10
-111.78707189182084
20
139.521658
10
-170.72144394637633
20
139.521658
10
-171.03893582445022
20
139.48970162632327
10
-171.33959931290039
20
139.39647284453346
10
-171.61156104643089
20
139.24895211142595
10
-171.84837244981281
20
139.05360641646448
10
-172.04371717554454
20
138.81679596157059
10
-172.19123779115961
20
138.54483337732376
10
-172.28446760994069
20
138.24416998721429
10
-172.31642400000001
20
137.92667794637634
10
-172.31642400000001
20
128.20475494637634
10
-172.38595761841316
20
127.51392690303834
10
-172.58384681742814
20
126.87573634830999
10
-172.89704614973559
20
126.2983369900961
10
-173.31199543597779
20
125.79530643597778
10
-173.81502599009616
20
125.38035714973559
10
-174.39242534830998
20
125.06715781742811
10
-175.03061590303841
20
124.86926861841319
10
-175.72144394637633
20
124.79973500000001
10
-217.86209494637635
20
124.79973500000001
10
-218.17958693674458
20
124.76777861502056
10
-218.4802514120673
20
124.67454879074214
10
-218.75221302560516
20
124.52702812272251
10
-218.98902333037518
20
124.33168352082781
10
-219.18436911102972
20
124.0948730805073
10
-219.3318898691266
20
123.82291023358717
10
-219.42511857737099
20
123.52224698232169
10
-219.45707600000003
20
123.20475511042216
10
-219.45707600000003
20
47.313064266312381
10
-218.87055414058108
20
46.541416208211963
10
-218.22690151770593
20
45.978249030420237
10
-214.81297653761007
20
44.777190608566499
10
-209.43920484451803
20
43.696461384904197
10
-202.32887529684294
20
42.75615050787394
10
-193.71216652684637
20
41.980753123088206
10
-183.82125859457872
20
41.395473914806182
10
-172.88887860964383
20
41.025672563199237
10
-161.1485059888706
20
40.896762000000003
0
ENDSEC
0
SECTION
2
OBJECTS
0
DICTIONARY
5
C
100
AcDbDictionary
3
ACAD_GROUP
350
D
3
ACAD_MLINESTYLE
350
17
0
DICTIONARY
5
D
100
AcDbDictionary
0
DICTIONARY
5
1A
330
C
100
AcDbDictionary
0
DICTIONARY
5
17
100
AcDbDictionary
0
ENDSEC
0
EOF
