0
SECTION
2
HEADER
9
$INSUNITS
70
4
9
$ACADVER
1
AC1014
9
$HANDSEED
5
FFFF
0
ENDSEC
0
SECTION
2
TABLES
0
TABLE
2
VPORT
5
8
100
AcDbSymbolTable
0
ENDTAB
0
TABLE
2
LTYPE
5
5
100
AcDbSymbolTable
0
LTYPE
5
14
100
AcDbSymbolTableRecord
100
AcDbLinetypeTableRecord
2
BYBLOCK
70
0
0
LTYPE
5
15
100
AcDbSymbolTableRecord
100
AcDbLinetypeTableRecord
2
BYLAYER
70
0
0
ENDTAB
0
TABLE
2
LAYER
5
2
100
AcDbSymbolTable
70
2
0
LAYER
5
50
100
AcDbSymbolTableRecord
100
AcDbLayerTableRecord
2
0
70
0
6
CONTINUOUS
0
ENDTAB
0
TABLE
2
STYLE
5
3
100
AcDbSymbolTable
70
1
0
STYLE
5
11
100
AcDbSymbolTableRecord
100
AcDbTextStyleTableRecord
2
STANDARD
70
0
0
ENDTAB
0
TABLE
2
VIEW
5
6
100
AcDbSymbolTable
70
0
0
ENDTAB
0
TABLE
2
UCS
5
7
100
AcDbSymbolTable
70
0
0
ENDTAB
0
TABLE
2
APPID
5
9
100
AcDbSymbolTable
70
2
0
APPID
5
12
100
AcDbSymbolTableRecord
100
AcDbRegAppTableRecord
2
ACAD
70
0
0
ENDTAB
0
TABLE
2
DIMSTYLE
5
A
100
AcDbSymbolTable
70
1
0
ENDTAB
0
TABLE
2
BLOCK_RECORD
5
1
100
AcDbSymbolTable
70
1
0
BLOCK_RECORD
5
1F
100
AcDbSymbolTableRecord
100
AcDbBlockTableRecord
2
*MODEL_SPACE
0
BLOCK_RECORD
5
1B
100
AcDbSymbolTableRecord
100
AcDbBlockTableRecord
2
*PAPER_SPACE
0
ENDTAB
0
ENDSEC
0
SECTION
2
BLOCKS
0
BLOCK
5
20
100
AcDbEntity
100
AcDbBlockBegin
2
*MODEL_SPACE
0
ENDBLK
5
21
100
AcDbEntity
100
AcDbBlockEnd
0
BLOCK
5
1C
100
AcDbEntity
100
AcDbBlockBegin
2
*PAPER_SPACE
0
ENDBLK
5
1D
100
AcDbEntity
100
AcDbBlockEnd
0
ENDSEC
0
SECTION
2
ENTITIES
0
LWPOLYLINE
5
100
100
AcDbEntity
8
0
100
AcDbPolyline
90
8
70
1
43
0.0
10
72
20
8.2999999999999972
42
0.41421356237309503
10
72.299999999999997
20
8.5999999999999979
10
72.299999999999983
20
21.999999999999989
42
0.41421356237309503
10
72
20
22.299999999999983
10
58.599999999999994
20
22.299999999999986
42
0.41421356237311674
10
58.299999999999997
20
21.999999999999989
10
58.29999999999999
20
8.5999999999999979
42
0.41421356237309503
10
58.599999999999994
20
8.2999999999999954
0
LWPOLYLINE
5
101
100
AcDbEntity
8
0
100
AcDbPolyline
90
26
70
1
43
0.0
10
-17.700000000000024
20
-19.399999999999995
10
-17.700000000000024
20
-18.400000000000013
42
0.3570918282336894
10
-17.94072807176747
20
-18.105913552635307
42
0.2676779644122122
10
-18.165681406310778
20
-18.304000000000002
42
-0.86645263623218549
10
-22.448239295436537
20
-17.512
42
0.42598156773255097
10
-22.747999199359658
20
-17.200000000000003
10
-36.399999999999999
20
-17.199999999999992
42
-0.41421356237310591
10
-36.700000000000003
20
-16.899999999999999
10
-36.700000000000003
20
-3.5000000000000009
42
-0.4142135623731048
10
-36.399999999999999
20
-3.200000000000002
10
-23.000000000000014
20
-3.1999999999999993
42
-0.41421356237309398
10
-22.700000000000014
20
-3.5000000000000009
10
-22.700000000000003
20
-15.899999999999999
42
0.41421356237309725
10
-22.399999999999999
20
-16.200000000000014
10
-22.083030277982367
20
-16.199999999999996
42
0.20871215252208405
10
-21.863066644624851
20
-16.103999999999658
42
-0.56861842640802085
10
-18.165681406310462
20
-16.895999999999997
42
0.26767796441208264
10
-17.940728071767317
20
-17.094086447364671
42
0.35709182823354579
10
-17.70000000000001
20
-16.800000000000001
10
-17.700000000000014
20
-6.0000000000000009
42
-0.41421356237309503
10
-17.400000000000013
20
-5.7000000000000028
10
-4.0000000000000124
20
-5.7000000000000028
42
-0.41421356237308965
10
-3.7000000000000153
20
-6.0000000000000036
10
-3.7000000000000153
20
-19.399999999999995
42
-0.41421356237309825
10
-4.0000000000000169
20
-19.699999999999996
10
-17.400000000000013
20
-19.700000000000003
42
-0.41421356237310375
0
LWPOLYLINE
5
102
100
AcDbEntity
8
0
100
AcDbPolyline
90
8
70
1
43
0.0
10
15
20
-60.290000000000006
42
0.41421356237309503
10
15.300000000000002
20
-59.990000000000009
10
15.300000000000001
20
-46.590000000000003
42
0.41421356237309725
10
15
20
-46.290000000000006
10
1.6000000000000014
20
-46.290000000000006
42
0.41421356237309503
10
1.2999999999999989
20
-46.590000000000003
10
1.2999999999999992
20
-59.990000000000009
42
0.41421356237309775
10
1.6000000000000014
20
-60.290000000000006
0
LWPOLYLINE
5
103
100
AcDbEntity
8
0
100
AcDbPolyline
90
28
70
1
43
0.0
10
15.300000000000002
20
-8.4000000000000021
10
15.300000000000011
20
-16.800000000000001
42
0.35709182823353069
10
15.540728071767296
20
-17.094086447364678
42
0.26767796441206188
10
15.765681406310426
20
-16.896000000000001
42
-0.71774056256527252
10
19.934318593689536
20
-16.895999999999997
42
0.22158604068886245
10
20.109271928232676
20
-17.079391563402165
42
0.30878300487823401
10
20.299999999999983
20
-16.800000000000001
10
20.300000000000004
20
-6.0000000000000009
42
-0.41421356237310375
10
20.600000000000001
20
-5.7000000000000028
10
33.999999999999993
20
-5.7000000000000082
42
-0.41421356237310047
10
34.29999999999999
20
-6.0000000000000036
10
34.299999999999997
20
-19.399999999999995
42
-0.41421356237309287
10
33.999999999999993
20
-19.699999999999996
10
20.599999999999987
20
-19.699999999999992
42
-0.41421356237310153
10
20.29999999999999
20
-19.399999999999999
10
20.299999999999983
20
-18.399999999999999
42
0.30878300487821969
10
20.109271928232694
20
-18.120608436597834
42
0.22158604068886079
10
19.934318593689532
20
-18.303999999999995
42
-0.71774056256527352
10
15.765681406310435
20
-18.304000000000006
42
0.26767796441206465
10
15.540728071767296
20
-18.105913552635336
42
0.3570918282335388
10
15.300000000000001
20
-18.400000000000013
10
15.300000000000002
20
-21.800000000000001
42
-0.41421356237309076
10
15
20
-22.100000000000001
10
1.6000000000000014
20
-22.100000000000001
42
-0.41421356237308909
10
1.300000000000002
20
-21.800000000000001
10
1.3000000000000043
20
-8.4000000000000021
42
-0.41421356237309748
10
1.6000000000000036
20
-8.1000000000000014
10
15
20
-8.0999999999999996
42
-0.41421356237309936
0
LWPOLYLINE
5
104
100
AcDbEntity
8
0
100
AcDbPolyline
90
28
70
1
43
0.0
10
1.2999999999999989
20
-2.7999999999999989
10
1.3000000000000078
20
0.64999999999999392
42
0.33307104134707038
10
1.0842719282326996
20
0.93792054826277971
42
0.24480372241104667
10
0.88431859368954568
20
0.74599999999999445
42
-0.71774056256527352
10
-3.2843185936895649
20
0.74599999999999245
42
0.24480372241104237
10
-3.4842719282327144
20
0.93792054826277638
42
0.33307104134706655
10
-3.7000000000000171
20
0.64999999999999147
10
-3.7000000000000179
20
-0.29999999999999577
42
-0.41421356237309631
10
-4.0000000000000178
20
-0.59999999999999587
10
-17.400000000000013
20
-0.59999999999999698
42
-0.41421356237309176
10
-17.70000000000001
20
-0.2999999999999956
10
-17.700000000000014
20
13.099999999999998
42
-0.41421356237309503
10
-17.400000000000013
20
13.4
10
-4.0000000000000124
20
13.4
42
-0.41421356237309825
10
-3.7000000000000135
20
13.100000000000001
10
-3.7000000000000188
20
2.249999999999992
42
0.33307104134707011
10
-3.4842719282327121
20
1.962079451737206
42
0.24480372241104681
10
-3.2843185936895694
20
2.1539999999999959
42
-0.71774056256527352
10
0.88431859368955024
20
2.1539999999999933
42
0.24480372241104398
10
1.0842719282327016
20
1.9620794517372084
42
0.33307104134706661
10
1.3000000000000036
20
2.2499999999999933
10
1.3000000000000054
20
10.600000000000001
42
-0.41421356237309886
10
1.600000000000005
20
10.9
10
15.000000000000009
20
10.9
42
-0.41421356237310375
10
15.30000000000001
20
10.600000000000001
10
15.300000000000001
20
-2.799999999999998
42
-0.41421356237309237
10
15
20
-3.0999999999999996
10
1.6000000000000014
20
-3.1000000000000041
42
-0.41421356237309287
0
CIRCLE
5
105
100
AcDbEntity
8
0
100
AcDbCircle
10
-46.400000000000013
20
22.509999999999998
30
0
40
2.1499999999999986
210
0
220
-0
230
1
0
LWPOLYLINE
5
106
100
AcDbEntity
8
0
100
AcDbPolyline
90
24
70
1
43
0.0
10
-59.45000000000001
20
12.199999999999999
10
-58.29999999999999
20
12.199999999999999
42
0.41421356237308637
10
-58
20
12.5
10
-58.000000000000007
20
14.900000000000002
42
-0.41421356237311024
10
-57.700000000000003
20
15.200000000000003
10
-44.300000000000004
20
15.200000000000005
42
-0.41421356237310375
10
-43.999999999999993
20
14.900000000000002
10
-43.999999999999993
20
12.5
42
0.41421356237309503
10
-43.700000000000003
20
12.199999999999998
10
-42.549999999999997
20
12.200000000000006
42
-0.41421356237309725
10
-42.25
20
11.900000000000002
10
-42.25
20
4.5
42
-0.41421356237310802
10
-42.549999999999997
20
4.1999999999999984
10
-43.700000000000003
20
4.1999999999999984
42
0.41421356237309503
10
-44
20
3.8999999999999977
10
-43.999999999999993
20
1.499999999999998
42
-0.41421356237309559
10
-44.299999999999997
20
1.199999999999998
10
-57.700000000000003
20
1.199999999999994
42
-0.41421356237309664
10
-58.000000000000007
20
1.499999999999998
10
-58
20
3.8999999999999977
42
0.41421356237309503
10
-58.299999999999997
20
4.2000000000000002
10
-59.45000000000001
20
4.199999999999994
42
-0.41421356237307061
10
-59.750000000000007
20
4.4999999999999982
10
-59.75
20
11.899999999999999
42
-0.41421356237310802
0
CIRCLE
5
107
100
AcDbEntity
8
0
100
AcDbCircle
10
-20.90000000000002
20
-38.700000000000003
30
0
40
2.1499999999999986
210
0
220
-0
230
1
0
LWPOLYLINE
5
108
100
AcDbEntity
8
0
100
AcDbPolyline
90
8
70
1
43
0.0
10
33.999999999999993
20
18.399999999999988
42
0.41421356237309287
10
34.299999999999997
20
18.699999999999989
10
34.29999999999999
20
32.09999999999998
42
0.41421356237309936
10
33.999999999999993
20
32.39999999999997
10
20.599999999999987
20
32.399999999999977
42
0.41421356237309503
10
20.299999999999983
20
32.09999999999998
10
20.29999999999999
20
18.699999999999989
42
0.41421356237310153
10
20.599999999999987
20
18.399999999999991
0
CIRCLE
5
109
100
AcDbEntity
8
0
100
AcDbCircle
10
55.599999999999987
20
6.2099999999999937
30
0
40
2.1499999999999986
210
0
220
-0
230
1
0
LWPOLYLINE
5
110
100
AcDbEntity
8
0
100
AcDbPolyline
90
8
70
1
43
0.0
10
33.999999999999979
20
-38.800000000000004
42
0.41421356237310375
10
34.299999999999976
20
-38.500000000000007
10
34.299999999999983
20
-25.100000000000009
42
0.41421356237307771
10
33.999999999999979
20
-24.800000000000001
10
20.599999999999987
20
-24.800000000000008
42
0.41421356237310375
10
20.299999999999983
20
-25.100000000000009
10
20.29999999999999
20
-38.500000000000007
42
0.41421356237310375
10
20.599999999999987
20
-38.800000000000004
0
CIRCLE
5
111
100
AcDbEntity
8
0
100
AcDbCircle
10
-20.90000000000002
20
-0.78999999999999904
30
0
40
2.1499999999999986
210
0
220
-0
230
1
0
LWPOLYLINE
5
112
100
AcDbEntity
8
0
100
AcDbPolyline
90
8
70
1
43
0.0
10
-41.661432341697449
20
26.667734870841148
42
0.4142135623731264
10
-41.502500202048964
20
26.274364085211673
10
-29.167734870841144
20
21.038567658302576
42
0.41421356237308599
10
-28.774364085211673
20
21.19749979795106
10
-23.538567658302576
20
33.532265129158873
42
0.41421356237309903
10
-23.697499797951053
20
33.925635914788359
10
-36.032265129158887
20
39.161432341697441
42
0.41421356237309276
10
-36.425635914788373
20
39.002500202048957
0
LWPOLYLINE
5
113
100
AcDbEntity
8
0
100
AcDbPolyline
90
8
70
1
43
0.0
10
-23.000000000000011
20
1.8000000000000052
42
0.41421356237308937
10
-22.700000000000014
20
2.1000000000000041
10
-22.70000000000001
20
15.499999999999998
42
0.41421356237310153
10
-23.000000000000014
20
15.800000000000001
10
-36.399999999999999
20
15.799999999999999
42
0.41421356237310375
10
-36.699999999999989
20
15.499999999999998
10
-36.700000000000003
20
2.100000000000005
42
0.41421356237309426
10
-36.399999999999999
20
1.8000000000000071
0
LWPOLYLINE
5
114
100
AcDbEntity
8
0
100
AcDbPolyline
90
8
70
1
43
0.0
10
52.999999999999986
20
-48.700000000000003
42
0.41421356237309503
10
53.29999999999999
20
-48.399999999999999
10
53.299999999999983
20
-35.000000000000007
42
0.41421356237309503
10
52.999999999999986
20
-34.70000000000001
10
39.599999999999994
20
-34.70000000000001
42
0.41421356237309936
10
39.29999999999999
20
-35.000000000000007
10
39.29999999999999
20
-48.399999999999999
42
0.41421356237312101
10
39.599999999999994
20
-48.699999999999989
0
LWPOLYLINE
5
115
100
AcDbEntity
8
0
100
AcDbPolyline
90
8
70
1
43
0.0
10
52.999999999999986
20
8.3000000000000025
42
0.41421356237309503
10
53.29999999999999
20
8.6000000000000032
10
53.299999999999983
20
21.999999999999993
42
0.41421356237310802
10
52.999999999999986
20
22.299999999999983
10
39.599999999999994
20
22.299999999999986
42
0.41421356237309503
10
39.29999999999999
20
21.999999999999993
10
39.29999999999999
20
8.6000000000000014
42
0.41421356237310047
10
39.599999999999994
20
8.3000000000000043
0
LWPOLYLINE
5
116
100
AcDbEntity
8
0
100
AcDbPolyline
90
28
70
1
43
0.0
10
1.3000000000000078
20
-40.90000000000002
10
1.3000000000000078
20
-37.449999999999996
42
0.333071041347064
10
1.0842719282327025
20
-37.162079451737213
42
0.24480372241104878
10
0.88431859368954713
20
-37.353999999999999
42
-0.71774056256527219
10
-3.284318593689556
20
-37.353999999999999
42
0.24480372241105197
10
-3.4842719282327144
20
-37.162079451737213
42
0.3330710413470751
10
-3.7000000000000255
20
-37.450000000000003
10
-3.7000000000000299
20
-38.399999999999984
42
-0.41421356237310536
10
-4.0000000000000249
20
-38.699999999999989
10
-17.400000000000027
20
-38.699999999999989
42
-0.41421356237308204
10
-17.700000000000017
20
-38.399999999999991
10
-17.700000000000014
20
-24.999999999999993
42
-0.41421356237310591
10
-17.400000000000016
20
-24.699999999999989
10
-4.0000000000000213
20
-24.699999999999989
42
-0.41421356237310375
10
-3.7000000000000224
20
-24.999999999999986
10
-3.7000000000000277
20
-35.850000000000001
42
0.33307104134706966
10
-3.484271928232721
20
-36.137920548262791
42
0.24480372241105147
10
-3.2843185936895551
20
-35.946000000000005
42
-0.71774056256527341
10
0.88431859368954369
20
-35.945999999999998
42
0.24480372241105156
10
1.0842719282326969
20
-36.137920548262784
42
0.33307104134707188
10
1.3000000000000058
20
-35.850000000000001
10
1.3000000000000131
20
-27.500000000000007
42
-0.41421356237310075
10
1.6000000000000081
20
-27.20000000000001
10
15.000000000000009
20
-27.200000000000006
42
-0.41421356237309287
10
15.30000000000001
20
-27.500000000000007
10
15.300000000000002
20
-40.90000000000002
42
-0.41421356237309503
10
15
20
-41.200000000000017
10
1.6000000000000103
20
-41.20000000000001
42
-0.41421356237310047
0
LWPOLYLINE
5
117
100
AcDbEntity
8
0
100
AcDbPolyline
90
8
70
1
43
0.0
10
52.999999999999986
20
-29.900000000000002
42
0.41421356237311674
10
53.299999999999983
20
-29.600000000000005
10
53.299999999999983
20
-16.20000000000001
42
0.41421356237310591
10
52.999999999999986
20
-15.900000000000016
10
39.599999999999994
20
-15.900000000000009
42
0.41421356237309287
10
39.29999999999999
20
-16.20000000000001
10
39.29999999999999
20
-29.600000000000005
42
0.41421356237309503
10
39.599999999999994
20
-29.900000000000002
0
LWPOLYLINE
5
118
100
AcDbEntity
8
0
100
AcDbPolyline
90
8
70
1
43
0.0
10
72
20
-10.699999999999989
42
0.41421356237309503
10
72.299999999999997
20
-10.39999999999999
10
72.299999999999983
20
3.0000000000000004
42
0.41421356237310536
10
72
20
3.2999999999999927
10
58.599999999999994
20
3.2999999999999985
42
0.41421356237308476
10
58.29999999999999
20
3.0000000000000004
10
58.29999999999999
20
-10.39999999999999
42
0.41421356237309287
10
58.599999999999994
20
-10.699999999999989
0
CIRCLE
5
119
100
AcDbEntity
8
0
100
AcDbCircle
10
55.599999999999987
20
-32.090000000000003
30
0
40
2.1499999999999986
210
0
220
-0
230
1
0
LWPOLYLINE
5
120
100
AcDbEntity
8
0
100
AcDbPolyline
90
8
70
1
43
0.0
10
-44.087822231944259
20
37.412370444241574
42
0.41421356237310469
10
-44.197629863480721
20
37.822178062589941
10
-55.802370444241589
20
44.522177768055755
42
0.41421356237312623
10
-56.212178062589963
20
44.412370136519286
10
-62.91217776805577
20
32.807629555758439
42
0.41421356237309126
10
-62.802370136519315
20
32.397821937410079
10
-51.197629555758439
20
25.697822231944244
42
0.41421356237308909
10
-50.787821937410087
20
25.807629863480702
0
LWPOLYLINE
5
121
100
AcDbEntity
8
0
100
AcDbPolyline
90
8
70
1
43
0.0
10
15
20
15.900000000000009
42
0.41421356237310375
10
15.300000000000001
20
16.20000000000001
10
15.300000000000001
20
29.600000000000005
42
0.41421356237310375
10
15
20
29.900000000000002
10
1.6000000000000032
20
29.900000000000002
42
0.41421356237308987
10
1.3000000000000078
20
29.600000000000005
10
1.3000000000000012
20
16.20000000000001
42
0.41421356237309426
10
1.6000000000000014
20
15.900000000000009
0
LWPOLYLINE
5
122
100
AcDbEntity
8
0
100
AcDbPolyline
90
8
70
1
43
0.0
10
58.599999999999987
20
-34.800000000000004
42
0.41421356237306034
10
58.29999999999999
20
-35.100000000000001
10
58.299999999999983
20
-48.5
42
0.41421356237310375
10
58.599999999999987
20
-48.799999999999997
10
72
20
-48.799999999999997
42
0.41421356237309503
10
72.299999999999997
20
-48.5
10
72.299999999999997
20
-35.100000000000001
42
0.41421356237309936
10
72
20
-34.799999999999997
0
LWPOLYLINE
5
123
100
AcDbEntity
8
0
100
AcDbPolyline
90
8
70
1
43
0.0
10
33.999999999999993
20
-57.800000000000004
42
0.41421356237309936
10
34.300000000000004
20
-57.5
10
34.300000000000004
20
-44.100000000000009
42
0.41421356237309936
10
33.999999999999993
20
-43.800000000000011
10
20.600000000000001
20
-43.800000000000011
42
0.41421356237311241
10
20.300000000000004
20
-44.100000000000009
10
20.300000000000004
20
-57.5
42
0.41421356237311674
10
20.600000000000005
20
-57.799999999999997
0
LWPOLYLINE
5
124
100
AcDbEntity
8
0
100
AcDbPolyline
90
4
70
1
43
0.0
10
-18.350000000000016
20
-35.335000000000015
10
-22.050000000000011
20
-35.334999999999994
10
-22.050000000000011
20
-29.334999999999994
10
-18.350000000000016
20
-29.334999999999994
0
LWPOLYLINE
5
125
100
AcDbEntity
8
0
100
AcDbPolyline
90
8
70
1
43
0.0
10
-4.0000000000000178
20
18.5
42
0.41421356237309559
10
-3.7000000000000166
20
18.800000000000001
10
-3.7000000000000144
20
32.200000000000003
42
0.41421356237309176
10
-4.0000000000000124
20
32.500000000000007
10
-17.400000000000013
20
32.5
42
0.41421356237308204
10
-17.700000000000003
20
32.200000000000003
10
-17.70000000000001
20
18.800000000000001
42
0.41421356237309076
10
-17.400000000000013
20
18.5
0
LWPOLYLINE
5
126
100
AcDbEntity
8
0
100
AcDbPolyline
90
8
70
1
43
0.0
10
72
20
-29.899999999999991
42
0.41421356237311674
10
72.299999999999983
20
-29.599999999999994
10
72.299999999999983
20
-16.200000000000014
42
0.41421356237309936
10
72
20
-15.900000000000016
10
58.599999999999994
20
-15.900000000000009
42
0.41421356237309503
10
58.29999999999999
20
-16.20000000000001
10
58.29999999999999
20
-29.599999999999994
42
0.41421356237309936
10
58.599999999999994
20
-29.899999999999999
0
LWPOLYLINE
5
127
100
AcDbEntity
8
0
100
AcDbPolyline
90
8
70
1
43
0.0
10
-23.000000000000011
20
-36.199999999999996
42
0.41421356237309503
10
-22.700000000000014
20
-35.899999999999999
10
-22.70000000000001
20
-22.500000000000014
42
0.41421356237309936
10
-23.000000000000014
20
-22.200000000000006
10
-36.399999999999999
20
-22.20000000000001
42
0.41421356237309503
10
-36.699999999999989
20
-22.500000000000014
10
-36.700000000000003
20
-35.899999999999999
42
0.41421356237309936
10
-36.399999999999999
20
-36.199999999999996
0
LWPOLYLINE
5
128
100
AcDbEntity
8
0
100
AcDbPolyline
90
8
70
1
43
0.0
10
-4.0000000000000133
20
-57.800000000000004
42
0.41421356237309559
10
-3.7000000000000104
20
-57.5
10
-3.7000000000000108
20
-44.100000000000001
42
0.41421356237309725
10
-4.0000000000000124
20
-43.800000000000011
10
-17.400000000000013
20
-43.800000000000011
42
0.41421356237308854
10
-17.700000000000003
20
-44.100000000000001
10
-17.70000000000001
20
-57.5
42
0.41421356237309725
10
-17.400000000000013
20
-57.800000000000004
0
LWPOLYLINE
5
129
100
AcDbEntity
8
0
100
AcDbPolyline
90
8
70
1
43
0.0
10
33.999999999999993
20
-0.69999999999999618
42
0.41421356237309626
10
34.399999999999991
20
-0.29999999999999583
10
34.399999999999984
20
13.100000000000003
42
0.41421356237309176
10
33.999999999999993
20
13.499999999999995
10
20.599999999999987
20
13.5
42
0.41421356237309992
10
20.199999999999989
20
13.100000000000001
10
20.199999999999992
20
-0.29999999999999633
42
0.41421356237309054
10
20.599999999999987
20
-0.69999999999999507
0
LWPOLYLINE
5
130
100
AcDbEntity
8
0
100
AcDbPolyline
90
8
70
1
43
0.0
10
52.999999999999986
20
-10.699999999999989
42
0.41421356237309503
10
53.29999999999999
20
-10.39999999999999
10
53.299999999999983
20
3.0000000000000004
42
0.41421356237310641
10
52.999999999999986
20
3.2999999999999927
10
39.599999999999994
20
3.2999999999999998
42
0.41421356237309559
10
39.29999999999999
20
3.0000000000000004
10
39.29999999999999
20
-10.39999999999999
42
0.41421356237310153
10
39.599999999999994
20
-10.699999999999985
0
LWPOLYLINE
5
131
100
AcDbEntity
8
0
100
AcDbPolyline
90
8
70
1
43
0.0
10
-23.000000000000011
20
-55.299999999999997
42
0.41421356237311241
10
-22.70000000000001
20
-54.999999999999993
10
-22.70000000000001
20
-41.600000000000009
42
0.41421356237311674
10
-23.000000000000014
20
-41.300000000000011
10
-36.399999999999999
20
-41.300000000000011
42
0.41421356237311241
10
-36.70000000000001
20
-41.600000000000009
10
-36.700000000000003
20
-54.999999999999993
42
0.41421356237306473
10
-36.399999999999999
20
-55.299999999999997
0
LWPOLYLINE
5
132
100
AcDbEntity
8
0
100
AcDbPolyline
90
38
70
1
43
0.0
10
-60.470660080655833
20
0.0062259453687437552
42
0.41421356237309531
10
-60.170656651677909
20
-0.29377062561415324
10
-39.870656653003984
20
-0.29353859678250238
42
-0.4142135623730876
10
-39.57065322402606
20
-0.5935351677653915
10
-39.570003428997545
20
-57.443535164051823
42
0.41421356237309936
10
-39.270000000019621
20
-57.743531735034722
10
-19.770003428997541
20
-57.743308850235628
42
-0.41421691014413314
10
-19.470000000000031
20
-58.043308850216036
10
-19.470000000000034
20
-59.942000818877545
42
0.4143406852363053
10
-19.169869798475393
20
-60.242000790623472
10
-0.77013199094865925
20
-60.234015210153146
42
-0.41434068523631118
10
-0.47000178942402371
20
-60.534015181899079
10
-0.47000178942401938
20
-62.429347995042967
42
0.41426602458659301
10
-0.16994805526076773
20
-62.7293479902307
10
17.230051656003205
20
-62.726231408763454
42
0.4141611021056959
10
17.529997921839943
20
-62.426231413575749
10
17.529997921839957
20
-60.542260317889813
42
-0.41421356237309725
10
17.829997921839961
20
-60.242260317889809
10
36.229384124022495
20
-60.242260317889802
42
0.41481233393174755
10
36.529383497392956
20
-59.941647147983957
10
36.512214576554847
20
-51.541584712061912
42
-0.41488486646347145
10
36.812288209019755
20
-51.240971551346746
10
74.210461240905516
20
-51.250228733176925
42
0.41428606418301789
10
74.510535499999961
20
-50.950228742367621
10
74.510535499999989
20
24.506039192829114
42
0.34049563691310258
10
74.287098664084084
20
24.79610484385562
10
36.580270875816304
20
34.748865651026499
42
0.064606026466074662
10
36.503707711732247
20
34.758799999999979
10
-19.890285910822868
20
34.758799999999994
42
-0.10744659387714803
10
-20.014840772469352
20
34.785878607580443
10
-37.455707032513217
20
42.745477028048086
42
-0.026167206282566805
10
-37.483533429883849
20
42.759980247924823
10
-54.179997995057228
20
52.605372568985878
42
0.41629569850740422
10
-54.591873356124445
20
52.497496121560083
10
-68.807701302463371
20
27.993170128438031
42
0.41253537706713017
10
-68.700234143998372
20
27.584001628944957
10
-60.618891097647712
20
22.83359677869834
42
-0.26585201464544511
10
-60.470918041252446
20
22.574973433319805
0
ENDSEC
0
SECTION
2
OBJECTS
0
DICTIONARY
5
C
100
AcDbDictionary
3
ACAD_GROUP
350
D
3
ACAD_MLINESTYLE
350
17
0
DICTIONARY
5
D
100
AcDbDictionary
0
DICTIONARY
5
1A
330
C
100
AcDbDictionary
0
DICTIONARY
5
17
100
AcDbDictionary
0
ENDSEC
0
EOF
