0
SECTION
2
HEADER
9
$INSUNITS
70
4
9
$ACADVER
1
AC1014
9
$HANDSEED
5
FFFF
0
ENDSEC
0
SECTION
2
TABLES
0
TABLE
2
VPORT
5
8
100
AcDbSymbolTable
0
ENDTAB
0
TABLE
2
LTYPE
5
5
100
AcDbSymbolTable
0
LTYPE
5
14
100
AcDbSymbolTableRecord
100
AcDbLinetypeTableRecord
2
BYBLOCK
70
0
0
LTYPE
5
15
100
AcDbSymbolTableRecord
100
AcDbLinetypeTableRecord
2
BYLAYER
70
0
0
ENDTAB
0
TABLE
2
LAYER
5
2
100
AcDbSymbolTable
70
2
0
LAYER
5
50
100
AcDbSymbolTableRecord
100
AcDbLayerTableRecord
2
0
70
0
6
CONTINUOUS
0
ENDTAB
0
TABLE
2
STYLE
5
3
100
AcDbSymbolTable
70
1
0
STYLE
5
11
100
AcDbSymbolTableRecord
100
AcDbTextStyleTableRecord
2
STANDARD
70
0
0
ENDTAB
0
TABLE
2
VIEW
5
6
100
AcDbSymbolTable
70
0
0
ENDTAB
0
TABLE
2
UCS
5
7
100
AcDbSymbolTable
70
0
0
ENDTAB
0
TABLE
2
APPID
5
9
100
AcDbSymbolTable
70
2
0
APPID
5
12
100
AcDbSymbolTableRecord
100
AcDbRegAppTableRecord
2
ACAD
70
0
0
ENDTAB
0
TABLE
2
DIMSTYLE
5
A
100
AcDbSymbolTable
70
1
0
ENDTAB
0
TABLE
2
BLOCK_RECORD
5
1
100
AcDbSymbolTable
70
1
0
BLOCK_RECORD
5
1F
100
AcDbSymbolTableRecord
100
AcDbBlockTableRecord
2
*MODEL_SPACE
0
BLOCK_RECORD
5
1B
100
AcDbSymbolTableRecord
100
AcDbBlockTableRecord
2
*PAPER_SPACE
0
ENDTAB
0
ENDSEC
0
SECTION
2
BLOCKS
0
BLOCK
5
20
100
AcDbEntity
100
AcDbBlockBegin
2
*MODEL_SPACE
0
ENDBLK
5
21
100
AcDbEntity
100
AcDbBlockEnd
0
BLOCK
5
1C
100
AcDbEntity
100
AcDbBlockBegin
2
*PAPER_SPACE
0
ENDBLK
5
1D
100
AcDbEntity
100
AcDbBlockEnd
0
ENDSEC
0
SECTION
2
ENTITIES
0
LWPOLYLINE
5
100
100
AcDbEntity
8
0
100
AcDbPolyline
90
26
70
1
43
0.0
10
-22.800000000000011
20
-3.5000000000000009
10
-22.800000000000008
20
-15.9
42
0.41421356237309503
10
-22.399999999999999
20
-16.300000000000011
10
-22.08303027798236
20
-16.299999999999997
42
0.20871215252207817
10
-21.789745433505182
20
-16.172000000000008
42
-0.5686184264080214
10
-18.260423160569083
20
-16.927999999999997
42
0.28116084530956981
10
-17.940728071767275
20
-17.195584173752664
42
0.37129352137383376
10
-17.600000000000009
20
-16.800000000000001
10
-17.600000000000012
20
-6.0000000000000036
42
-0.41421356237309992
10
-17.400000000000013
20
-5.8000000000000025
10
-4.0000000000000142
20
-5.8000000000000025
42
-0.41421356237309265
10
-3.8000000000000158
20
-6.0000000000000036
10
-3.8000000000000158
20
-19.399999999999995
42
-0.41421356237309664
10
-4.0000000000000169
20
-19.599999999999998
10
-17.400000000000016
20
-19.599999999999998
42
-0.41421356237310153
10
-17.600000000000019
20
-19.399999999999999
10
-17.600000000000023
20
-18.400000000000013
42
0.37129352137398131
10
-17.940728071767488
20
-18.004415826247325
42
0.28116084530962371
10
-18.260423160568841
20
-18.272000000000187
42
-0.86645263623218804
10
-22.348319327462164
20
-17.515999999999998
42
0.4259815677325488
10
-22.747999199359658
20
-17.100000000000005
10
-36.399999999999999
20
-17.100000000000001
42
-0.4142135623731048
10
-36.600000000000001
20
-16.899999999999999
10
-36.600000000000009
20
-3.5000000000000031
42
-0.41421356237310564
10
-36.399999999999999
20
-3.3000000000000016
10
-23.000000000000011
20
-3.3000000000000043
42
-0.41421356237310314
0
LWPOLYLINE
5
101
100
AcDbEntity
8
0
100
AcDbPolyline
90
8
70
1
43
0.0
10
33.999999999999993
20
18.499999999999986
42
0.41421356237309503
10
34.199999999999996
20
18.699999999999989
10
34.199999999999989
20
32.09999999999998
42
0.41421356237310153
10
33.999999999999993
20
32.299999999999976
10
20.599999999999987
20
32.299999999999976
42
0.41421356237308854
10
20.399999999999991
20
32.09999999999998
10
20.399999999999988
20
18.699999999999989
42
0.41421356237309503
10
20.599999999999987
20
18.499999999999993
0
LWPOLYLINE
5
102
100
AcDbEntity
8
0
100
AcDbPolyline
90
8
70
1
43
0.0
10
15
20
-60.190000000000012
42
0.41421356237311779
10
15.200000000000003
20
-59.990000000000009
10
15.199999999999999
20
-46.590000000000003
42
0.41421356237312429
10
15
20
-46.390000000000015
10
1.6000000000000014
20
-46.390000000000001
42
0.41421356237311541
10
1.3999999999999968
20
-46.590000000000003
10
1.3999999999999992
20
-59.990000000000009
42
0.41421356237314383
10
1.6000000000000014
20
-60.189999999999998
0
CIRCLE
5
103
100
AcDbEntity
8
0
100
AcDbCircle
10
55.599999999999987
20
-32.090000000000003
30
0
40
2.0500000000000007
210
0
220
-0
230
1
0
LWPOLYLINE
5
104
100
AcDbEntity
8
0
100
AcDbPolyline
90
28
70
1
43
0.0
10
1.4000000000000048
20
0.64999999999999369
42
0.35332231883193826
10
1.0842719282326969
20
1.0410220481148587
42
0.26409414528992525
10
0.78957683943092938
20
0.77799999999999381
42
-0.71774056256527352
10
-3.1895768394309485
20
0.77799999999999259
42
0.26409414528992364
10
-3.4842719282327153
20
1.0410220481148551
42
0.35332231883193294
10
-3.8000000000000171
20
0.64999999999999147
10
-3.8000000000000171
20
-0.29999999999999577
42
-0.41421356237309492
10
-4.0000000000000178
20
-0.49999999999999573
10
-17.400000000000009
20
-0.49999999999999589
42
-0.41421356237309198
10
-17.600000000000012
20
-0.2999999999999956
10
-17.600000000000012
20
13.099999999999998
42
-0.41421356237309176
10
-17.400000000000013
20
13.300000000000001
10
-4.0000000000000124
20
13.300000000000001
42
-0.41421356237309503
10
-3.8000000000000131
20
13.100000000000001
10
-3.8000000000000167
20
2.249999999999992
42
0.35332231883193682
10
-3.4842719282327113
20
1.858977951885127
42
0.26409414528992664
10
-3.1895768394309529
20
2.1219999999999963
42
-0.71774056256527352
10
0.78957683943093437
20
2.1219999999999928
42
0.26409414528992442
10
1.084271928232702
20
1.8589779518851293
42
0.35332231883193294
10
1.4000000000000035
20
2.2499999999999929
10
1.4000000000000046
20
10.600000000000001
42
-0.41421356237309664
10
1.6000000000000059
20
10.800000000000001
10
15.000000000000009
20
10.800000000000001
42
-0.41421356237310153
10
15.20000000000001
20
10.600000000000001
10
15.199999999999999
20
-2.799999999999998
42
-0.41421356237309825
10
15
20
-2.9999999999999991
10
1.6000000000000014
20
-3
42
-0.41421356237309503
10
1.400000000000003
20
-2.7999999999999989
0
CIRCLE
5
105
100
AcDbEntity
8
0
100
AcDbCircle
10
55.599999999999987
20
6.2099999999999937
30
0
40
2.0500000000000007
210
0
220
-0
230
1
0
LWPOLYLINE
5
106
100
AcDbEntity
8
0
100
AcDbPolyline
90
8
70
1
43
0.0
10
52.999999999999986
20
8.4000000000000021
42
0.41421356237312756
10
53.199999999999989
20
8.6000000000000032
10
53.199999999999989
20
21.999999999999993
42
0.41421356237309503
10
52.999999999999986
20
22.199999999999985
10
39.599999999999994
20
22.199999999999989
42
0.41421356237308854
10
39.399999999999991
20
21.999999999999993
10
39.399999999999991
20
8.6000000000000014
42
0.41421356237309503
10
39.599999999999994
20
8.4000000000000021
0
LWPOLYLINE
5
107
100
AcDbEntity
8
0
100
AcDbPolyline
90
8
70
1
43
0.0
10
-23.000000000000011
20
-55.199999999999996
42
0.41421356237308854
10
-22.800000000000004
20
-55
10
-22.800000000000008
20
-41.600000000000009
42
0.41421356237310153
10
-23.000000000000011
20
-41.400000000000006
10
-36.399999999999999
20
-41.400000000000006
42
0.41421356237310153
10
-36.600000000000009
20
-41.600000000000009
10
-36.600000000000001
20
-54.999999999999993
42
0.414213562373069
10
-36.399999999999999
20
-55.199999999999996
0
LWPOLYLINE
5
108
100
AcDbEntity
8
0
100
AcDbPolyline
90
8
70
1
43
0.0
10
-4.0000000000000178
20
18.600000000000001
42
0.41421356237309587
10
-3.8000000000000167
20
18.800000000000001
10
-3.8000000000000145
20
32.200000000000003
42
0.41421356237309748
10
-4.0000000000000169
20
32.400000000000006
10
-17.400000000000013
20
32.400000000000006
42
0.41421356237307549
10
-17.600000000000009
20
32.200000000000003
10
-17.600000000000012
20
18.800000000000001
42
0.41421356237309176
10
-17.400000000000009
20
18.599999999999998
0
LWPOLYLINE
5
109
100
AcDbEntity
8
0
100
AcDbPolyline
90
28
70
1
43
0.0
10
33.999999999999993
20
-19.599999999999998
42
0.41421356237309503
10
34.199999999999996
20
-19.399999999999999
10
34.199999999999996
20
-6.0000000000000036
42
0.41421356237309503
10
33.999999999999993
20
-5.8000000000000052
10
20.600000000000001
20
-5.8000000000000025
42
0.4142135623731048
10
20.399999999999999
20
-6.0000000000000036
10
20.399999999999984
20
-16.800000000000001
42
-0.33530590974614066
10
20.109271928232676
20
-17.184785194232187
42
-0.24693560065977882
10
19.839576839430919
20
-16.927999999999994
42
0.71774056256527252
10
15.860423160569042
20
-16.928000000000004
42
-0.28116084530952634
10
15.540728071767289
20
-17.195584173752664
42
-0.37129352137384442
10
15.20000000000001
20
-16.800000000000001
10
15.199999999999999
20
-8.4000000000000021
42
0.41421356237309992
10
15
20
-8.2000000000000011
10
1.6000000000000036
20
-8.2000000000000011
42
0.41421356237309587
10
1.4000000000000057
20
-8.4000000000000021
10
1.4000000000000021
20
-21.800000000000001
42
0.41421356237310403
10
1.6000000000000014
20
-22
10
15
20
-22
42
0.4142135623731048
10
15.199999999999996
20
-21.800000000000001
10
15.200000000000003
20
-18.400000000000013
42
-0.37129352137385535
10
15.540728071767296
20
-18.004415826247349
42
-0.2811608453095274
10
15.86042316056905
20
-18.272000000000006
42
0.71774056256527419
10
19.839576839430936
20
-18.271999999999998
42
-0.24693560065977091
10
20.109271928232694
20
-18.015214805767805
42
-0.33530590974612884
10
20.399999999999991
20
-18.399999999999999
10
20.399999999999988
20
-19.399999999999999
42
0.41421356237309503
10
20.599999999999987
20
-19.599999999999994
0
LWPOLYLINE
5
110
100
AcDbEntity
8
0
100
AcDbPolyline
90
28
70
1
43
0.0
10
1.4000000000000059
20
-37.450000000000003
42
0.35332231883194137
10
1.0842719282326923
20
-37.058977951885133
42
0.26409414528992053
10
0.78957683943093127
20
-37.322000000000003
42
-0.71774056256527119
10
-3.1895768394309396
20
-37.322000000000003
42
0.26409414528993286
10
-3.4842719282327188
20
-37.058977951885133
42
0.35332231883193677
10
-3.8000000000000274
20
-37.450000000000003
10
-3.8000000000000256
20
-38.399999999999991
42
-0.41421356237309426
10
-4.0000000000000249
20
-38.599999999999987
10
-17.40000000000002
20
-38.599999999999987
42
-0.41421356237309176
10
-17.600000000000019
20
-38.399999999999991
10
-17.600000000000019
20
-24.999999999999993
42
-0.41421356237310802
10
-17.400000000000016
20
-24.799999999999986
10
-4.0000000000000213
20
-24.799999999999986
42
-0.41421356237310314
10
-3.800000000000022
20
-24.999999999999986
10
-3.8000000000000256
20
-35.850000000000001
42
0.35332231883193521
10
-3.4842719282327215
20
-36.241022048114871
42
0.26409414528992697
10
-3.1895768394309396
20
-35.978000000000009
42
-0.71774056256527508
10
0.78957683943092638
20
-35.977999999999994
42
0.26409414528994063
10
1.0842719282327076
20
-36.241022048114871
42
0.35332231883192772
10
1.4000000000000046
20
-35.850000000000009
10
1.4000000000000083
20
-27.500000000000007
42
-0.41421356237309426
10
1.6000000000000081
20
-27.300000000000008
10
15.000000000000009
20
-27.300000000000008
42
-0.41421356237309503
10
15.20000000000001
20
-27.500000000000007
10
15.200000000000003
20
-40.90000000000002
42
-0.41421356237311779
10
15
20
-41.100000000000023
10
1.6000000000000059
20
-41.100000000000009
42
-0.41421356237312962
10
1.4000000000000044
20
-40.90000000000002
0
LWPOLYLINE
5
111
100
AcDbEntity
8
0
100
AcDbPolyline
90
8
70
1
43
0.0
10
-41.569381854151118
20
26.62866176317765
42
0.41421356237307455
10
-41.46342709438548
20
26.366414572757996
10
-29.128661763177639
20
21.130618145848903
42
0.41421356237308055
10
-28.866414572757996
20
21.236572905614558
10
-23.630618145848903
20
33.571338236822371
42
0.41421356237308649
10
-23.736572905614555
20
33.833585427242028
10
-36.071338236822385
20
39.069381854151118
42
0.41421356237310952
10
-36.333585427242035
20
38.963427094385452
0
LWPOLYLINE
5
112
100
AcDbEntity
8
0
100
AcDbPolyline
90
8
70
1
43
0.0
10
-23.000000000000011
20
1.9000000000000052
42
0.41421356237310442
10
-22.800000000000011
20
2.1000000000000041
10
-22.800000000000008
20
15.499999999999998
42
0.41421356237310802
10
-23.000000000000011
20
15.700000000000001
10
-36.399999999999999
20
15.699999999999999
42
0.4142135623731048
10
-36.600000000000001
20
15.499999999999998
10
-36.600000000000001
20
2.100000000000005
42
0.41421356237310403
10
-36.399999999999999
20
1.9000000000000072
0
CIRCLE
5
113
100
AcDbEntity
8
0
100
AcDbCircle
10
-46.400000000000013
20
22.509999999999998
30
0
40
2.0500000000000007
210
0
220
-0
230
1
0
LWPOLYLINE
5
114
100
AcDbEntity
8
0
100
AcDbPolyline
90
8
70
1
43
0.0
10
-4.0000000000000133
20
-57.700000000000003
42
0.41421356237311541
10
-3.8000000000000127
20
-57.5
10
-3.8000000000000114
20
-44.100000000000001
42
0.41421356237308127
10
-4.0000000000000124
20
-43.900000000000006
10
-17.400000000000013
20
-43.900000000000006
42
0.41421356237307877
10
-17.600000000000016
20
-44.100000000000001
10
-17.600000000000012
20
-57.5
42
0.41421356237312429
10
-17.400000000000013
20
-57.699999999999996
0
CIRCLE
5
115
100
AcDbEntity
8
0
100
AcDbCircle
10
-20.90000000000002
20
-38.700000000000003
30
0
40
2.0499999999999963
210
0
220
-0
230
1
0
CIRCLE
5
116
100
AcDbEntity
8
0
100
AcDbCircle
10
-20.90000000000002
20
-0.78999999999999904
30
0
40
2.0499999999999963
210
0
220
-0
230
1
0
LWPOLYLINE
5
117
100
AcDbEntity
8
0
100
AcDbPolyline
90
8
70
1
43
0.0
10
33.999999999999979
20
-38.700000000000003
42
0.41421356237309503
10
34.199999999999974
20
-38.500000000000007
10
34.199999999999989
20
-25.100000000000009
42
0.41421356237308204
10
33.999999999999979
20
-24.899999999999999
10
20.599999999999987
20
-24.900000000000006
42
0.41421356237309503
10
20.399999999999991
20
-25.100000000000009
10
20.399999999999988
20
-38.500000000000007
42
0.41421356237309503
10
20.599999999999987
20
-38.700000000000003
0
LWPOLYLINE
5
118
100
AcDbEntity
8
0
100
AcDbPolyline
90
8
70
1
43
0.0
10
33.999999999999993
20
-57.700000000000003
42
0.41421356237312101
10
34.200000000000003
20
-57.5
10
34.200000000000003
20
-44.100000000000009
42
0.41421356237308204
10
33.999999999999993
20
-43.900000000000006
10
20.600000000000001
20
-43.900000000000006
42
0.41421356237308854
10
20.399999999999991
20
-44.100000000000001
10
20.399999999999999
20
-57.499999999999993
42
0.41421356237310153
10
20.600000000000005
20
-57.699999999999996
0
LWPOLYLINE
5
119
100
AcDbEntity
8
0
100
AcDbPolyline
90
8
70
1
43
0.0
10
72
20
8.3999999999999968
42
0.41421356237312756
10
72.199999999999989
20
8.5999999999999979
10
72.199999999999989
20
21.999999999999989
42
0.41421356237308854
10
72
20
22.199999999999985
10
58.599999999999994
20
22.199999999999989
42
0.41421356237314705
10
58.399999999999999
20
21.999999999999989
10
58.399999999999991
20
8.5999999999999979
42
0.41421356237311452
10
58.599999999999994
20
8.399999999999995
0
LWPOLYLINE
5
120
100
AcDbEntity
8
0
100
AcDbPolyline
90
8
70
1
43
0.0
10
52.999999999999986
20
-29.800000000000004
42
0.41421356237314705
10
53.199999999999989
20
-29.600000000000005
10
53.199999999999989
20
-16.20000000000001
42
0.41421356237309176
10
52.999999999999986
20
-16.000000000000018
10
39.599999999999994
20
-16.000000000000011
42
0.41421356237309503
10
39.399999999999991
20
-16.20000000000001
10
39.399999999999991
20
-29.600000000000005
42
0.41421356237310153
10
39.599999999999994
20
-29.800000000000004
0
LWPOLYLINE
5
121
100
AcDbEntity
8
0
100
AcDbPolyline
90
8
70
1
43
0.0
10
15
20
16.000000000000011
42
0.41421356237310153
10
15.199999999999999
20
16.20000000000001
10
15.199999999999999
20
29.600000000000005
42
0.4142135623731048
10
15
20
29.800000000000004
10
1.6000000000000036
20
29.800000000000004
42
0.4142135623731048
10
1.4000000000000057
20
29.600000000000005
10
1.4000000000000012
20
16.20000000000001
42
0.41421356237308737
10
1.6000000000000014
20
16.000000000000011
0
LWPOLYLINE
5
122
100
AcDbEntity
8
0
100
AcDbPolyline
90
8
70
1
43
0.0
10
72
20
-29.799999999999997
42
0.41421356237314705
10
72.199999999999989
20
-29.599999999999994
10
72.199999999999989
20
-16.200000000000014
42
0.41421356237309503
10
72
20
-16.000000000000018
10
58.599999999999994
20
-16.000000000000011
42
0.41421356237313078
10
58.399999999999999
20
-16.200000000000014
10
58.399999999999991
20
-29.599999999999994
42
0.41421356237312101
10
58.599999999999994
20
-29.800000000000001
0
LWPOLYLINE
5
123
100
AcDbEntity
8
0
100
AcDbPolyline
90
8
70
1
43
0.0
10
72
20
-10.599999999999989
42
0.41421356237314383
10
72.200000000000003
20
-10.39999999999999
10
72.199999999999989
20
3.0000000000000004
42
0.41421356237309265
10
72
20
3.1999999999999917
10
58.599999999999994
20
3.1999999999999984
42
0.41421356237307877
10
58.399999999999999
20
3.0000000000000004
10
58.399999999999991
20
-10.39999999999999
42
0.41421356237311452
10
58.599999999999994
20
-10.599999999999991
0
LWPOLYLINE
5
124
100
AcDbEntity
8
0
100
AcDbPolyline
90
8
70
1
43
0.0
10
52.999999999999986
20
-10.599999999999989
42
0.41421356237314383
10
53.199999999999996
20
-10.39999999999999
10
53.199999999999989
20
3.0000000000000004
42
0.41421356237309265
10
52.999999999999986
20
3.1999999999999962
10
39.599999999999994
20
3.1999999999999993
42
0.41421356237309426
10
39.399999999999991
20
3.0000000000000004
10
39.399999999999991
20
-10.39999999999999
42
0.41421356237309503
10
39.599999999999994
20
-10.599999999999987
0
LWPOLYLINE
5
125
100
AcDbEntity
8
0
100
AcDbPolyline
90
8
70
1
43
0.0
10
52.999999999999986
20
-48.600000000000001
42
0.41421356237314705
10
53.199999999999996
20
-48.399999999999999
10
53.199999999999989
20
-35.000000000000007
42
0.41421356237308854
10
52.999999999999986
20
-34.800000000000011
10
39.599999999999994
20
-34.800000000000011
42
0.41421356237309503
10
39.399999999999991
20
-35.000000000000007
10
39.399999999999991
20
-48.399999999999999
42
0.41421356237314055
10
39.599999999999994
20
-48.599999999999994
0
LWPOLYLINE
5
126
100
AcDbEntity
8
0
100
AcDbPolyline
90
4
70
1
43
0.0
10
-21.95000000000001
20
-35.234999999999999
10
-21.95000000000001
20
-29.434999999999995
10
-18.450000000000014
20
-29.434999999999995
10
-18.450000000000014
20
-35.235000000000021
0
LWPOLYLINE
5
127
100
AcDbEntity
8
0
100
AcDbPolyline
90
8
70
1
43
0.0
10
-23.000000000000011
20
-36.100000000000001
42
0.41421356237310153
10
-22.800000000000008
20
-35.899999999999999
10
-22.800000000000008
20
-22.500000000000014
42
0.41421356237309503
10
-23.000000000000011
20
-22.300000000000004
10
-36.399999999999999
20
-22.300000000000008
42
0.41421356237311452
10
-36.600000000000001
20
-22.500000000000014
10
-36.600000000000001
20
-35.899999999999999
42
0.41421356237310153
10
-36.399999999999999
20
-36.100000000000001
0
LWPOLYLINE
5
128
100
AcDbEntity
8
0
100
AcDbPolyline
90
8
70
1
43
0.0
10
33.999999999999993
20
-0.5999999999999962
42
0.41421356237309587
10
34.29999999999999
20
-0.29999999999999583
10
34.29999999999999
20
13.100000000000003
42
0.41421356237309287
10
33.999999999999993
20
13.399999999999995
10
20.599999999999987
20
13.4
42
0.41421356237309076
10
20.299999999999983
20
13.100000000000003
10
20.29999999999999
20
-0.29999999999999633
42
0.41421356237310064
10
20.599999999999987
20
-0.59999999999999443
0
LWPOLYLINE
5
129
100
AcDbEntity
8
0
100
AcDbPolyline
90
8
70
1
43
0.0
10
58.599999999999987
20
-34.900000000000006
42
0.414213562373069
10
58.399999999999977
20
-35.100000000000001
10
58.399999999999977
20
-48.5
42
0.41421356237312101
10
58.599999999999994
20
-48.699999999999989
10
72
20
-48.700000000000003
42
0.41421356237314705
10
72.199999999999989
20
-48.5
10
72.200000000000003
20
-35.100000000000001
42
0.41421356237312101
10
72
20
-34.899999999999999
0
LWPOLYLINE
5
130
100
AcDbEntity
8
0
100
AcDbPolyline
90
8
70
1
43
0.0
10
-44.174424773591731
20
37.462370442043557
42
0.414213562373066
10
-44.247629861282704
20
37.735575520942469
10
-55.852370442043565
20
44.435575226408289
42
0.41421356237316437
10
-56.12557552094249
20
44.36237013871731
10
-62.825575226408297
20
32.757629557956449
42
0.41421356237307161
10
-62.752370138717325
20
32.484424479057544
10
-51.147629557956463
20
25.784424773591713
42
0.41421356237309176
10
-50.874424479057552
20
25.857629861282689
0
LWPOLYLINE
5
131
100
AcDbEntity
8
0
100
AcDbPolyline
90
24
70
1
43
0.0
10
-44.299999999999997
20
1.299999999999998
42
0.41421356237314055
10
-44.099999999999994
20
1.499999999999998
10
-44.100000000000001
20
3.8999999999999977
42
-0.41421356237309503
10
-43.700000000000003
20
4.299999999999998
10
-42.549999999999997
20
4.299999999999998
42
0.414213562373069
10
-42.349999999999994
20
4.5
10
-42.349999999999994
20
11.900000000000002
42
0.41421356237309503
10
-42.549999999999997
20
12.100000000000005
10
-43.700000000000003
20
12.1
42
-0.41421356237309503
10
-44.100000000000001
20
12.5
10
-44.099999999999994
20
14.900000000000002
42
0.41421356237311779
10
-44.299999999999997
20
15.100000000000005
10
-57.700000000000003
20
15.100000000000001
42
0.41421356237306578
10
-57.900000000000006
20
14.900000000000002
10
-57.899999999999999
20
12.5
42
-0.41421356237308854
10
-58.29999999999999
20
12.1
10
-59.450000000000003
20
12.1
42
0.41421356237307549
10
-59.649999999999999
20
11.899999999999999
10
-59.650000000000006
20
4.4999999999999982
42
0.41421356237307877
10
-59.45000000000001
20
4.2999999999999963
10
-58.299999999999997
20
4.299999999999998
42
-0.41421356237309503
10
-57.899999999999999
20
3.8999999999999977
10
-57.900000000000006
20
1.4999999999999978
42
0.41421356237307877
10
-57.700000000000017
20
1.2999999999999956
0
LWPOLYLINE
5
132
100
AcDbEntity
8
0
100
AcDbPolyline
90
38
70
1
43
0.0
10
36.812263455988266
20
-51.340971548283179
10
74.210436487874034
20
-51.350228730113358
42
0.41428606418301356
10
74.610535499999969
20
-50.950228742367621
10
74.610535499999997
20
24.506039192829114
42
0.34049563691310708
10
74.312619718778762
20
24.892793394197788
10
36.605791930510996
20
34.845554201368671
42
0.064606026466078922
10
36.503707711732247
20
34.858799999999981
10
-19.890285910822865
20
34.858799999999995
42
-0.10744659387718206
10
-19.973322485253856
20
34.876852405053626
10
-37.414188745297722
20
42.836450825521261
42
-0.026167206282538141
10
-37.432739676878143
20
42.846119638772429
10
-54.129204242051529
20
52.691511959833477
42
0.41629569850741449
10
-54.678371390141145
20
52.547676696599069
10
-68.894199336480071
20
28.043350703477032
42
0.41253537706713223
10
-68.750909791860096
20
27.497792704152936
10
-60.669566745509435
20
22.747387853906325
42
-0.26585201464544556
10
-60.570918041245918
20
22.574972290320634
10
-60.570660080649297
20
0.0062248023695721244
42
0.4142135623730947
10
-60.170655508678735
20
-0.39377062560762299
10
-39.870655510004809
20
-0.39353859677597414
42
-0.41421356237308926
10
-39.670653224019532
20
-0.59353631076456348
10
-39.670003428991009
20
-57.443536307050991
42
0.41421356237309503
10
-39.269998857020461
20
-57.843531735028193
10
-19.770002285998366
20
-57.8433088502291
42
-0.41421691014412337
10
-19.570000000000032
20
-58.043308850216036
10
-19.570000000000032
20
-59.942000818877545
42
0.41434068523630696
10
-19.169826397967181
20
-60.342000781205449
10
-0.77008859044044975
20
-60.334015200735116
42
-0.41434068523628542
10
-0.5700017894240238
20
-60.534015181899079
10
-0.57000178942402613
20
-62.42934799504296
42
0.4142660245865995
10
-0.16993014387301567
20
-62.829347988626608
10
17.230069567390967
20
-62.826231407159355
42
0.41416110210568724
10
17.629997921839941
20
-62.426231413575749
10
17.629997921839959
20
-60.542260317889799
42
-0.41421356237308204
10
17.829997921839961
20
-60.34226031788981
10
36.229384124022495
20
-60.342260317889789
42
0.41481233393174755
10
36.629383288516436
20
-59.941442758015349
10
36.61221436767832
20
-51.541380322093303
42
-0.41488486646349532
0
ENDSEC
0
SECTION
2
OBJECTS
0
DICTIONARY
5
C
100
AcDbDictionary
3
ACAD_GROUP
350
D
3
ACAD_MLINESTYLE
350
17
0
DICTIONARY
5
D
100
AcDbDictionary
0
DICTIONARY
5
1A
330
C
100
AcDbDictionary
0
DICTIONARY
5
17
100
AcDbDictionary
0
ENDSEC
0
EOF
