0
SECTION
2
HEADER
9
$INSUNITS
70
4
9
$ACADVER
1
AC1014
9
$HANDSEED
5
FFFF
0
ENDSEC
0
SECTION
2
TABLES
0
TABLE
2
VPORT
5
8
100
AcDbSymbolTable
0
ENDTAB
0
TABLE
2
LTYPE
5
5
100
AcDbSymbolTable
0
LTYPE
5
14
100
AcDbSymbolTableRecord
100
AcDbLinetypeTableRecord
2
BYBLOCK
70
0
0
LTYPE
5
15
100
AcDbSymbolTableRecord
100
AcDbLinetypeTableRecord
2
BYLAYER
70
0
0
ENDTAB
0
TABLE
2
LAYER
5
2
100
AcDbSymbolTable
70
2
0
LAYER
5
50
100
AcDbSymbolTableRecord
100
AcDbLayerTableRecord
2
0
70
0
6
CONTINUOUS
0
ENDTAB
0
TABLE
2
STYLE
5
3
100
AcDbSymbolTable
70
1
0
STYLE
5
11
100
AcDbSymbolTableRecord
100
AcDbTextStyleTableRecord
2
STANDARD
70
0
0
ENDTAB
0
TABLE
2
VIEW
5
6
100
AcDbSymbolTable
70
0
0
ENDTAB
0
TABLE
2
UCS
5
7
100
AcDbSymbolTable
70
0
0
ENDTAB
0
TABLE
2
APPID
5
9
100
AcDbSymbolTable
70
2
0
APPID
5
12
100
AcDbSymbolTableRecord
100
AcDbRegAppTableRecord
2
ACAD
70
0
0
ENDTAB
0
TABLE
2
DIMSTYLE
5
A
100
AcDbSymbolTable
70
1
0
ENDTAB
0
TABLE
2
BLOCK_RECORD
5
1
100
AcDbSymbolTable
70
1
0
BLOCK_RECORD
5
1F
100
AcDbSymbolTableRecord
100
AcDbBlockTableRecord
2
*MODEL_SPACE
0
BLOCK_RECORD
5
1B
100
AcDbSymbolTableRecord
100
AcDbBlockTableRecord
2
*PAPER_SPACE
0
ENDTAB
0
ENDSEC
0
SECTION
2
BLOCKS
0
BLOCK
5
20
100
AcDbEntity
100
AcDbBlockBegin
2
*MODEL_SPACE
0
ENDBLK
5
21
100
AcDbEntity
100
AcDbBlockEnd
0
BLOCK
5
1C
100
AcDbEntity
100
AcDbBlockBegin
2
*PAPER_SPACE
0
ENDBLK
5
1D
100
AcDbEntity
100
AcDbBlockEnd
0
ENDSEC
0
SECTION
2
ENTITIES
0
CIRCLE
5
100
100
AcDbEntity
8
0
100
AcDbCircle
10
-134.63716900000003
20
86.620019999999997
30
0
40
21.050000000000004
210
0
220
-0
230
1
0
CIRCLE
5
101
100
AcDbEntity
8
0
100
AcDbCircle
10
-174.690169
20
59.364018999999999
30
0
40
1.1000000000000032
210
0
220
0
230
1
0
CIRCLE
5
102
100
AcDbEntity
8
0
100
AcDbCircle
10
-169.48316800000001
20
106.60801900000001
30
0
40
1.0999999999999985
210
0
220
0
230
1
0
CIRCLE
5
103
100
AcDbEntity
8
0
100
AcDbCircle
10
-114.11117000000002
20
49.45801800000001
30
0
40
1.100000000000001
210
0
220
0
230
1
0
CIRCLE
5
104
100
AcDbEntity
8
0
100
AcDbCircle
10
-86.587171999999995
20
118.07001900000002
30
0
40
1.1000000000000032
210
0
220
0
230
1
0
ARC
5
105
100
AcDbEntity
8
0
100
AcDbCircle
10
-94.781000000000148
20
109.18799999999999
30
0
40
16.818238581935134
210
0
220
-0
230
1
100
AcDbArc
50
0.44293372809949993
51
26.467300069444995
0
LINE
5
106
100
AcDbEntity
8
0
100
AcDbLine
10
-79.725500000000352
20
116.68366999999982
30
0
11
-91.175677138642968
21
136.76666722458339
31
0
0
LINE
5
107
100
AcDbEntity
8
0
100
AcDbLine
10
-91.175677138642968
20
136.76666722458339
30
0
11
-91.176984280160781
21
136.76944356781868
31
0
0
ARC
5
108
100
AcDbEntity
8
0
100
AcDbCircle
10
-92.839000000000013
20
135.71799999999999
30
0
40
1.9666799000600053
210
0
220
-0
230
1
100
AcDbArc
50
32.318735974204444
51
122.9666360494883
0
ARC
5
109
100
AcDbEntity
8
0
100
AcDbCircle
10
-140.63900000000052
20
210.67800000000133
30
0
40
86.936932194721379
210
0
220
0
230
1
100
AcDbArc
50
284.35282203492494
51
302.51457511643139
0
LINE
5
110
100
AcDbEntity
8
0
100
AcDbLine
10
-119.08800730613581
20
126.45457752537986
30
0
11
-119.09104549823475
21
126.4537439488638
31
0
0
ARC
5
111
100
AcDbEntity
8
0
100
AcDbCircle
10
-189.79600000000084
20
402.53700000000731
30
0
40
284.99325406559745
210
0
220
0
230
1
100
AcDbArc
50
270.13607179763306
51
284.36471994853883
0
LINE
5
112
100
AcDbEntity
8
0
100
AcDbLine
10
-189.11916990414022
20
117.54454963698542
30
0
11
-189.39417435126393
21
117.54393674793164
31
0
0
LINE
5
113
100
AcDbEntity
8
0
100
AcDbLine
10
-189.39417435126393
20
117.54393674793164
30
0
11
-189.39807199881903
21
117.54415553809392
31
0
0
ARC
5
114
100
AcDbEntity
8
0
100
AcDbCircle
10
-189.42899999999997
20
115.54299999999998
30
0
40
2.0013945210530246
210
0
220
-0
230
1
100
AcDbArc
50
89.114560146250099
51
177.99563619983371
0
LINE
5
115
100
AcDbEntity
8
0
100
AcDbLine
10
-191.42917000000025
20
115.61300000000001
30
0
11
-191.42131203288503
21
61.307577114899203
31
0
0
LINE
5
116
100
AcDbEntity
8
0
100
AcDbLine
10
-191.42131203288503
20
61.307577114899203
30
0
11
-191.42086129997992
21
61.306159512997837
31
0
0
ARC
5
117
100
AcDbEntity
8
0
100
AcDbCircle
10
-187.54900000000009
20
62.537999999999926
30
0
40
4.0630949917149337
210
0
220
0
230
1
100
AcDbArc
50
197.64857376308095
51
232.97964241187611
0
LINE
5
118
100
AcDbEntity
8
0
100
AcDbLine
10
-189.99538439897719
20
59.293937071488813
30
0
11
-189.99169314419959
21
59.290953443936075
31
0
0
ARC
5
119
100
AcDbEntity
8
0
100
AcDbCircle
10
-145.0192000000001
20
111.27779999999981
30
0
40
68.739780000002824
210
0
220
0
230
1
100
AcDbArc
50
229.13775437192768
51
270.00001667034132
0
LINE
5
120
100
AcDbEntity
8
0
100
AcDbLine
10
-145.01918000000001
20
42.538019999999918
30
0
11
-141.04508392387058
21
42.535587080306385
31
0
0
LINE
5
121
100
AcDbEntity
8
0
100
AcDbLine
10
-141.04508392387058
20
42.535587080306385
30
0
11
-141.04210780131405
21
42.535670557122543
31
0
0
ARC
5
122
100
AcDbEntity
8
0
100
AcDbCircle
10
-148.31550000000016
20
186.30740000000102
30
0
40
143.9555918367611
210
0
220
0
230
1
100
AcDbArc
50
272.89611665079042
51
290.94351568224687
0
LINE
5
123
100
AcDbEntity
8
0
100
AcDbLine
10
-96.858945517426704
20
51.862484060966317
30
0
11
-96.857596459040252
21
51.863184712389824
31
0
0
ARC
5
124
100
AcDbEntity
8
0
100
AcDbCircle
10
-97.174000000000035
20
52.543000000000006
30
0
40
0.74984000026699782
210
0
220
0
230
1
100
AcDbArc
50
-65.041518670511593
51
0.0015282133300112506
0
LINE
5
125
100
AcDbEntity
8
0
100
AcDbLine
10
-96.424159999999745
20
52.543019999999999
30
0
11
-96.428574501150763
21
71.39869600215296
31
0
0
ARC
5
126
100
AcDbEntity
8
0
100
AcDbCircle
10
-95.429000000000016
20
71.399000000000001
30
0
40
0.99957004807100303
210
0
220
-0
230
1
100
AcDbArc
50
89.965619786002975
51
180.01742520747561
0
LINE
5
127
100
AcDbEntity
8
0
100
AcDbLine
10
-95.428400210095987
20
72.398569868119651
30
0
11
-78.725302879667666
21
72.396170061104272
31
0
0
ARC
5
128
100
AcDbEntity
8
0
100
AcDbCircle
10
-78.724999999999966
20
73.145999999999972
30
0
40
0.74983000006697309
210
0
220
0
230
1
100
AcDbArc
50
-90.023143548710891
51
0.00076411692002140499
0
LINE
5
129
100
AcDbEntity
8
0
100
AcDbLine
10
-77.975170000000006
20
73.14600999999999
30
0
11
-77.963263969583139
21
109.31801465342335
31
0
0
ENDSEC
0
SECTION
2
OBJECTS
0
DICTIONARY
5
C
100
AcDbDictionary
3
ACAD_GROUP
350
D
3
ACAD_MLINESTYLE
350
17
0
DICTIONARY
5
D
100
AcDbDictionary
0
DICTIONARY
5
1A
330
C
100
AcDbDictionary
0
DICTIONARY
5
17
100
AcDbDictionary
0
ENDSEC
0
EOF
