0
SECTION
2
HEADER
9
$INSUNITS
70
4
9
$ACADVER
1
AC1014
9
$HANDSEED
5
FFFF
0
ENDSEC
0
SECTION
2
TABLES
0
TABLE
2
VPORT
5
8
100
AcDbSymbolTable
0
ENDTAB
0
TABLE
2
LTYPE
5
5
100
AcDbSymbolTable
0
LTYPE
5
14
100
AcDbSymbolTableRecord
100
AcDbLinetypeTableRecord
2
BYBLOCK
70
0
0
LTYPE
5
15
100
AcDbSymbolTableRecord
100
AcDbLinetypeTableRecord
2
BYLAYER
70
0
0
ENDTAB
0
TABLE
2
LAYER
5
2
100
AcDbSymbolTable
70
2
0
LAYER
5
50
100
AcDbSymbolTableRecord
100
AcDbLayerTableRecord
2
0
70
0
6
CONTINUOUS
0
ENDTAB
0
TABLE
2
STYLE
5
3
100
AcDbSymbolTable
70
1
0
STYLE
5
11
100
AcDbSymbolTableRecord
100
AcDbTextStyleTableRecord
2
STANDARD
70
0
0
ENDTAB
0
TABLE
2
VIEW
5
6
100
AcDbSymbolTable
70
0
0
ENDTAB
0
TABLE
2
UCS
5
7
100
AcDbSymbolTable
70
0
0
ENDTAB
0
TABLE
2
APPID
5
9
100
AcDbSymbolTable
70
2
0
APPID
5
12
100
AcDbSymbolTableRecord
100
AcDbRegAppTableRecord
2
ACAD
70
0
0
ENDTAB
0
TABLE
2
DIMSTYLE
5
A
100
AcDbSymbolTable
70
1
0
ENDTAB
0
TABLE
2
BLOCK_RECORD
5
1
100
AcDbSymbolTable
70
1
0
BLOCK_RECORD
5
1F
100
AcDbSymbolTableRecord
100
AcDbBlockTableRecord
2
*MODEL_SPACE
0
BLOCK_RECORD
5
1B
100
AcDbSymbolTableRecord
100
AcDbBlockTableRecord
2
*PAPER_SPACE
0
ENDTAB
0
ENDSEC
0
SECTION
2
BLOCKS
0
BLOCK
5
20
100
AcDbEntity
100
AcDbBlockBegin
2
*MODEL_SPACE
0
ENDBLK
5
21
100
AcDbEntity
100
AcDbBlockEnd
0
BLOCK
5
1C
100
AcDbEntity
100
AcDbBlockBegin
2
*PAPER_SPACE
0
ENDBLK
5
1D
100
AcDbEntity
100
AcDbBlockEnd
0
ENDSEC
0
SECTION
2
ENTITIES
0
CIRCLE
5
100
100
AcDbEntity
8
0
100
AcDbCircle
10
114.11117000000002
20
-49.458018000000017
30
0
40
2.0500000000000007
210
0
220
-0
230
1
0
LWPOLYLINE
5
101
100
AcDbEntity
8
0
100
AcDbPolyline
90
8
70
1
43
0.0
10
174.98716999999999
20
-114.57001700000001
10
174.98716999999999
20
-101.57001700000002
42
-0.41421356237310802
10
175.38717000000003
20
-101.17001700000003
10
188.38717000000005
20
-101.17001700000009
42
-0.41421356237302998
10
188.78717
20
-101.57001700000002
10
188.78717
20
-114.57001700000001
42
-0.41421356237310802
10
188.38717
20
-114.970017
10
175.38716999999997
20
-114.97001700000001
42
-0.41421356237305601
0
LWPOLYLINE
5
102
100
AcDbEntity
8
0
100
AcDbPolyline
90
8
70
1
43
0.0
10
110.63260559177181
20
-125.42238828208637
42
0.41421356237308249
10
111.12250354032849
20
-125.70523099456096
10
123.67953928208635
20
-122.34058340822821
42
0.41421356237309503
10
123.96238199456094
20
-121.85068545967155
10
120.59773440822821
20
-109.29364971791369
42
0.41421356237314871
10
120.10783645967157
20
-109.01080700543908
10
107.55080071791369
20
-112.37545459177186
42
0.41421356237308249
10
107.26795800543908
20
-112.86535254032849
0
CIRCLE
5
103
100
AcDbEntity
8
0
100
AcDbCircle
10
174.690169
20
-59.364018999999999
30
0
40
2.0499999999999829
210
0
220
-0
230
1
0
LWPOLYLINE
5
104
100
AcDbEntity
8
0
100
AcDbPolyline
90
8
70
1
43
0.0
10
112.78716900000001
20
-52.570020000000007
10
112.78716900000003
20
-65.57002
42
-0.41421356237314705
10
112.387169
20
-65.970020000000005
10
99.387169000000043
20
-65.970020000000048
42
-0.41421356237309503
10
98.987169000000037
20
-65.57002
10
98.987169000000037
20
-52.57002
42
-0.41421356237321211
10
99.387169000000043
20
-52.170020000000008
10
112.387169
20
-52.170020000000008
42
-0.41421356237314055
0
LWPOLYLINE
5
105
100
AcDbEntity
8
0
100
AcDbPolyline
90
8
70
1
43
0.0
10
131.78717
20
-69.020017999999993
10
131.78717
20
-82.020017999999979
42
-0.41421356237314705
10
131.38717
20
-82.420017999999985
10
118.38717000000001
20
-82.420017999999985
42
-0.41421356237305601
10
117.98717000000002
20
-82.020017999999979
10
117.98717000000002
20
-69.020018000000007
42
-0.41421356237307549
10
118.38717000000001
20
-68.620018000000002
10
131.38717
20
-68.620018000000002
42
-0.41421356237314055
0
LWPOLYLINE
5
106
100
AcDbEntity
8
0
100
AcDbPolyline
90
8
70
1
43
0.0
10
188.78717
20
-82.570018000000033
10
188.78717
20
-95.570018000000005
42
-0.41421356237310802
10
188.38717
20
-95.970017999999996
10
175.38716999999997
20
-95.970018000000024
42
-0.41421356237301699
10
174.98716999999999
20
-95.570018000000005
10
174.98716999999999
20
-82.570018000000033
42
-0.41421356237308204
10
175.38717000000003
20
-82.170018000000027
10
188.38717000000003
20
-82.170017999999999
42
-0.41421356237301699
0
CIRCLE
5
107
100
AcDbEntity
8
0
100
AcDbCircle
10
86.587171999999995
20
-118.070019
30
0
40
2.0500000000000007
210
0
220
-0
230
1
0
CIRCLE
5
108
100
AcDbEntity
8
0
100
AcDbCircle
10
169.48316800000001
20
-106.60801900000001
30
0
40
2.0499999999999829
210
0
220
-0
230
1
0
LWPOLYLINE
5
109
100
AcDbEntity
8
0
100
AcDbPolyline
90
14
70
1
43
0.0
10
150.78717000000006
20
-89.620019999999982
10
150.78717000000003
20
-96.466020000000015
42
-0.41421356237317308
10
150.38716999999997
20
-96.86602000000002
10
137.38717000000003
20
-96.86602000000002
42
-0.41421356237314705
10
136.98716999999999
20
-96.466020000000015
10
136.98716999999999
20
-83.466020000000029
42
-0.41421356237309503
10
137.38717000000003
20
-83.066020000000037
10
150.38716999999997
20
-83.066020000000037
42
-0.41421356237312101
10
150.78717
20
-83.466020000000029
10
150.78717
20
-83.620019999999982
42
0.41421356237309503
10
151.68716999999995
20
-84.520020000000002
10
153.6871689999999
20
-84.520019999999988
42
-0.99999999999999989
10
153.68716900000004
20
-88.720020000000005
10
151.68717000000001
20
-88.720020000000019
42
0.41421356237308343
0
LWPOLYLINE
5
110
100
AcDbEntity
8
0
100
AcDbPolyline
90
8
70
1
43
0.0
10
98.662745286112596
20
-116.49485587540116
10
105.16274528611257
20
-127.75318612459887
42
-0.41421356237316437
10
105.01633512459884
20
-128.29959628611266
10
93.758004875401198
20
-134.7995962861126
42
-0.41421356237312412
10
93.211594713887422
20
-134.65318612459882
10
86.711594713887322
20
-123.39485587540113
42
-0.4142135623731063
10
86.858004875401136
20
-122.84844571388734
10
98.116335124598862
20
-116.3484457138874
42
-0.4142135623731063
0
LWPOLYLINE
5
111
100
AcDbEntity
8
0
100
AcDbPolyline
90
14
70
1
43
0.0
10
150.78716800000001
20
-64.44802
10
150.78716799999998
20
-77.44802
42
-0.41421356237313406
10
150.387168
20
-77.848020000000005
10
137.387168
20
-77.848020000000005
42
-0.414213562373069
10
136.987168
20
-77.44802
10
136.98716799999997
20
-70.57002
42
0.41421356237307771
10
136.08716799999999
20
-69.670020000000008
10
134.63716900000003
20
-69.670020000000008
42
-0.99999999999999989
10
134.63716900000003
20
-65.470019999999991
10
136.08716799999999
20
-65.470020000000005
42
0.41421356237309798
10
136.987168
20
-64.57002
10
136.98716800000003
20
-64.448020000000014
42
-0.41421356237308204
10
137.387168
20
-64.048020000000008
10
150.387168
20
-64.04801999999998
42
-0.41421356237310153
0
LWPOLYLINE
5
112
100
AcDbEntity
8
0
100
AcDbPolyline
90
8
70
1
43
0.0
10
156.37917000000004
20
-89.294019000000006
42
0.41421356237314705
10
155.97917000000001
20
-89.694019000000026
10
155.97917000000001
20
-102.69401899999998
42
0.41421356237314705
10
156.37917000000004
20
-103.094019
10
169.37916999999999
20
-103.094019
42
0.41421356237321211
10
169.77916999999997
20
-102.69401899999998
10
169.77916999999997
20
-89.694019000000026
42
0.41421356237293894
10
169.37916999999999
20
-89.294018999999992
0
LWPOLYLINE
5
113
100
AcDbEntity
8
0
100
AcDbPolyline
90
8
70
1
43
0.0
10
169.78717
20
-51.570023000000013
42
0.41421356237302998
10
169.38717000000003
20
-51.170023
10
156.38717000000003
20
-51.170023
42
0.41421356237319906
10
155.98717000000005
20
-51.570023000000013
10
155.98716999999999
20
-64.570023000000006
42
0.41421356237310802
10
156.38717000000003
20
-64.970023000000026
10
169.38717
20
-64.970023000000026
42
0.41421356237310153
10
169.78717
20
-64.570023000000006
0
LWPOLYLINE
5
114
100
AcDbEntity
8
0
100
AcDbPolyline
90
8
70
1
43
0.0
10
117.99317000000002
20
-63.002018000000007
10
117.99317000000002
20
-50.002018000000007
42
-0.41421356237307549
10
118.39317000000001
20
-49.602018000000008
10
131.39317
20
-49.602017999999987
42
-0.41421356237310153
10
131.79317
20
-50.002018
10
131.79316999999998
20
-63.002018000000007
42
-0.41421356237313406
10
131.39317
20
-63.402017999999998
10
118.39317000000001
20
-63.402018000000027
42
-0.41421356237308854
0
LWPOLYLINE
5
115
100
AcDbEntity
8
0
100
AcDbPolyline
90
20
70
1
43
0.0
10
131.78717
20
-88.03801900000002
10
131.78717
20
-101.03801900000001
42
-0.41421356237305601
10
131.38717
20
-101.438019
10
118.38717000000004
20
-101.438019
42
-0.41421356237305601
10
117.98717000000003
20
-101.03801900000001
10
117.98717000000003
20
-90.809291941519064
42
0.43531083686131189
10
115.73716950000004
20
-88.714655970759594
42
-0.37666795730748298
10
113.52959734244935
20
-87.040018659574457
42
0.35639414224417942
10
110.9821276711962
20
-84.960016999999965
10
99.407169999999994
20
-84.960016999999993
42
-0.41421356237309503
10
99.007170000000002
20
-84.560017000000002
10
99.007169999999988
20
-71.560017000000016
42
-0.41421356237318607
10
99.407169999999994
20
-71.160017000000025
10
112.40717000000001
20
-71.160016999999996
42
-0.41421356237314705
10
112.80717000000001
20
-71.560017000000016
10
112.80716999999997
20
-81.923468034994272
42
0.42547846125808475
10
115.50674391489366
20
-84.52156061138048
42
-0.3505182761228231
10
117.61628665528758
20
-86.079019500000001
42
0.33980053946521954
10
119.64540431057516
20
-87.638019000000043
10
131.38717
20
-87.638019000000043
42
-0.41421356237314705
0
LWPOLYLINE
5
116
100
AcDbEntity
8
0
100
AcDbPolyline
90
4
70
1
43
0.0
10
113.64717000000006
20
-69.660016999999982
10
117.14717000000007
20
-69.660016999999982
10
117.14717000000006
20
-75.460016999999993
10
113.64717000000005
20
-75.460016999999979
0
CIRCLE
5
117
100
AcDbEntity
8
0
100
AcDbCircle
10
134.63716900000003
20
-105.67002000000001
30
0
40
2.1000000000000085
210
0
220
-0
230
1
0
LWPOLYLINE
5
118
100
AcDbEntity
8
0
100
AcDbPolyline
90
8
70
1
43
0.0
10
99.407169999999994
20
-90.178016999999997
42
0.41421356237305601
10
99.007170000000002
20
-90.578017000000003
10
99.007170000000002
20
-103.57801700000002
42
0.41421356237309503
10
99.407169999999994
20
-103.97801700000001
10
112.40717000000001
20
-103.97801700000001
42
0.41421356237314705
10
112.80717000000003
20
-103.57801700000002
10
112.80717000000001
20
-90.578017000000003
42
0.41421356237319906
10
112.40717000000001
20
-90.178016999999997
0
LWPOLYLINE
5
119
100
AcDbEntity
8
0
100
AcDbPolyline
90
8
70
1
43
0.0
10
169.78716899999995
20
-70.644020999999995
10
169.78716900000006
20
-83.644020999999981
42
-0.41421356237301699
10
169.387169
20
-84.044021000000001
10
156.38716900000003
20
-84.044021000000015
42
-0.41421356237314705
10
155.98716900000005
20
-83.644020999999981
10
155.98716900000005
20
-70.644021000000023
42
-0.41421356237315354
10
156.38716900000003
20
-70.244021000000004
10
169.38716900000003
20
-70.244021000000018
42
-0.41421356237308854
0
LWPOLYLINE
5
120
100
AcDbEntity
8
0
100
AcDbPolyline
90
8
70
1
43
0.0
10
188.78716900000001
20
-63.570017999999997
10
188.78716900000001
20
-76.570018000000005
42
-0.41421356237298446
10
188.38716900000003
20
-76.970017999999982
10
175.38716899999997
20
-76.97001800000001
42
-0.41421356237302348
10
174.98716900000002
20
-76.570018000000005
10
174.98716900000005
20
-63.570018000000019
42
-0.41421356237325113
10
175.387169
20
-63.170018000000006
10
188.38716900000006
20
-63.170018000000013
42
-0.41421356237301049
0
LWPOLYLINE
5
121
100
AcDbEntity
8
0
100
AcDbPolyline
90
8
70
1
43
0.0
10
150.78716800000001
20
-45.430017999999997
10
150.78716799999998
20
-58.430017999999997
42
-0.41421356237313406
10
150.387168
20
-58.83001800000001
10
137.38716799999997
20
-58.830018000000031
42
-0.41421356237304952
10
136.987168
20
-58.430017999999997
10
136.987168
20
-45.430017999999997
42
-0.41421356237310153
10
137.387168
20
-45.030018000000013
10
150.38716800000003
20
-45.030017999999984
42
-0.41421356237308854
0
LWPOLYLINE
5
122
100
AcDbEntity
8
0
100
AcDbPolyline
90
24
70
1
43
0.0
10
94.428284450196131
20
-115.79841769775852
10
82.719608682569387
20
-115.79663027006177
42
0.57559500960436638
10
80.894967955245846
20
-118.93675331988676
10
91.086868421555764
20
-136.8128006770369
10
91.089122605644548
20
-136.81758852032738
42
0.41836604470170924
10
93.963249857448901
20
-137.45213611557358
42
-0.079413271906021918
10
119.11363299029979
20
-126.55124225855303
10
119.11668136346448
20
-126.55040588869917
42
-0.062163321458234326
10
189.11940008136906
20
-117.64454937234487
10
189.3914812119877
20
-117.64394299834441
10
189.39447084857704
20
-117.64411081830865
42
0.40903752445375779
10
191.52917025002688
20
-115.61472066657642
10
191.52130978789174
20
-61.292055013562319
10
191.51615741751957
20
-61.275850272454555
42
0.1552902634354576
10
190.05694578540843
20
-59.21511452987388
10
190.05585376337615
20
-59.214231852526744
42
0.18020249896981963
10
145.0192105829951
20
-42.438019999997827
10
141.04371236091856
20
-42.435586221904018
10
141.03817934555676
20
-42.435741416623557
42
0.07892169492687065
10
96.817894847109415
20
-51.771121610280147
10
96.813371888563964
20
-51.773470668982746
42
0.29096605506082834
10
96.32416000037523
20
-52.543033039644833
10
96.328574501150754
20
-71.398707708200391
10
96.328574501150754
20
-113.89841771989788
42
-0.41425827568946461
0
ENDSEC
0
SECTION
2
OBJECTS
0
DICTIONARY
5
C
100
AcDbDictionary
3
ACAD_GROUP
350
D
3
ACAD_MLINESTYLE
350
17
0
DICTIONARY
5
D
100
AcDbDictionary
0
DICTIONARY
5
1A
330
C
100
AcDbDictionary
0
DICTIONARY
5
17
100
AcDbDictionary
0
ENDSEC
0
EOF
