0
SECTION
2
HEADER
9
$INSUNITS
70
4
9
$ACADVER
1
AC1014
9
$HANDSEED
5
FFFF
0
ENDSEC
0
SECTION
2
TABLES
0
TABLE
2
VPORT
5
8
100
AcDbSymbolTable
0
ENDTAB
0
TABLE
2
LTYPE
5
5
100
AcDbSymbolTable
0
LTYPE
5
14
100
AcDbSymbolTableRecord
100
AcDbLinetypeTableRecord
2
BYBLOCK
70
0
0
LTYPE
5
15
100
AcDbSymbolTableRecord
100
AcDbLinetypeTableRecord
2
BYLAYER
70
0
0
ENDTAB
0
TABLE
2
LAYER
5
2
100
AcDbSymbolTable
70
2
0
LAYER
5
50
100
AcDbSymbolTableRecord
100
AcDbLayerTableRecord
2
0
70
0
6
CONTINUOUS
0
ENDTAB
0
TABLE
2
STYLE
5
3
100
AcDbSymbolTable
70
1
0
STYLE
5
11
100
AcDbSymbolTableRecord
100
AcDbTextStyleTableRecord
2
STANDARD
70
0
0
ENDTAB
0
TABLE
2
VIEW
5
6
100
AcDbSymbolTable
70
0
0
ENDTAB
0
TABLE
2
UCS
5
7
100
AcDbSymbolTable
70
0
0
ENDTAB
0
TABLE
2
APPID
5
9
100
AcDbSymbolTable
70
2
0
APPID
5
12
100
AcDbSymbolTableRecord
100
AcDbRegAppTableRecord
2
ACAD
70
0
0
ENDTAB
0
TABLE
2
DIMSTYLE
5
A
100
AcDbSymbolTable
70
1
0
ENDTAB
0
TABLE
2
BLOCK_RECORD
5
1
100
AcDbSymbolTable
70
1
0
BLOCK_RECORD
5
1F
100
AcDbSymbolTableRecord
100
AcDbBlockTableRecord
2
*MODEL_SPACE
0
BLOCK_RECORD
5
1B
100
AcDbSymbolTableRecord
100
AcDbBlockTableRecord
2
*PAPER_SPACE
0
ENDTAB
0
ENDSEC
0
SECTION
2
BLOCKS
0
BLOCK
5
20
100
AcDbEntity
100
AcDbBlockBegin
2
*MODEL_SPACE
0
ENDBLK
5
21
100
AcDbEntity
100
AcDbBlockEnd
0
BLOCK
5
1C
100
AcDbEntity
100
AcDbBlockBegin
2
*PAPER_SPACE
0
ENDBLK
5
1D
100
AcDbEntity
100
AcDbBlockEnd
0
ENDSEC
0
SECTION
2
ENTITIES
0
CIRCLE
5
100
100
AcDbEntity
8
0
100
AcDbCircle
10
-134.63716900000003
20
86.620019999999997
30
0
40
20.950000000000006
210
0
220
0
230
1
0
CIRCLE
5
101
100
AcDbEntity
8
0
100
AcDbCircle
10
-86.587171999999995
20
118.07001900000002
30
0
40
1.0000000000000142
210
0
220
0
230
1
0
CIRCLE
5
102
100
AcDbEntity
8
0
100
AcDbCircle
10
-169.48316800000001
20
106.60801900000001
30
0
40
0.99999999999997868
210
0
220
0
230
1
0
CIRCLE
5
103
100
AcDbEntity
8
0
100
AcDbCircle
10
-114.11117000000002
20
49.45801800000001
30
0
40
0.99999999999999645
210
0
220
0
230
1
0
LINE
5
104
100
AcDbEntity
8
0
100
AcDbLine
10
-189.11940008136892
20
117.64454937234476
30
0
11
-189.39148121198772
21
117.64394299834439
31
0
0
LINE
5
105
100
AcDbEntity
8
0
100
AcDbLine
10
-189.39148121198772
20
117.64394299834439
30
0
11
-189.39447084857676
21
117.64411081830863
31
0
0
ARC
5
106
100
AcDbEntity
8
0
100
AcDbCircle
10
-189.42899999999997
20
115.54299999999998
30
0
40
2.1013945210530216
210
0
220
-0
230
1
100
AcDbArc
50
89.058499647205892
51
178.0441132461979
0
LINE
5
107
100
AcDbEntity
8
0
100
AcDbLine
10
-191.52917025002671
20
115.61472066657721
30
0
11
-191.52130978789174
21
61.292055013562489
31
0
0
LINE
5
108
100
AcDbEntity
8
0
100
AcDbLine
10
-191.52130978789174
20
61.292055013562489
30
0
11
-191.51615741751954
21
61.275850272454633
31
0
0
ARC
5
109
100
AcDbEntity
8
0
100
AcDbCircle
10
-187.54900000000009
20
62.537999999999926
30
0
40
4.1630949917245648
210
0
220
0
230
1
100
AcDbArc
50
197.64845032991838
51
232.95634216743227
0
LINE
5
110
100
AcDbEntity
8
0
100
AcDbLine
10
-190.05694578539715
20
59.215114529865374
30
0
11
-190.05585376336026
21
59.214231852512967
31
0
0
ARC
5
111
100
AcDbEntity
8
0
100
AcDbCircle
10
-145.0192000000001
20
111.27779999999981
30
0
40
68.839780000002833
210
0
220
0
230
1
100
AcDbArc
50
229.13914502017502
51
269.99999119154222
0
LINE
5
112
100
AcDbEntity
8
0
100
AcDbLine
10
-145.01921058319314
20
42.438019999997785
30
0
11
-141.04371236091848
21
42.435586221904018
31
0
0
LINE
5
113
100
AcDbEntity
8
0
100
AcDbLine
10
-141.04371236091848
20
42.435586221904018
30
0
11
-141.03817934555661
21
42.435741416623586
31
0
0
ARC
5
114
100
AcDbEntity
8
0
100
AcDbCircle
10
-148.31550000000016
20
186.30740000000102
30
0
40
144.0555918367611
210
-0
220
0
230
1
100
AcDbArc
50
272.89566899880572
51
290.94577533313469
0
LINE
5
115
100
AcDbEntity
8
0
100
AcDbLine
10
-96.81789484710913
20
51.771121610280261
30
0
11
-96.81337188856773
21
51.773470668980991
31
0
0
ARC
5
116
100
AcDbEntity
8
0
100
AcDbCircle
10
-97.174000000000035
20
52.543000000000006
30
0
40
0.8498400002669958
210
-0
220
0
230
1
100
AcDbArc
50
-64.890583671094006
51
0.0022275158957242667
0
LINE
5
117
100
AcDbEntity
8
0
100
AcDbLine
10
-96.324160000375286
20
52.543033039644826
30
0
11
-96.328574503891389
21
71.398719414206866
31
0
0
ARC
5
118
100
AcDbEntity
8
0
100
AcDbCircle
10
-95.429000000000016
20
71.399000000000001
30
0
40
0.89957004807100605
210
0
220
-0
230
1
100
AcDbArc
50
89.964166409588074
51
180.01787109475484
0
LINE
5
119
100
AcDbEntity
8
0
100
AcDbLine
10
-95.428437396212757
20
72.298569872140817
30
0
11
-78.725330259942169
21
72.296170064006006
31
0
0
ARC
5
120
100
AcDbEntity
8
0
100
AcDbCircle
10
-78.724999999999966
20
73.145999999999972
30
0
40
0.84983000016659438
210
0
220
0
230
1
100
AcDbArc
50
269.97773378051727
51
359.99960959011969
0
LINE
5
121
100
AcDbEntity
8
0
100
AcDbLine
10
-77.8751699998531
20
73.145994209297825
30
0
11
-77.863263842551632
21
109.31838413338076
31
0
0
ARC
5
122
100
AcDbEntity
8
0
100
AcDbCircle
10
-94.781000000000148
20
109.18799999999999
30
0
40
16.918238581935128
210
0
220
-0
230
1
100
AcDbArc
50
0.44156692042673606
51
26.476839003279391
0
LINE
5
123
100
AcDbEntity
8
0
100
AcDbLine
10
-79.637236665526544
20
116.73076002433666
30
0
11
-91.086868421555764
21
136.8128006770369
31
0
0
LINE
5
124
100
AcDbEntity
8
0
100
AcDbLine
10
-91.086868421555764
20
136.8128006770369
30
0
11
-91.089122605644519
21
136.81758852032732
31
0
0
ARC
5
125
100
AcDbEntity
8
0
100
AcDbCircle
10
-92.839000000000013
20
135.71799999999999
30
0
40
2.0666799000600085
210
0
220
-0
230
1
100
AcDbArc
50
32.14444585931394
51
122.95556035854476
0
ARC
5
126
100
AcDbEntity
8
0
100
AcDbCircle
10
-140.63900000000052
20
210.67800000000133
30
0
40
86.836932194721385
210
-0
220
0
230
1
100
AcDbArc
50
284.35225235199647
51
302.5143181242621
0
LINE
5
127
100
AcDbEntity
8
0
100
AcDbLine
10
-119.11363299030766
20
126.55124225855106
30
0
11
-119.11668136346314
21
126.5504058886994
31
0
0
ARC
5
128
100
AcDbEntity
8
0
100
AcDbCircle
10
-189.79600000000084
20
402.53700000000731
30
0
40
284.89325406559749
210
-0
220
0
230
1
100
AcDbArc
50
270.13607326830464
51
284.36454835961752
0
CIRCLE
5
129
100
AcDbEntity
8
0
100
AcDbCircle
10
-174.690169
20
59.364018999999999
30
0
40
0.99999999999997868
210
0
220
0
230
1
0
ENDSEC
0
SECTION
2
OBJECTS
0
DICTIONARY
5
C
100
AcDbDictionary
3
ACAD_GROUP
350
D
3
ACAD_MLINESTYLE
350
17
0
DICTIONARY
5
D
100
AcDbDictionary
0
DICTIONARY
5
1A
330
C
100
AcDbDictionary
0
DICTIONARY
5
17
100
AcDbDictionary
0
ENDSEC
0
EOF
