0
SECTION
2
HEADER
9
$INSUNITS
70
4
9
$ACADVER
1
AC1014
9
$HANDSEED
5
FFFF
0
ENDSEC
0
SECTION
2
TABLES
0
TABLE
2
VPORT
5
8
100
AcDbSymbolTable
0
ENDTAB
0
TABLE
2
LTYPE
5
5
100
AcDbSymbolTable
0
LTYPE
5
14
100
AcDbSymbolTableRecord
100
AcDbLinetypeTableRecord
2
BYBLOCK
70
0
0
LTYPE
5
15
100
AcDbSymbolTableRecord
100
AcDbLinetypeTableRecord
2
BYLAYER
70
0
0
ENDTAB
0
TABLE
2
LAYER
5
2
100
AcDbSymbolTable
70
2
0
LAYER
5
50
100
AcDbSymbolTableRecord
100
AcDbLayerTableRecord
2
0
70
0
6
CONTINUOUS
0
ENDTAB
0
TABLE
2
STYLE
5
3
100
AcDbSymbolTable
70
1
0
STYLE
5
11
100
AcDbSymbolTableRecord
100
AcDbTextStyleTableRecord
2
STANDARD
70
0
0
ENDTAB
0
TABLE
2
VIEW
5
6
100
AcDbSymbolTable
70
0
0
ENDTAB
0
TABLE
2
UCS
5
7
100
AcDbSymbolTable
70
0
0
ENDTAB
0
TABLE
2
APPID
5
9
100
AcDbSymbolTable
70
2
0
APPID
5
12
100
AcDbSymbolTableRecord
100
AcDbRegAppTableRecord
2
ACAD
70
0
0
ENDTAB
0
TABLE
2
DIMSTYLE
5
A
100
AcDbSymbolTable
70
1
0
ENDTAB
0
TABLE
2
BLOCK_RECORD
5
1
100
AcDbSymbolTable
70
1
0
BLOCK_RECORD
5
1F
100
AcDbSymbolTableRecord
100
AcDbBlockTableRecord
2
*MODEL_SPACE
0
BLOCK_RECORD
5
1B
100
AcDbSymbolTableRecord
100
AcDbBlockTableRecord
2
*PAPER_SPACE
0
ENDTAB
0
ENDSEC
0
SECTION
2
BLOCKS
0
BLOCK
5
20
100
AcDbEntity
100
AcDbBlockBegin
2
*MODEL_SPACE
0
ENDBLK
5
21
100
AcDbEntity
100
AcDbBlockEnd
0
BLOCK
5
1C
100
AcDbEntity
100
AcDbBlockBegin
2
*PAPER_SPACE
0
ENDBLK
5
1D
100
AcDbEntity
100
AcDbBlockEnd
0
ENDSEC
0
SECTION
2
ENTITIES
0
LWPOLYLINE
5
100
100
AcDbEntity
8
0
100
AcDbPolyline
90
8
70
1
43
0.0
10
112.80717000000001
20
-90.578017000000017
42
0.41421356237314705
10
112.40717000000001
20
-90.178017000000011
10
99.407169999999994
20
-90.178017000000011
42
0.41421356237316009
10
99.007170000000002
20
-90.578017000000017
10
99.007170000000002
20
-103.57801700000002
42
0.41421356237309503
10
99.407169999999994
20
-103.97801700000001
10
112.40717000000001
20
-103.97801700000001
42
0.41421356237310802
10
112.80717000000001
20
-103.57801700000002
0
CIRCLE
5
101
100
AcDbEntity
8
0
100
AcDbCircle
10
169.48316800000001
20
-106.60801900000001
30
0
40
0.99999999999997868
210
0
220
0
230
1
0
LWPOLYLINE
5
102
100
AcDbEntity
8
0
100
AcDbPolyline
90
8
70
1
43
0.0
10
136.98716800000003
20
-58.430018000000004
42
0.41421356237308204
10
137.387168
20
-58.830018000000017
10
150.387168
20
-58.830018000000017
42
0.41421356237308854
10
150.78716799999998
20
-58.430018000000004
10
150.78716800000001
20
-45.430017999999997
42
0.41421356237310153
10
150.38716800000003
20
-45.030017999999984
10
137.38716799999997
20
-45.030017999999998
42
0.41421356237304952
10
136.98716800000011
20
-45.430017999999997
0
CIRCLE
5
103
100
AcDbEntity
8
0
100
AcDbCircle
10
174.690169
20
-59.364018999999999
30
0
40
0.99999999999997868
210
0
220
0
230
1
0
LWPOLYLINE
5
104
100
AcDbEntity
8
0
100
AcDbPolyline
90
8
70
1
43
0.0
10
155.97916999999998
20
-102.694019
42
0.41421356237304302
10
156.37916999999999
20
-103.094019
10
169.37917000000002
20
-103.09401899999999
42
0.41421356237313406
10
169.77917000000002
20
-102.694019
10
169.77916999999997
20
-89.694019000000054
42
0.41421356237291296
10
169.37916999999999
20
-89.294019000000006
10
156.37917000000002
20
-89.294019000000006
42
0.41421356237304302
10
155.97916999999998
20
-89.694019000000026
0
LWPOLYLINE
5
105
100
AcDbEntity
8
0
100
AcDbPolyline
90
8
70
1
43
0.0
10
131.78717
20
-69.020017999999993
42
0.41421356237311452
10
131.38717
20
-68.620018000000002
10
118.38717000000001
20
-68.620018000000002
42
0.41421356237304302
10
117.98716999999999
20
-69.020018000000007
10
117.98716999999999
20
-82.020017999999979
42
0.41421356237310802
10
118.38717000000001
20
-82.420017999999985
10
131.38717
20
-82.420017999999985
42
0.41421356237314705
10
131.78717
20
-82.020017999999979
0
LWPOLYLINE
5
106
100
AcDbEntity
8
0
100
AcDbPolyline
90
8
70
1
43
0.0
10
174.98717000000002
20
-95.570018000000005
42
0.41421356237310802
10
175.38716999999997
20
-95.970017999999982
10
188.38717
20
-95.97001800000001
42
0.41421356237305601
10
188.78717
20
-95.570018000000005
10
188.78716999999997
20
-82.570018000000033
42
0.41421356237317308
10
188.38717
20
-82.17001800000007
10
175.38716999999997
20
-82.170018000000042
42
0.41421356237305601
10
174.98716999999999
20
-82.570018000000033
0
LWPOLYLINE
5
107
100
AcDbEntity
8
0
100
AcDbPolyline
90
8
70
1
43
0.0
10
155.98716900000002
20
-83.644020999999995
42
0.41421356237312101
10
156.387169
20
-84.044021000000015
10
169.387169
20
-84.044021000000043
42
0.41421356237317308
10
169.78716899999998
20
-83.644020999999995
10
169.78716899999998
20
-70.644020999999981
42
0.41421356237317308
10
169.387169
20
-70.244021000000032
10
156.38716899999997
20
-70.244021000000004
42
0.41421356237305601
10
155.98716899999999
20
-70.644021000000023
0
LWPOLYLINE
5
108
100
AcDbEntity
8
0
100
AcDbPolyline
90
14
70
1
43
0.0
10
136.98716800000003
20
-77.44802
42
0.41421356237308854
10
137.38716799999997
20
-77.848020000000034
10
150.38716800000003
20
-77.84802000000002
42
0.41421356237305601
10
150.78716800000001
20
-77.44802
10
150.78716800000001
20
-64.44802
42
0.41421356237308204
10
150.387168
20
-64.048019999999994
10
137.387168
20
-64.048020000000008
42
0.414213562373069
10
136.98716800000003
20
-64.448020000000014
10
136.98716800000003
20
-64.570020000000014
42
-0.41421356237307771
10
136.08716799999999
20
-65.470020000000005
10
134.63716900000003
20
-65.470020000000005
42
0.99999999999999989
10
134.63716900000006
20
-69.670020000000008
10
136.08716799999999
20
-69.670019999999994
42
-0.41421356237309798
10
136.98716800000003
20
-70.57002
0
LWPOLYLINE
5
109
100
AcDbEntity
8
0
100
AcDbPolyline
90
24
70
1
43
0.0
10
177.98716899999991
20
-78.320017999999976
42
0.41421356237312756
10
178.38716899999991
20
-78.720017999999939
10
185.38716899999997
20
-78.720017999999968
42
0.41421356237305601
10
185.78716899999995
20
-78.320017999999962
10
185.78716900000003
20
-77.57001799999999
42
-0.41421356237302998
10
186.38716899999997
20
-76.97001800000001
10
188.38716900000003
20
-76.970017999999982
42
0.41421356237317308
10
188.78716900000003
20
-76.570018000000005
10
188.78716900000001
20
-63.570018000000026
42
0.41421356237301049
10
188.38716900000003
20
-63.170018000000013
10
186.38716900000006
20
-63.17001800000007
42
-0.41421356237302998
10
185.78716900000003
20
-62.57001800000004
10
185.78716900000001
20
-61.820017999999955
42
0.41421356237312756
10
185.387169
20
-61.420017999999963
10
178.38716899999994
20
-61.420017999999963
42
0.41421356237305601
10
177.98716899999994
20
-61.820017999999976
10
177.98716899999991
20
-62.570018000000019
42
-0.41421356237302998
10
177.38716899999991
20
-63.170018000000006
10
175.387169
20
-63.170017999999992
42
0.41421356237311452
10
174.98716900000002
20
-63.570018000000005
10
174.98716900000002
20
-76.570018000000019
42
0.41421356237314055
10
175.387169
20
-76.970017999999996
10
177.38716899999989
20
-76.97001800000001
42
-0.41421356237307771
10
177.98716899999991
20
-77.570018000000005
0
CIRCLE
5
110
100
AcDbEntity
8
0
100
AcDbCircle
10
114.11117000000002
20
-49.458018000000017
30
0
40
0.99999999999999645
210
0
220
0
230
1
0
LWPOLYLINE
5
111
100
AcDbEntity
8
0
100
AcDbPolyline
90
8
70
1
43
0.0
10
98.662745286112624
20
-116.49485587540121
42
0.41421356237300144
10
98.116335124598862
20
-116.34844571388734
10
86.858004875401122
20
-122.84844571388734
42
0.41421356237309503
10
86.711594713887351
20
-123.39485587540111
10
93.21159471388745
20
-134.65318612459879
42
0.41421356237304829
10
93.758004875401198
20
-134.79959628611255
10
105.01633512459878
20
-128.29959628611266
42
0.41421356237309503
10
105.16274528611255
20
-127.75318612459891
0
CIRCLE
5
112
100
AcDbEntity
8
0
100
AcDbCircle
10
134.63716900000003
20
-105.67002000000001
30
0
40
2.1000000000000085
210
0
220
0
230
1
0
CIRCLE
5
113
100
AcDbEntity
8
0
100
AcDbCircle
10
86.587171999999995
20
-118.070019
30
0
40
0.99999999999999645
210
0
220
0
230
1
0
LWPOLYLINE
5
114
100
AcDbEntity
8
0
100
AcDbPolyline
90
14
70
1
43
0.0
10
150.78717
20
-83.466020000000029
42
0.41421356237304302
10
150.38717
20
-83.066020000000009
10
137.38717000000003
20
-83.066020000000009
42
0.41421356237310802
10
136.98716999999999
20
-83.466020000000029
10
136.98716999999999
20
-96.466020000000015
42
0.41421356237316009
10
137.38717000000003
20
-96.866020000000006
10
150.38717
20
-96.86602000000002
42
0.41421356237310802
10
150.78717
20
-96.466020000000015
10
150.78717000000003
20
-89.620019999999997
42
-0.41421356237310081
10
151.68717000000001
20
-88.720020000000005
10
153.68716899999995
20
-88.720020000000005
42
0.99999999999999989
10
153.68716899999998
20
-84.520019999999988
10
151.68717000000001
20
-84.520020000000017
42
-0.41421356237308343
10
150.78717
20
-83.620019999999982
0
LWPOLYLINE
5
115
100
AcDbEntity
8
0
100
AcDbPolyline
90
8
70
1
43
0.0
10
117.99317000000001
20
-63.002018000000007
42
0.41421356237311452
10
118.39317000000001
20
-63.402018000000012
10
131.39317000000003
20
-63.402018000000012
42
0.41421356237307555
10
131.79317
20
-63.002018000000007
10
131.79317
20
-50.002018000000007
42
0.41421356237304302
10
131.39317000000003
20
-49.602017999999987
10
118.39317000000001
20
-49.602018000000001
42
0.41421356237315354
10
117.99317000000002
20
-50.002018000000007
0
LWPOLYLINE
5
116
100
AcDbEntity
8
0
100
AcDbPolyline
90
8
70
1
43
0.0
10
155.98716999999999
20
-64.57002300000002
42
0.41421356237308204
10
156.38717
20
-64.970023000000026
10
169.38717
20
-64.970023000000012
42
0.41421356237307555
10
169.78717000000012
20
-64.570023000000006
10
169.78717
20
-51.570023000000006
42
0.41421356237317308
10
169.38717
20
-51.170023000000043
10
156.38717
20
-51.170023000000022
42
0.41421356237316659
10
155.98716999999999
20
-51.570023000000013
0
LWPOLYLINE
5
117
100
AcDbEntity
8
0
100
AcDbPolyline
90
8
70
1
43
0.0
10
98.987169000000051
20
-65.57002
42
0.41421356237304302
10
99.387169000000029
20
-65.970020000000019
10
112.387169
20
-65.970020000000019
42
0.41421356237315354
10
112.78716899999999
20
-65.57002
10
112.78716900000001
20
-52.570020000000007
42
0.41421356237310153
10
112.387169
20
-52.170019999999994
10
99.387169000000043
20
-52.170019999999994
42
0.41421356237309503
10
98.98716900000008
20
-52.57002
0
LWPOLYLINE
5
118
100
AcDbEntity
8
0
100
AcDbPolyline
90
20
70
1
43
0.0
10
112.80717000000001
20
-71.560017000000002
42
0.41421356237314055
10
112.40717000000001
20
-71.160016999999996
10
99.407169999999979
20
-71.160017000000011
42
0.41421356237308854
10
99.007170000000002
20
-71.560017000000016
10
99.007169999999988
20
-84.560017000000002
42
0.41421356237310802
10
99.407169999999994
20
-84.960016999999993
10
110.9821276711962
20
-84.960016999999965
42
-0.3563941422441812
10
113.52959734244934
20
-87.040018659574486
42
0.3766679573075003
10
115.73716950000005
20
-88.714655970759537
42
-0.43531083686131733
10
117.98716999999999
20
-90.809291941519064
10
117.98717000000002
20
-101.03801900000001
42
0.41421356237314705
10
118.38717000000001
20
-101.43801900000001
10
131.38717000000003
20
-101.438019
42
0.41421356237318607
10
131.78717
20
-101.03801900000001
10
131.78717
20
-88.03801900000002
42
0.41421356237310802
10
131.38717
20
-87.638019000000028
10
119.64540431057522
20
-87.638019000000028
42
-0.3398005394652282
10
117.61628665528761
20
-86.079019499999987
42
0.35051827612280645
10
115.50674391489366
20
-84.521560611380394
42
-0.42547846125807465
10
112.80717000000001
20
-81.923468034994272
0
LWPOLYLINE
5
119
100
AcDbEntity
8
0
100
AcDbPolyline
90
70
70
1
43
0.0
10
123.67953928208634
20
-122.34058340822818
10
121.74768762950831
20
-122.8582214984332
42
0.41421356237306767
10
121.32342356079633
20
-123.59306842126816
10
121.77519566731711
20
-125.27910487624584
42
0.40740020840317254
10
122.49648743435384
20
-125.70683217050316
42
-0.04878940980135963
10
177.4132487177767
20
-117.91297838066529
42
0.40153566528014323
10
177.98716999999982
20
-117.3135453981902
10
177.98716999999996
20
-115.57001700000001
42
0.41421356237312101
10
177.38716999999991
20
-114.97001699999997
10
175.38717000000003
20
-114.970017
42
-0.41421356237314705
10
174.98717000000002
20
-114.57001700000001
10
174.98717000000002
20
-101.57001700000002
42
-0.41421356237321211
10
175.38717000000003
20
-101.17001700000002
10
177.38716999999994
20
-101.17001700000002
42
0.41421356237310375
10
177.98716999999994
20
-100.57001700000001
10
177.98716999999996
20
-99.82001699999995
42
-0.41421356237314705
10
178.38716999999997
20
-99.42001699999993
10
185.38716999999997
20
-99.420016999999916
42
-0.41421356237305601
10
185.78716999999997
20
-99.820016999999922
10
185.78716999999997
20
-100.57001700000001
42
0.41421356237312101
10
186.38717000000003
20
-101.17001700000004
10
188.38717
20
-101.17001700000002
42
-0.41421356237314705
10
188.78716999999997
20
-101.57001700000001
10
188.78716999999997
20
-114.57001699999999
42
-0.41421356237321211
10
188.38717
20
-114.970017
10
186.38717
20
-114.970017
42
0.41421356237310375
10
185.78717
20
-115.57001700000001
10
185.78716999999997
20
-117.06409761697057
42
0.41771517214545278
10
186.3943340852073
20
-117.66405484534864
42
-0.0023913793576208239
10
189.11940008136895
20
-117.64454937234476
10
189.39148121198727
20
-117.64394299834436
10
189.39447084857616
20
-117.64411081830863
42
0.40903752445377983
10
191.52917025002677
20
-115.61472066657703
10
191.52130978789174
20
-61.292055013561239
10
191.51615741751914
20
-61.275850272453454
42
0.15529026343653207
10
190.05694578539379
20
-59.215114529862873
10
190.05585376336279
20
-59.214231852515198
42
0.18020249896908411
10
145.01921058317353
20
-42.438019999997806
10
141.04371236091905
20
-42.435586221904025
10
141.03817934555639
20
-42.435741416623557
42
0.078921694926871094
10
96.817894847108619
20
-51.771121610280417
10
96.813371888562983
20
-51.773470668983201
42
0.29096605506047141
10
96.324160000375286
20
-52.543033039644826
10
96.328574501150769
20
-71.398707708200376
10
96.328574501150754
20
-113.89841771989791
42
-0.4142582756894756
10
94.428284450196131
20
-115.79841769775851
10
82.719608682569387
20
-115.79663027006174
42
0.57559500960435594
10
80.894967955245832
20
-118.93675331988672
10
91.086868421555806
20
-136.81280067703705
10
91.089122605644604
20
-136.81758852032746
42
0.41836604468300093
10
93.963249857337956
20
-137.45213611564441
42
-0.063581962904729492
10
113.85969958527392
20
-128.07338837154282
42
0.39915178356257036
10
114.25422343791192
20
-127.34734017401016
10
113.78920211574162
20
-125.61185697306786
42
0.41421356237308665
10
113.05435519290666
20
-125.18759290435591
10
111.12250354032845
20
-125.70523099456096
42
-0.41421356237312018
10
110.63260559177182
20
-125.42238828208636
10
107.26795800543913
20
-112.86535254032844
42
-0.41421356237316459
10
107.55080071791369
20
-112.37545459177183
10
109.48265237049182
20
-111.85781650156677
42
0.41421356237306767
10
109.90691643920374
20
-111.12296957873184
10
109.71280215537689
20
-110.39852520901508
42
-0.4142135623730791
10
109.99564486785148
20
-109.90862726045845
10
116.75712565187493
20
-108.09689394474078
42
-0.4142135623730791
10
117.24702360043156
20
-108.37973665721537
10
117.44113788425844
20
-109.10418102693212
42
0.41421356237306767
10
118.17598480709341
20
-109.52844509564406
10
120.10783645967155
20
-109.01080700543902
42
-0.41421356237310758
10
120.59773440822816
20
-109.29364971791365
10
123.962381994561
20
-121.85068545967157
42
-0.41421356237306656
0
ENDSEC
0
SECTION
2
OBJECTS
0
DICTIONARY
5
C
100
AcDbDictionary
3
ACAD_GROUP
350
D
3
ACAD_MLINESTYLE
350
17
0
DICTIONARY
5
D
100
AcDbDictionary
0
DICTIONARY
5
1A
330
C
100
AcDbDictionary
0
DICTIONARY
5
17
100
AcDbDictionary
0
ENDSEC
0
EOF
