0
SECTION
2
HEADER
9
$INSUNITS
70
4
9
$ACADVER
1
AC1014
9
$HANDSEED
5
FFFF
0
ENDSEC
0
SECTION
2
TABLES
0
TABLE
2
VPORT
5
8
100
AcDbSymbolTable
0
ENDTAB
0
TABLE
2
LTYPE
5
5
100
AcDbSymbolTable
0
LTYPE
5
14
100
AcDbSymbolTableRecord
100
AcDbLinetypeTableRecord
2
BYBLOCK
70
0
0
LTYPE
5
15
100
AcDbSymbolTableRecord
100
AcDbLinetypeTableRecord
2
BYLAYER
70
0
0
ENDTAB
0
TABLE
2
LAYER
5
2
100
AcDbSymbolTable
70
2
0
LAYER
5
50
100
AcDbSymbolTableRecord
100
AcDbLayerTableRecord
2
0
70
0
6
CONTINUOUS
0
ENDTAB
0
TABLE
2
STYLE
5
3
100
AcDbSymbolTable
70
1
0
STYLE
5
11
100
AcDbSymbolTableRecord
100
AcDbTextStyleTableRecord
2
STANDARD
70
0
0
ENDTAB
0
TABLE
2
VIEW
5
6
100
AcDbSymbolTable
70
0
0
ENDTAB
0
TABLE
2
UCS
5
7
100
AcDbSymbolTable
70
0
0
ENDTAB
0
TABLE
2
APPID
5
9
100
AcDbSymbolTable
70
2
0
APPID
5
12
100
AcDbSymbolTableRecord
100
AcDbRegAppTableRecord
2
ACAD
70
0
0
ENDTAB
0
TABLE
2
DIMSTYLE
5
A
100
AcDbSymbolTable
70
1
0
ENDTAB
0
TABLE
2
BLOCK_RECORD
5
1
100
AcDbSymbolTable
70
1
0
BLOCK_RECORD
5
1F
100
AcDbSymbolTableRecord
100
AcDbBlockTableRecord
2
*MODEL_SPACE
0
BLOCK_RECORD
5
1B
100
AcDbSymbolTableRecord
100
AcDbBlockTableRecord
2
*PAPER_SPACE
0
ENDTAB
0
ENDSEC
0
SECTION
2
BLOCKS
0
BLOCK
5
20
100
AcDbEntity
100
AcDbBlockBegin
2
*MODEL_SPACE
0
ENDBLK
5
21
100
AcDbEntity
100
AcDbBlockEnd
0
BLOCK
5
1C
100
AcDbEntity
100
AcDbBlockBegin
2
*PAPER_SPACE
0
ENDBLK
5
1D
100
AcDbEntity
100
AcDbBlockEnd
0
ENDSEC
0
SECTION
2
ENTITIES
0
LWPOLYLINE
5
100
100
AcDbEntity
8
0
100
AcDbPolyline
90
70
70
1
43
0.0
10
121.87178824994602
20
-125.2532229717356
42
0.40740020840316787
10
122.47286472247644
20
-125.60966238361674
42
-0.048789409801360629
10
177.40890226481406
20
-117.81307288358612
42
0.40153566528006768
10
177.88716999999994
20
-117.3135453981902
10
177.88716999999994
20
-115.57001700000001
42
0.41421356237310542
10
177.38716999999994
20
-115.07001699999998
10
175.38717000000005
20
-115.07001700000002
42
-0.41421356237314705
10
174.88717000000003
20
-114.57001699999999
10
174.88717000000003
20
-101.57001700000002
42
-0.41421356237314705
10
175.38717000000003
20
-101.07001700000001
10
177.38716999999994
20
-101.07001700000001
42
0.41421356237310542
10
177.88716999999991
20
-100.57001700000001
10
177.88716999999994
20
-99.82001699999995
42
-0.41421356237309503
10
178.38716999999997
20
-99.320016999999936
10
185.38716999999997
20
-99.320016999999922
42
-0.41421356237309503
10
185.88717
20
-99.820016999999922
10
185.88717
20
-100.57001700000001
42
0.41421356237310542
10
186.38717
20
-101.07001700000004
10
188.38716999999997
20
-101.07001699999999
42
-0.41421356237314705
10
188.88717
20
-101.57001700000002
10
188.88717
20
-114.57001699999999
42
-0.41421356237314705
10
188.38717
20
-115.07001700000001
10
186.38717
20
-115.07001700000001
42
0.41421356237310542
10
185.88717000000003
20
-115.57001700000001
10
185.88717
20
-117.06409761697057
42
0.41771517214747494
10
186.39314007101115
20
-117.56406197395231
42
-0.0023913857746837648
10
189.11916990414025
20
-117.54454963698547
10
189.39417435126393
20
-117.54393674793161
10
189.39807199881901
20
-117.54415553809392
42
0.40850517658315977
10
191.42917000000034
20
-115.61300000000001
10
191.42131203288503
20
-61.307577114899203
10
191.42086129997989
20
-61.306159512997844
42
0.15539383168627982
10
189.99538439897719
20
-59.29393707148882
10
189.99169314419959
20
-59.290953443936104
42
0.18020887864694443
10
145.01918000000006
20
-42.538019999999932
10
141.04508392387061
20
-42.535587080306392
10
141.04210780131399
20
-42.535670557122529
42
0.078909808522869329
10
96.858945517426619
20
-51.862484060966324
10
96.857596459040252
20
-51.86318471238981
42
0.29167721542195718
10
96.424159999999745
20
-52.543019999999999
10
96.428574501150763
20
-71.398696002152946
10
96.428574501150749
20
-113.89841771989791
42
-0.41425827568947532
10
94.428269184356409
20
-115.89841769659328
10
82.719593416729666
20
-115.89663026889652
42
0.57559500960435817
10
80.981840343088209
20
-118.8872236496822
10
91.175677138642953
20
-136.76666722458339
10
91.176984280160809
20
-136.76944356781871
42
0.41752948754485236
10
93.909169999999747
20
-137.36801999999994
42
-0.063583088777469848
10
113.82886097808466
20
-127.97826224313096
42
0.39915178356257175
10
114.15763085528297
20
-127.3732220785204
10
113.6926095331127
20
-125.63773887757812
42
0.41421356237308499
10
113.0802370974169
20
-125.28418548698482
10
111.14838544483871
20
-125.80182357718989
42
-0.41421356237312523
10
110.53601300914292
20
-125.4482701865966
10
107.17136542281023
20
-112.8912344448387
42
-0.41421356237310508
10
107.52491881340342
20
-112.27886200914291
10
109.45677046598156
20
-111.76122391893786
42
0.41421356237306955
10
109.81032385657485
20
-111.14885148324207
10
109.61620957274796
20
-110.42440711352533
42
-0.41421356237309503
10
109.96976296334124
20
-109.81203467782953
10
116.73124374736467
20
-108.00030136211186
42
-0.41421356237309503
10
117.34361618306048
20
-108.35385475270513
10
117.53773046688735
20
-109.07829912242187
42
0.41421356237306217
10
118.15010290258316
20
-109.43185251301514
10
120.0819545551613
20
-108.91421442281012
42
-0.41421356237312523
10
120.69432699085708
20
-109.26776781340342
10
124.05897457718991
20
-121.82480355516132
42
-0.41421356237305218
10
123.70542118659658
20
-122.4371759908571
10
121.77356953401855
20
-122.95481408106211
42
0.41421356237307494
10
121.42001614342526
20
-123.56718651675793
0
LWPOLYLINE
5
101
100
AcDbEntity
8
0
100
AcDbPolyline
90
8
70
1
43
0.0
10
99.407169999999994
20
-90.078017000000017
42
0.41421356237314705
10
98.907170000000008
20
-90.578017000000017
10
98.907170000000008
20
-103.57801700000002
42
0.4142135623730534
10
99.407169999999994
20
-104.078017
10
112.40717000000001
20
-104.078017
42
0.41421356237310542
10
112.90717000000001
20
-103.57801700000002
10
112.90717000000001
20
-90.578017000000017
42
0.41421356237309503
10
112.40717000000001
20
-90.078017000000017
0
LWPOLYLINE
5
102
100
AcDbEntity
8
0
100
AcDbPolyline
90
8
70
1
43
0.0
10
155.88716900000003
20
-83.644020999999995
10
155.88716900000003
20
-70.644021000000023
42
-0.41421356237307422
10
156.38716899999997
20
-70.144021000000009
10
169.387169
20
-70.144021000000009
42
-0.41421356237316265
10
169.887169
20
-70.644020999999995
10
169.887169
20
-83.644020999999995
42
-0.41421356237312623
10
169.387169
20
-84.144021000000038
10
156.387169
20
-84.144021000000023
42
-0.41421356237309503
0
LWPOLYLINE
5
103
100
AcDbEntity
8
0
100
AcDbPolyline
90
8
70
1
43
0.0
10
188.88717
20
-82.570018000000033
10
188.88717
20
-95.570018000000005
42
-0.41421356237309503
10
188.38717
20
-96.070018000000005
10
175.38717000000003
20
-96.070018000000005
42
-0.41421356237309503
10
174.88717000000003
20
-95.570018000000005
10
174.88717000000003
20
-82.570018000000033
42
-0.41421356237310542
10
175.38716999999997
20
-82.070018000000033
10
188.38717
20
-82.070018000000061
42
-0.41421356237315748
0
LWPOLYLINE
5
104
100
AcDbEntity
8
0
100
AcDbPolyline
90
14
70
1
43
0.0
10
150.38717
20
-96.966020000000015
10
137.38717000000003
20
-96.96602
42
-0.41421356237314705
10
136.88717
20
-96.466020000000015
10
136.88717
20
-83.466020000000029
42
-0.41421356237307422
10
137.38717000000003
20
-82.966020000000015
10
150.38717
20
-82.966020000000015
42
-0.4142135623730534
10
150.88717
20
-83.466020000000029
10
150.88717
20
-83.620019999999982
42
0.41421356237308204
10
151.68717000000001
20
-84.420020000000022
10
153.68716899999998
20
-84.420019999999994
42
-0.99999999999999989
10
153.68716899999995
20
-88.82002
10
151.68717000000001
20
-88.82002
42
0.41421356237310153
10
150.88717000000003
20
-89.620019999999997
10
150.88717
20
-96.466020000000015
42
-0.41421356237307422
0
CIRCLE
5
105
100
AcDbEntity
8
0
100
AcDbCircle
10
134.63716900000003
20
-105.67002000000001
30
0
40
2.2000000000000064
210
0
220
-0
230
1
0
CIRCLE
5
106
100
AcDbEntity
8
0
100
AcDbCircle
10
174.690169
20
-59.364018999999999
30
0
40
1.0999999999999943
210
0
220
-0
230
1
0
CIRCLE
5
107
100
AcDbEntity
8
0
100
AcDbCircle
10
114.11117000000002
20
-49.458018000000017
30
0
40
1.0999999999999943
210
0
220
-0
230
1
0
LWPOLYLINE
5
108
100
AcDbEntity
8
0
100
AcDbPolyline
90
14
70
1
43
0.0
10
150.887168
20
-64.44802
10
150.887168
20
-77.44802
42
-0.41421356237307422
10
150.38716800000003
20
-77.948020000000014
10
137.387168
20
-77.948020000000028
42
-0.41421356237309503
10
136.88716800000003
20
-77.44802
10
136.88716800000003
20
-70.57002
42
0.4142135623731048
10
136.08716799999999
20
-69.770020000000002
10
134.63716900000006
20
-69.770020000000002
42
-0.99999999999999989
10
134.63716900000003
20
-65.370020000000011
10
136.08716799999999
20
-65.370020000000011
42
0.41421356237307877
10
136.88716800000003
20
-64.57002
10
136.88716800000003
20
-64.448020000000014
42
-0.41421356237305862
10
137.38716799999997
20
-63.94802
10
150.387168
20
-63.948019999999993
42
-0.41421356237310542
0
LWPOLYLINE
5
109
100
AcDbEntity
8
0
100
AcDbPolyline
90
8
70
1
43
0.0
10
99.387169000000043
20
-52.070019999999992
42
0.41421356237311063
10
98.887169000000057
20
-52.57002
10
98.887169000000057
20
-65.57002
42
0.41421356237307944
10
99.387169000000043
20
-66.07002
10
112.387169
20
-66.070020000000014
42
0.41421356237312101
10
112.887169
20
-65.57002
10
112.887169
20
-52.570020000000007
42
0.41421356237310025
10
112.387169
20
-52.070019999999992
0
LWPOLYLINE
5
110
100
AcDbEntity
8
0
100
AcDbPolyline
90
8
70
1
43
0.0
10
131.88717
20
-69.020017999999993
10
131.88717
20
-82.020017999999979
42
-0.41421356237309503
10
131.38717
20
-82.520017999999993
10
118.38717000000001
20
-82.520017999999993
42
-0.41421356237307422
10
117.88717
20
-82.020017999999979
10
117.88717000000003
20
-69.020018000000007
42
-0.41421356237305862
10
118.38717000000001
20
-68.520017999999993
10
131.38717
20
-68.520017999999993
42
-0.41421356237308982
0
LWPOLYLINE
5
111
100
AcDbEntity
8
0
100
AcDbPolyline
90
8
70
1
43
0.0
10
93.124992173509014
20
-134.7031861245988
10
86.624992173508915
20
-123.44485587540112
42
-0.41421356237308082
10
86.80800487540111
20
-122.76184317350891
10
98.066335124598851
20
-116.26184317350891
42
-0.41421356237305756
10
98.749347826491061
20
-116.44485587540123
10
105.24934782649099
20
-127.7031861245989
42
-0.41421356237308082
10
105.06633512459879
20
-128.3861988264911
10
93.80800487540121
20
-134.88619882649098
42
-0.41421356237307183
0
LWPOLYLINE
5
112
100
AcDbEntity
8
0
100
AcDbPolyline
90
8
70
1
43
0.0
10
150.387168
20
-58.930018000000011
42
0.41421356237308982
10
150.887168
20
-58.430018000000004
10
150.887168
20
-45.430017999999997
42
0.41421356237308982
10
150.387168
20
-44.930017999999983
10
137.38716799999997
20
-44.930018000000004
42
0.4142135623730222
10
136.88716800000009
20
-45.430017999999997
10
136.88716800000003
20
-58.430018000000004
42
0.41421356237310542
10
137.387168
20
-58.930018000000011
0
LWPOLYLINE
5
113
100
AcDbEntity
8
0
100
AcDbPolyline
90
8
70
1
43
0.0
10
156.38717
20
-51.07002300000002
10
169.38717
20
-51.070023000000035
42
-0.41421356237316265
10
169.88717000000003
20
-51.570023000000013
10
169.88717000000008
20
-64.570023000000006
42
-0.41421356237313145
10
169.38717
20
-65.070023000000006
10
156.38717
20
-65.07002300000002
42
-0.41421356237311063
10
155.88717
20
-64.570023000000006
10
155.88717
20
-51.570023000000013
42
-0.41421356237313145
0
LWPOLYLINE
5
114
100
AcDbEntity
8
0
100
AcDbPolyline
90
8
70
1
43
0.0
10
131.89317
20
-50.002018
42
0.41421356237304818
10
131.39317000000003
20
-49.502017999999985
10
118.39317000000001
20
-49.502018000000007
42
0.41421356237312101
10
117.89317
20
-50.002018000000007
10
117.89317
20
-63.002018000000007
42
0.41421356237308982
10
118.39317000000001
20
-63.502018000000007
10
131.39317000000003
20
-63.502018000000007
42
0.41421356237305862
10
131.89317
20
-63.002018000000007
0
LWPOLYLINE
5
115
100
AcDbEntity
8
0
100
AcDbPolyline
90
20
70
1
43
0.0
10
131.38717
20
-101.53801899999999
42
0.41421356237314705
10
131.88717
20
-101.03801900000001
10
131.88717
20
-88.03801900000002
42
0.41421356237310542
10
131.38717
20
-87.53801900000002
10
119.64540431057522
20
-87.53801900000002
42
-0.33980053946522815
10
117.71291130553941
20
-86.05325757142856
42
0.35051827612280895
10
115.50291414893621
20
-84.421633973827085
42
-0.42547846125807404
10
112.90717000000001
20
-81.923468034994272
10
112.90717000000001
20
-71.560017000000016
42
0.41421356237313667
10
112.40717000000001
20
-71.060016999999988
10
99.407169999999979
20
-71.060017000000016
42
0.4142135623730846
10
98.907169999999979
20
-71.560017000000016
10
98.907169999999979
20
-84.560017000000002
42
0.41421356237310542
10
99.407169999999994
20
-85.060016999999988
10
110.9821276711962
20
-85.060016999999974
42
-0.35639414224418114
10
113.43161773970883
20
-87.060018595744694
42
0.37666795730749891
10
115.74431238095244
20
-88.814400540795702
42
-0.43531083686131722
10
117.88717
20
-90.809291941519064
10
117.88717000000003
20
-101.03801900000001
42
0.41421356237312623
10
118.38717000000001
20
-101.53801899999999
0
LWPOLYLINE
5
116
100
AcDbEntity
8
0
100
AcDbPolyline
90
8
70
1
43
0.0
10
156.37916999999999
20
-89.194018999999997
42
0.4142135623730222
10
155.87916999999999
20
-89.694019000000026
10
155.87916999999999
20
-102.694019
42
0.4142135623730534
10
156.37916999999999
20
-103.19401900000001
10
169.37917000000002
20
-103.194019
42
0.41421356237309503
10
169.87916999999999
20
-102.694019
10
169.87916999999999
20
-89.694019000000026
42
0.41421356237294937
10
169.37916999999999
20
-89.194018999999997
0
CIRCLE
5
117
100
AcDbEntity
8
0
100
AcDbCircle
10
86.587171999999995
20
-118.070019
30
0
40
1.0999999999999943
210
0
220
-0
230
1
0
CIRCLE
5
118
100
AcDbEntity
8
0
100
AcDbCircle
10
169.48316800000001
20
-106.60801900000001
30
0
40
1.0999999999999943
210
0
220
-0
230
1
0
LWPOLYLINE
5
119
100
AcDbEntity
8
0
100
AcDbPolyline
90
24
70
1
43
0.0
10
177.88716899999991
20
-77.570018000000005
42
0.41421356237307422
10
177.38716899999989
20
-77.070018000000033
10
175.387169
20
-77.070018000000019
42
-0.41421356237313667
10
174.887169
20
-76.570018000000005
10
174.88716900000003
20
-63.570018000000005
42
-0.41421356237311585
10
175.387169
20
-63.07001799999999
10
177.38716899999991
20
-63.070018000000012
42
0.4142135623730222
10
177.88716899999991
20
-62.570018000000012
10
177.88716899999994
20
-61.820017999999962
42
-0.41421356237309503
10
178.38716899999994
20
-61.320017999999969
10
185.387169
20
-61.320017999999948
42
-0.41421356237309503
10
185.88716900000003
20
-61.820017999999955
10
185.88716900000006
20
-62.570018000000033
42
0.4142135623730222
10
186.38716900000006
20
-63.070018000000054
10
188.38716900000003
20
-63.070018000000005
42
-0.41421356237301177
10
188.88716900000003
20
-63.570018000000005
10
188.88716900000006
20
-76.570018000000005
42
-0.41421356237314705
10
188.38716900000003
20
-77.07001799999999
10
186.38716899999997
20
-77.070018000000005
42
0.4142135623730222
10
185.88716900000003
20
-77.57001799999999
10
185.88716899999997
20
-78.320017999999976
42
-0.41421356237309503
10
185.38716899999997
20
-78.820017999999962
10
178.38716899999991
20
-78.820017999999976
42
-0.41421356237309503
10
177.88716899999991
20
-78.320017999999976
0
ENDSEC
0
SECTION
2
OBJECTS
0
DICTIONARY
5
C
100
AcDbDictionary
3
ACAD_GROUP
350
D
3
ACAD_MLINESTYLE
350
17
0
DICTIONARY
5
D
100
AcDbDictionary
0
DICTIONARY
5
1A
330
C
100
AcDbDictionary
0
DICTIONARY
5
17
100
AcDbDictionary
0
ENDSEC
0
EOF
