0
SECTION
2
HEADER
9
$INSUNITS
70
4
9
$ACADVER
1
AC1014
9
$HANDSEED
5
FFFF
0
ENDSEC
0
SECTION
2
TABLES
0
TABLE
2
VPORT
5
8
100
AcDbSymbolTable
0
ENDTAB
0
TABLE
2
LTYPE
5
5
100
AcDbSymbolTable
0
LTYPE
5
14
100
AcDbSymbolTableRecord
100
AcDbLinetypeTableRecord
2
BYBLOCK
70
0
0
LTYPE
5
15
100
AcDbSymbolTableRecord
100
AcDbLinetypeTableRecord
2
BYLAYER
70
0
0
ENDTAB
0
TABLE
2
LAYER
5
2
100
AcDbSymbolTable
70
2
0
LAYER
5
50
100
AcDbSymbolTableRecord
100
AcDbLayerTableRecord
2
0
70
0
6
CONTINUOUS
0
ENDTAB
0
TABLE
2
STYLE
5
3
100
AcDbSymbolTable
70
1
0
STYLE
5
11
100
AcDbSymbolTableRecord
100
AcDbTextStyleTableRecord
2
STANDARD
70
0
0
ENDTAB
0
TABLE
2
VIEW
5
6
100
AcDbSymbolTable
70
0
0
ENDTAB
0
TABLE
2
UCS
5
7
100
AcDbSymbolTable
70
0
0
ENDTAB
0
TABLE
2
APPID
5
9
100
AcDbSymbolTable
70
2
0
APPID
5
12
100
AcDbSymbolTableRecord
100
AcDbRegAppTableRecord
2
ACAD
70
0
0
ENDTAB
0
TABLE
2
DIMSTYLE
5
A
100
AcDbSymbolTable
70
1
0
ENDTAB
0
TABLE
2
BLOCK_RECORD
5
1
100
AcDbSymbolTable
70
1
0
BLOCK_RECORD
5
1F
100
AcDbSymbolTableRecord
100
AcDbBlockTableRecord
2
*MODEL_SPACE
0
BLOCK_RECORD
5
1B
100
AcDbSymbolTableRecord
100
AcDbBlockTableRecord
2
*PAPER_SPACE
0
ENDTAB
0
ENDSEC
0
SECTION
2
BLOCKS
0
BLOCK
5
20
100
AcDbEntity
100
AcDbBlockBegin
2
*MODEL_SPACE
0
ENDBLK
5
21
100
AcDbEntity
100
AcDbBlockEnd
0
BLOCK
5
1C
100
AcDbEntity
100
AcDbBlockBegin
2
*PAPER_SPACE
0
ENDBLK
5
1D
100
AcDbEntity
100
AcDbBlockEnd
0
ENDSEC
0
SECTION
2
ENTITIES
0
LWPOLYLINE
5
100
100
AcDbEntity
8
0
100
AcDbPolyline
90
8
70
1
43
0.0
10
-188.78716999999997
20
101.57001700000002
42
0.41421356237308204
10
-188.38717000000003
20
101.17001700000009
10
-175.38717000000003
20
101.17001700000002
42
0.414213562373069
10
-174.98716999999999
20
101.57001700000002
10
-174.98716999999999
20
114.57001699999999
42
0.41421356237305601
10
-175.38716999999997
20
114.97001699999998
10
-188.38717
20
114.970017
42
0.414213562373069
10
-188.78717
20
114.57001699999999
0
CIRCLE
5
101
100
AcDbEntity
8
0
100
AcDbCircle
10
-169.48316800000001
20
106.60801900000001
30
0
40
0.99999999999997868
210
0
220
0
230
1
0
LWPOLYLINE
5
102
100
AcDbEntity
8
0
100
AcDbPolyline
90
14
70
1
43
0.0
10
-150.78716800000001
20
64.44802
42
0.41421356237312101
10
-150.387168
20
64.048019999999994
10
-137.387168
20
64.048020000000008
42
0.4142135623730625
10
-136.987168
20
64.448020000000014
10
-136.987168
20
64.57002
42
-0.41421356237309503
10
-136.08716799999999
20
65.470020000000005
10
-134.63716900000003
20
65.470019999999991
42
0.99999999999999989
10
-134.63716900000003
20
69.670020000000008
10
-136.08716799999999
20
69.670020000000008
42
-0.41421356237309798
10
-136.98716799999997
20
70.57002
10
-136.987168
20
77.44802
42
0.41421356237310153
10
-137.387168
20
77.848020000000005
10
-150.387168
20
77.848020000000005
42
0.41421356237314055
10
-150.78716799999998
20
77.44802
0
LWPOLYLINE
5
103
100
AcDbEntity
8
0
100
AcDbPolyline
90
8
70
1
43
0.0
10
-169.78717
20
51.570023000000006
42
0.41421356237305601
10
-169.38717000000003
20
51.170023000000029
10
-156.38717000000003
20
51.170023
42
0.41421356237314055
10
-155.98717000000005
20
51.570023000000006
10
-155.98716999999999
20
64.570023000000006
42
0.41421356237310153
10
-156.38717000000003
20
64.970023000000026
10
-169.38717
20
64.970023000000012
42
0.41421356237310802
10
-169.78717
20
64.570023000000006
0
LWPOLYLINE
5
104
100
AcDbEntity
8
0
100
AcDbPolyline
90
8
70
1
43
0.0
10
-131.79317
20
50.002018
42
0.41421356237312101
10
-131.39317
20
49.602017999999994
10
-118.39317
20
49.602018000000008
42
0.4142135623730625
10
-117.99316999999999
20
50.002018000000007
10
-117.99316999999999
20
63.002018000000007
42
0.41421356237310153
10
-118.39317
20
63.40201800000002
10
-131.39317
20
63.402017999999998
42
0.41421356237314055
10
-131.79316999999998
20
63.002018
0
LWPOLYLINE
5
105
100
AcDbEntity
8
0
100
AcDbPolyline
90
8
70
1
43
0.0
10
-112.78716900000001
20
52.570020000000007
42
0.41421356237312101
10
-112.387169
20
52.170020000000001
10
-99.387169000000029
20
52.170020000000001
42
0.41421356237314055
10
-98.987169000000037
20
52.57002
10
-98.987169000000023
20
65.57002
42
0.41421356237312101
10
-99.387169000000029
20
65.970020000000019
10
-112.387169
20
65.970020000000005
42
0.41421356237314055
10
-112.78716899999999
20
65.57002
0
LWPOLYLINE
5
106
100
AcDbEntity
8
0
100
AcDbPolyline
90
8
70
1
43
0.0
10
-131.78717
20
69.020017999999993
42
0.41421356237312101
10
-131.38717
20
68.620017999999988
10
-118.38717000000001
20
68.620018000000002
42
0.4142135623730625
10
-117.98716999999999
20
69.020018000000007
10
-117.98716999999999
20
82.020017999999979
42
0.41421356237310802
10
-118.38717000000001
20
82.420017999999985
10
-131.38717
20
82.420017999999985
42
0.41421356237314705
10
-131.78717
20
82.020017999999979
0
LWPOLYLINE
5
107
100
AcDbEntity
8
0
100
AcDbPolyline
90
8
70
1
43
0.0
10
-112.80717000000001
20
90.578017000000017
42
0.41421356237314705
10
-112.40717000000001
20
90.178017000000011
10
-99.407170000000008
20
90.178017000000011
42
0.41421356237310802
10
-99.007170000000002
20
90.578017000000017
10
-99.007170000000002
20
103.57801699999999
42
0.41421356237310802
10
-99.407170000000008
20
103.97801700000001
10
-112.40717000000001
20
103.97801700000001
42
0.41421356237314705
10
-112.80717000000001
20
103.57801699999999
0
LWPOLYLINE
5
108
100
AcDbEntity
8
0
100
AcDbPolyline
90
8
70
1
43
0.0
10
-169.78716899999998
20
70.644020999999995
42
0.4142135623730625
10
-169.38716900000003
20
70.244021000000018
10
-156.38716900000003
20
70.244021000000004
42
0.41421356237314055
10
-155.98716900000002
20
70.644021000000009
10
-155.98716900000002
20
83.644020999999995
42
0.41421356237314705
10
-156.38716900000003
20
84.044021000000001
10
-169.387169
20
84.044021000000001
42
0.414213562373069
10
-169.78716900000001
20
83.644020999999995
0
LWPOLYLINE
5
109
100
AcDbEntity
8
0
100
AcDbPolyline
90
8
70
1
43
0.0
10
-169.77916999999997
20
89.694019000000011
42
0.41421356237305601
10
-169.37916999999999
20
89.294019000000006
10
-156.37917000000002
20
89.294019000000006
42
0.41421356237314705
10
-155.97917000000001
20
89.694019000000011
10
-155.97917000000001
20
102.69401899999998
42
0.41421356237314705
10
-156.37917000000002
20
103.09401899999999
10
-169.37916999999999
20
103.09401899999999
42
0.41421356237314705
10
-169.77916999999997
20
102.69401899999998
0
LWPOLYLINE
5
110
100
AcDbEntity
8
0
100
AcDbPolyline
90
8
70
1
43
0.0
10
-150.78716800000001
20
45.430017999999997
42
0.41421356237312101
10
-150.387168
20
45.030017999999991
10
-137.387168
20
45.030018000000005
42
0.4142135623730625
10
-136.987168
20
45.430018000000004
10
-136.987168
20
58.430018000000004
42
0.41421356237310153
10
-137.387168
20
58.830018000000017
10
-150.387168
20
58.830017999999995
42
0.41421356237314055
10
-150.78716799999998
20
58.430017999999997
0
LWPOLYLINE
5
111
100
AcDbEntity
8
0
100
AcDbPolyline
90
8
70
1
43
0.0
10
-188.78716899999998
20
63.570017999999997
42
0.4142135623730625
10
-188.38716900000003
20
63.170018000000013
10
-175.387169
20
63.170018000000006
42
0.41421356237310802
10
-174.98716900000002
20
63.570018000000005
10
-174.98716899999999
20
76.570018000000005
42
0.41421356237304952
10
-175.38716899999997
20
76.970017999999996
10
-188.38716899999997
20
76.970017999999996
42
0.41421356237310802
10
-188.78716899999998
20
76.570018000000005
0
CIRCLE
5
112
100
AcDbEntity
8
0
100
AcDbCircle
10
-174.690169
20
59.364018999999999
30
0
40
0.99999999999997868
210
0
220
0
230
1
0
CIRCLE
5
113
100
AcDbEntity
8
0
100
AcDbCircle
10
-114.11117000000002
20
49.45801800000001
30
0
40
0.99999999999999645
210
0
220
0
230
1
0
LWPOLYLINE
5
114
100
AcDbEntity
8
0
100
AcDbPolyline
90
8
70
1
43
0.0
10
-98.662745286112596
20
116.49485587540116
42
0.41421356237309503
10
-98.116335124598862
20
116.34844571388739
10
-86.858004875401122
20
122.84844571388734
42
0.41421356237311285
10
-86.711594713887337
20
123.39485587540112
10
-93.211594713887422
20
134.65318612459882
42
0.41421356237310636
10
-93.758004875401184
20
134.7995962861126
10
-105.01633512459883
20
128.29959628611266
42
0.41421356237311757
10
-105.16274528611261
20
127.75318612459887
0
CIRCLE
5
115
100
AcDbEntity
8
0
100
AcDbCircle
10
-86.587171999999995
20
118.07001900000002
30
0
40
1.0000000000000142
210
0
220
0
230
1
0
CIRCLE
5
116
100
AcDbEntity
8
0
100
AcDbCircle
10
-134.63716900000003
20
105.67002000000001
30
0
40
2.1000000000000085
210
0
220
0
230
1
0
LWPOLYLINE
5
117
100
AcDbEntity
8
0
100
AcDbPolyline
90
20
70
1
43
0.0
10
-112.80717000000001
20
71.560017000000002
42
0.41421356237312101
10
-112.40717000000001
20
71.160016999999996
10
-99.407169999999994
20
71.160017000000011
42
0.41421356237314055
10
-99.007170000000002
20
71.560017000000016
10
-99.007169999999988
20
84.560017000000002
42
0.41421356237310802
10
-99.407169999999994
20
84.960017000000008
10
-110.98212767119621
20
84.960016999999965
42
-0.35639414224417942
10
-113.52959734244936
20
87.040018659574457
42
0.37666795730749014
10
-115.73716950000002
20
88.714655970759566
42
-0.43531083686131189
10
-117.98717000000002
20
90.809291941519078
10
-117.98717000000002
20
101.03801899999999
42
0.41421356237310802
10
-118.38717000000003
20
101.438019
10
-131.38717
20
101.438019
42
0.41421356237310802
10
-131.78717
20
101.03801899999999
10
-131.78717
20
88.03801900000002
42
0.41421356237310802
10
-131.38717
20
87.638019000000014
10
-119.64540431057516
20
87.638019000000028
42
-0.3398005394652317
10
-117.61628665528758
20
86.079019500000001
42
0.35051827612281833
10
-115.50674391489363
20
84.521560611380423
42
-0.42547846125808286
10
-112.80717000000001
20
81.923468034994272
0
LWPOLYLINE
5
118
100
AcDbEntity
8
0
100
AcDbPolyline
90
14
70
1
43
0.0
10
-150.78717
20
83.466020000000029
42
0.41421356237310802
10
-150.38716999999997
20
83.066020000000037
10
-137.38717000000003
20
83.066020000000009
42
0.41421356237310802
10
-136.98716999999999
20
83.466020000000029
10
-136.98716999999999
20
96.466020000000015
42
0.41421356237310802
10
-137.38717
20
96.86602000000002
10
-150.38716999999997
20
96.86602000000002
42
0.41421356237314705
10
-150.78717
20
96.466020000000015
10
-150.78717000000003
20
89.620019999999997
42
-0.41421356237310081
10
-151.68717000000001
20
88.720020000000005
10
-153.68716900000004
20
88.720020000000005
42
0.99999999999999989
10
-153.68716899999998
20
84.520019999999988
10
-151.68716999999998
20
84.520019999999988
42
-0.41421356237310081
10
-150.78717
20
83.620019999999982
0
LWPOLYLINE
5
119
100
AcDbEntity
8
0
100
AcDbPolyline
90
8
70
1
43
0.0
10
-188.78716999999997
20
82.570018000000033
42
0.41421356237310802
10
-188.38717000000003
20
82.170018000000056
10
-175.38717000000003
20
82.170018000000027
42
0.41421356237305601
10
-174.98716999999999
20
82.570018000000033
10
-174.98716999999999
20
95.570018000000005
42
0.41421356237305601
10
-175.38716999999997
20
95.970017999999996
10
-188.38717
20
95.97001800000001
42
0.41421356237305601
10
-188.78717
20
95.570018000000005
0
LWPOLYLINE
5
120
100
AcDbEntity
8
0
100
AcDbPolyline
90
8
70
1
43
0.0
10
-120.59773440822818
20
109.29364971791367
42
0.41421356237310758
10
-120.10783645967155
20
109.01080700543906
10
-107.55080071791369
20
112.37545459177184
42
0.4142135623730791
10
-107.26795800543908
20
112.86535254032849
10
-110.63260559177182
20
125.42238828208636
42
0.41421356237306994
10
-111.12250354032847
20
125.70523099456096
10
-123.67953928208635
20
122.3405834082282
42
0.4142135623730791
10
-123.96238199456096
20
121.85068545967155
0
LWPOLYLINE
5
121
100
AcDbEntity
8
0
100
AcDbPolyline
90
24
70
1
43
0.0
10
-189.11940008136901
20
117.64454937234487
10
-189.39148121198772
20
117.64394299834439
10
-189.39447084857704
20
117.64411081830863
42
0.4090375244537528
10
-191.52917025002677
20
115.6147206665764
10
-191.52130978789174
20
61.292055013562319
10
-191.51615741751954
20
61.275850272454548
42
0.15529026343546845
10
-190.05694578540843
20
59.215114529873894
10
-190.05585376337615
20
59.214231852526744
42
0.18020249896981938
10
-145.01921058299507
20
42.438019999997827
10
-141.04371236091856
20
42.435586221904018
10
-141.03817934555676
20
42.435741416623586
42
0.07892169492687065
10
-96.817894847109443
20
51.771121610280169
10
-96.813371888563964
20
51.773470668982739
42
0.29096605506082129
10
-96.324160000375258
20
52.543033039644826
10
-96.328574501150769
20
71.398707708200391
10
-96.328574501150769
20
113.89841771989788
42
-0.41425827568946461
10
-94.428284450196116
20
115.79841769775852
10
-82.719608682569387
20
115.79663027006175
42
0.57559500960436638
10
-80.894967955245846
20
118.93675331988676
10
-91.086868421555764
20
136.8128006770369
10
-91.089122605644548
20
136.81758852032738
42
0.4183660447017124
10
-93.963249857448901
20
137.45213611557361
42
-0.07941327190602325
10
-119.11363299029975
20
126.55124225855303
10
-119.11668136346464
20
126.55040588869917
42
-0.06216332145823477
0
ENDSEC
0
SECTION
2
OBJECTS
0
DICTIONARY
5
C
100
AcDbDictionary
3
ACAD_GROUP
350
D
3
ACAD_MLINESTYLE
350
17
0
DICTIONARY
5
D
100
AcDbDictionary
0
DICTIONARY
5
1A
330
C
100
AcDbDictionary
0
DICTIONARY
5
17
100
AcDbDictionary
0
ENDSEC
0
EOF
