0
SECTION
2
HEADER
9
$INSUNITS
70
4
9
$ACADVER
1
AC1014
9
$HANDSEED
5
FFFF
0
ENDSEC
0
SECTION
2
TABLES
0
TABLE
2
VPORT
5
8
100
AcDbSymbolTable
0
ENDTAB
0
TABLE
2
LTYPE
5
5
100
AcDbSymbolTable
0
LTYPE
5
14
100
AcDbSymbolTableRecord
100
AcDbLinetypeTableRecord
2
BYBLOCK
70
0
0
LTYPE
5
15
100
AcDbSymbolTableRecord
100
AcDbLinetypeTableRecord
2
BYLAYER
70
0
0
ENDTAB
0
TABLE
2
LAYER
5
2
100
AcDbSymbolTable
70
2
0
LAYER
5
50
100
AcDbSymbolTableRecord
100
AcDbLayerTableRecord
2
0
70
0
6
CONTINUOUS
0
ENDTAB
0
TABLE
2
STYLE
5
3
100
AcDbSymbolTable
70
1
0
STYLE
5
11
100
AcDbSymbolTableRecord
100
AcDbTextStyleTableRecord
2
STANDARD
70
0
0
ENDTAB
0
TABLE
2
VIEW
5
6
100
AcDbSymbolTable
70
0
0
ENDTAB
0
TABLE
2
UCS
5
7
100
AcDbSymbolTable
70
0
0
ENDTAB
0
TABLE
2
APPID
5
9
100
AcDbSymbolTable
70
2
0
APPID
5
12
100
AcDbSymbolTableRecord
100
AcDbRegAppTableRecord
2
ACAD
70
0
0
ENDTAB
0
TABLE
2
DIMSTYLE
5
A
100
AcDbSymbolTable
70
1
0
ENDTAB
0
TABLE
2
BLOCK_RECORD
5
1
100
AcDbSymbolTable
70
1
0
BLOCK_RECORD
5
1F
100
AcDbSymbolTableRecord
100
AcDbBlockTableRecord
2
*MODEL_SPACE
0
BLOCK_RECORD
5
1B
100
AcDbSymbolTableRecord
100
AcDbBlockTableRecord
2
*PAPER_SPACE
0
ENDTAB
0
ENDSEC
0
SECTION
2
BLOCKS
0
BLOCK
5
20
100
AcDbEntity
100
AcDbBlockBegin
2
*MODEL_SPACE
0
ENDBLK
5
21
100
AcDbEntity
100
AcDbBlockEnd
0
BLOCK
5
1C
100
AcDbEntity
100
AcDbBlockBegin
2
*PAPER_SPACE
0
ENDBLK
5
1D
100
AcDbEntity
100
AcDbBlockEnd
0
ENDSEC
0
SECTION
2
ENTITIES
0
LWPOLYLINE
5
100
100
AcDbEntity
8
0
100
AcDbPolyline
90
4
70
1
43
0.0
10
-21.5
20
-92.499999999998948
10
-35.5
20
-92.499999999998948
10
-35.5
20
-78.499999999998948
10
-21.500000000000004
20
-78.499999999998948
0
LWPOLYLINE
5
101
100
AcDbEntity
8
0
100
AcDbPolyline
90
4
70
1
43
0.0
10
-40.5
20
-92.499999999998948
10
-54.5
20
-92.499999999998948
10
-54.5
20
-78.499999999998948
10
-40.500000000000007
20
-78.499999999998948
0
LWPOLYLINE
5
102
100
AcDbEntity
8
0
100
AcDbPolyline
90
4
70
1
43
0.0
10
-78.500000000000014
20
-92.499999999998948
10
-92.5
20
-92.499999999998948
10
-92.5
20
-78.499999999998948
10
-78.500000000000014
20
-78.499999999998948
0
LWPOLYLINE
5
103
100
AcDbEntity
8
0
100
AcDbPolyline
90
4
70
1
43
0.0
10
-59.5
20
-92.499999999998948
10
-73.5
20
-92.499999999998948
10
-73.5
20
-78.499999999998948
10
-59.5
20
-78.499999999998948
0
LWPOLYLINE
5
104
100
AcDbEntity
8
0
100
AcDbPolyline
90
4
70
1
43
0.0
10
-97.5
20
-92.499999999998948
10
-111.5
20
-92.499999999998948
10
-111.5
20
-78.499999999998948
10
-97.5
20
-78.499999999998948
0
LWPOLYLINE
5
105
100
AcDbEntity
8
0
100
AcDbPolyline
90
4
70
1
43
0.0
10
-2.4999999999999978
20
-73.499999999998948
10
-16.5
20
-73.499999999998948
10
-16.5
20
-59.499999999998948
10
-2.5
20
-59.499999999998948
0
LWPOLYLINE
5
106
100
AcDbEntity
8
0
100
AcDbPolyline
90
4
70
1
43
0.0
10
-21.5
20
-73.499999999998948
10
-35.5
20
-73.499999999998948
10
-35.5
20
-59.499999999998948
10
-21.500000000000004
20
-59.499999999998948
0
LWPOLYLINE
5
107
100
AcDbEntity
8
0
100
AcDbPolyline
90
4
70
1
43
0.0
10
-40.5
20
-73.499999999998948
10
-54.5
20
-73.499999999998948
10
-54.5
20
-59.499999999998948
10
-40.500000000000007
20
-59.499999999998948
0
LWPOLYLINE
5
108
100
AcDbEntity
8
0
100
AcDbPolyline
90
4
70
1
43
0.0
10
-97.5
20
-73.499999999998948
10
-111.5
20
-73.499999999998948
10
-111.5
20
-59.499999999998948
10
-97.5
20
-59.499999999998948
0
LWPOLYLINE
5
109
100
AcDbEntity
8
0
100
AcDbPolyline
90
4
70
1
43
0.0
10
-2.4999999999999978
20
-54.499999999998948
10
-16.5
20
-54.499999999998948
10
-16.5
20
-40.499999999998941
10
-2.5
20
-40.499999999998941
0
LWPOLYLINE
5
110
100
AcDbEntity
8
0
100
AcDbPolyline
90
4
70
1
43
0.0
10
-21.5
20
-54.499999999998948
10
-35.5
20
-54.499999999998948
10
-35.5
20
-40.499999999998941
10
-21.500000000000004
20
-40.499999999998941
0
LWPOLYLINE
5
111
100
AcDbEntity
8
0
100
AcDbPolyline
90
4
70
1
43
0.0
10
-2.4999999999999978
20
-35.499999999998948
10
-16.5
20
-35.499999999998948
10
-16.5
20
-21.499999999998948
10
-2.5
20
-21.499999999998948
0
LWPOLYLINE
5
112
100
AcDbEntity
8
0
100
AcDbPolyline
90
4
70
1
43
0.0
10
-21.5
20
-35.499999999998948
10
-35.5
20
-35.499999999998948
10
-35.5
20
-21.499999999998948
10
-21.500000000000004
20
-21.499999999998948
0
LWPOLYLINE
5
113
100
AcDbEntity
8
0
100
AcDbPolyline
90
4
70
1
43
0.0
10
-40.5
20
-35.499999999998948
10
-54.5
20
-35.499999999998948
10
-54.5
20
-21.499999999998948
10
-40.500000000000007
20
-21.499999999998948
0
LWPOLYLINE
5
114
100
AcDbEntity
8
0
100
AcDbPolyline
90
4
70
1
43
0.0
10
-97.5
20
-35.499999999998948
10
-111.5
20
-35.499999999998948
10
-111.5
20
-21.499999999998948
10
-97.5
20
-21.499999999998948
0
LWPOLYLINE
5
115
100
AcDbEntity
8
0
100
AcDbPolyline
90
4
70
1
43
0.0
10
-2.4999999999999978
20
-16.499999999998948
10
-16.5
20
-16.499999999998948
10
-16.5
20
-2.4999999999989519
10
-2.5
20
-2.4999999999989519
0
LWPOLYLINE
5
116
100
AcDbEntity
8
0
100
AcDbPolyline
90
4
70
1
43
0.0
10
-21.5
20
-16.499999999998948
10
-35.5
20
-16.499999999998948
10
-35.5
20
-2.4999999999989519
10
-21.500000000000004
20
-2.4999999999989519
0
LWPOLYLINE
5
117
100
AcDbEntity
8
0
100
AcDbPolyline
90
4
70
1
43
0.0
10
-40.5
20
-16.499999999998948
10
-54.5
20
-16.499999999998948
10
-54.5
20
-2.4999999999989519
10
-40.500000000000007
20
-2.4999999999989519
0
LWPOLYLINE
5
118
100
AcDbEntity
8
0
100
AcDbPolyline
90
4
70
1
43
0.0
10
-59.5
20
-16.499999999998948
10
-73.5
20
-16.499999999998948
10
-73.5
20
-2.4999999999989519
10
-59.5
20
-2.4999999999989519
0
LWPOLYLINE
5
119
100
AcDbEntity
8
0
100
AcDbPolyline
90
4
70
1
43
0.0
10
-78.500000000000014
20
-16.499999999998948
10
-92.5
20
-16.499999999998948
10
-92.5
20
-2.4999999999989519
10
-78.500000000000014
20
-2.4999999999989519
0
LWPOLYLINE
5
120
100
AcDbEntity
8
0
100
AcDbPolyline
90
4
70
1
43
0.0
10
-97.5
20
-16.499999999998948
10
-111.5
20
-16.499999999998948
10
-111.5
20
-2.4999999999989519
10
-97.5
20
-2.4999999999989519
0
CIRCLE
5
121
100
AcDbEntity
8
0
100
AcDbCircle
10
-19.000000000000004
20
-18.999999999998948
30
0
40
1.2000000000000011
210
0
220
-0
230
1
0
LWPOLYLINE
5
122
100
AcDbEntity
8
0
100
AcDbPolyline
90
4
70
1
43
0.0
10
-116.5
20
-35.499999999998948
10
-130.5
20
-35.499999999998948
10
-130.5
20
-21.499999999998948
10
-116.5
20
-21.499999999998948
0
LWPOLYLINE
5
123
100
AcDbEntity
8
0
100
AcDbPolyline
90
4
70
1
43
0.0
10
-130.5
20
-2.4999999999989519
10
-116.5
20
-2.4999999999989519
10
-116.5
20
-16.499999999998948
10
-130.5
20
-16.499999999998948
0
CIRCLE
5
124
100
AcDbEntity
8
0
100
AcDbCircle
10
-19
20
-75.999999999998948
30
0
40
1.2000000000000011
210
0
220
-0
230
1
0
CIRCLE
5
125
100
AcDbEntity
8
0
100
AcDbCircle
10
-114
20
-18.999999999998948
30
0
40
1.1999999999999922
210
0
220
-0
230
1
0
CIRCLE
5
126
100
AcDbEntity
8
0
100
AcDbCircle
10
-95
20
-75.999999999998948
30
0
40
1.1999999999999922
210
0
220
-0
230
1
0
LWPOLYLINE
5
127
100
AcDbEntity
8
0
100
AcDbPolyline
90
8
70
1
43
0.0
10
-59.5
20
-40.499999999998941
10
-59.5
20
-49.250000000000036
10
-54.5
20
-49.250000000000036
10
-54.5
20
-40.499999999998941
10
-40.500000000000007
20
-40.499999999998941
10
-40.5
20
-54.499999999998948
10
-73.5
20
-54.499999999998948
10
-73.5
20
-40.499999999998941
0
LWPOLYLINE
5
128
100
AcDbEntity
8
0
100
AcDbPolyline
90
8
70
1
43
0.0
10
-92.5
20
-49.250000000000028
10
-92.5
20
-40.499999999998941
10
-78.500000000000014
20
-40.499999999998941
10
-78.500000000000014
20
-54.499999999998948
10
-111.5
20
-54.499999999998948
10
-111.5
20
-40.499999999998941
10
-97.5
20
-40.499999999998941
10
-97.5
20
-49.250000000000028
0
LWPOLYLINE
5
129
100
AcDbEntity
8
0
100
AcDbPolyline
90
8
70
1
43
0.0
10
-73.5
20
-68.249999999998948
10
-73.5
20
-59.499999999998948
10
-59.5
20
-59.499999999998948
10
-59.5
20
-73.499999999998948
10
-92.5
20
-73.499999999998948
10
-92.5
20
-59.499999999998948
10
-78.500000000000014
20
-59.499999999998948
10
-78.500000000000014
20
-68.249999999998948
0
LWPOLYLINE
5
130
100
AcDbEntity
8
0
100
AcDbPolyline
90
8
70
1
43
0.0
10
-73.5
20
-30.249999999998948
10
-73.5
20
-21.499999999998948
10
-59.5
20
-21.499999999998948
10
-59.5
20
-35.499999999998948
10
-92.5
20
-35.499999999998948
10
-92.5
20
-21.499999999998948
10
-78.500000000000014
20
-21.499999999998948
10
-78.500000000000014
20
-30.249999999998948
0
LWPOLYLINE
5
131
100
AcDbEntity
8
0
100
AcDbPolyline
90
4
70
1
43
0.0
10
-2.4999999999999978
20
-92.499999999998948
10
-16.5
20
-92.499999999998948
10
-16.5
20
-78.499999999998948
10
-2.5
20
-78.499999999998948
0
LWPOLYLINE
5
132
100
AcDbEntity
8
0
100
AcDbPolyline
90
12
70
1
43
0.0
10
-113.3
20
-39.49999999999897
10
-113.3
20
-93.499999999998948
42
0.41421356237309503
10
-111.8
20
-94.999999999998948
10
-1.5000000000000036
20
-94.999999999998948
42
0.41421356237309503
10
0
20
-93.499999999998948
10
0
20
-1.5000000000000036
42
0.41421356237309592
10
-1.4999999999999991
20
0
10
-131.5
20
0
42
0.41421356237309503
10
-133
20
-1.5000000000000036
10
-133
20
-36.499999999998948
42
0.41421356237309503
10
-131.5
20
-37.999999999998948
10
-114.80000000000003
20
-37.999999999998948
42
-0.41421356237309503
0
ENDSEC
0
SECTION
2
OBJECTS
0
DICTIONARY
5
C
100
AcDbDictionary
3
ACAD_GROUP
350
D
3
ACAD_MLINESTYLE
350
17
0
DICTIONARY
5
D
100
AcDbDictionary
0
DICTIONARY
5
1A
330
C
100
AcDbDictionary
0
DICTIONARY
5
17
100
AcDbDictionary
0
ENDSEC
0
EOF
