0
SECTION
2
HEADER
9
$INSUNITS
70
4
9
$ACADVER
1
AC1014
9
$HANDSEED
5
FFFF
0
ENDSEC
0
SECTION
2
TABLES
0
TABLE
2
VPORT
5
8
100
AcDbSymbolTable
0
ENDTAB
0
TABLE
2
LTYPE
5
5
100
AcDbSymbolTable
0
LTYPE
5
14
100
AcDbSymbolTableRecord
100
AcDbLinetypeTableRecord
2
BYBLOCK
70
0
0
LTYPE
5
15
100
AcDbSymbolTableRecord
100
AcDbLinetypeTableRecord
2
BYLAYER
70
0
0
ENDTAB
0
TABLE
2
LAYER
5
2
100
AcDbSymbolTable
70
2
0
LAYER
5
50
100
AcDbSymbolTableRecord
100
AcDbLayerTableRecord
2
0
70
0
6
CONTINUOUS
0
ENDTAB
0
TABLE
2
STYLE
5
3
100
AcDbSymbolTable
70
1
0
STYLE
5
11
100
AcDbSymbolTableRecord
100
AcDbTextStyleTableRecord
2
STANDARD
70
0
0
ENDTAB
0
TABLE
2
VIEW
5
6
100
AcDbSymbolTable
70
0
0
ENDTAB
0
TABLE
2
UCS
5
7
100
AcDbSymbolTable
70
0
0
ENDTAB
0
TABLE
2
APPID
5
9
100
AcDbSymbolTable
70
2
0
APPID
5
12
100
AcDbSymbolTableRecord
100
AcDbRegAppTableRecord
2
ACAD
70
0
0
ENDTAB
0
TABLE
2
DIMSTYLE
5
A
100
AcDbSymbolTable
70
1
0
ENDTAB
0
TABLE
2
BLOCK_RECORD
5
1
100
AcDbSymbolTable
70
1
0
BLOCK_RECORD
5
1F
100
AcDbSymbolTableRecord
100
AcDbBlockTableRecord
2
*MODEL_SPACE
0
BLOCK_RECORD
5
1B
100
AcDbSymbolTableRecord
100
AcDbBlockTableRecord
2
*PAPER_SPACE
0
ENDTAB
0
ENDSEC
0
SECTION
2
BLOCKS
0
BLOCK
5
20
100
AcDbEntity
100
AcDbBlockBegin
2
*MODEL_SPACE
0
ENDBLK
5
21
100
AcDbEntity
100
AcDbBlockEnd
0
BLOCK
5
1C
100
AcDbEntity
100
AcDbBlockBegin
2
*PAPER_SPACE
0
ENDBLK
5
1D
100
AcDbEntity
100
AcDbBlockEnd
0
ENDSEC
0
SECTION
2
ENTITIES
0
LWPOLYLINE
5
100
100
AcDbEntity
8
0
100
AcDbPolyline
90
4
70
1
43
0.0
10
-116.55000000000001
20
-16.449999999998948
10
-130.44999999999999
20
-16.449999999998948
10
-130.44999999999999
20
-2.549999999998942
10
-116.55000000000001
20
-2.5499999999989429
0
LWPOLYLINE
5
101
100
AcDbEntity
8
0
100
AcDbPolyline
90
4
70
1
43
0.0
10
-97.550000000000011
20
-16.449999999998948
10
-111.44999999999999
20
-16.449999999998948
10
-111.44999999999999
20
-2.549999999998942
10
-97.550000000000011
20
-2.5499999999989429
0
LWPOLYLINE
5
102
100
AcDbEntity
8
0
100
AcDbPolyline
90
4
70
1
43
0.0
10
-78.550000000000011
20
-16.449999999998948
10
-92.449999999999989
20
-16.449999999998948
10
-92.449999999999989
20
-2.549999999998942
10
-78.550000000000011
20
-2.5499999999989429
0
LWPOLYLINE
5
103
100
AcDbEntity
8
0
100
AcDbPolyline
90
4
70
1
43
0.0
10
-59.549999999999997
20
-16.449999999998948
10
-73.450000000000003
20
-16.449999999998948
10
-73.450000000000003
20
-2.549999999998942
10
-59.549999999999997
20
-2.5499999999989429
0
LWPOLYLINE
5
104
100
AcDbEntity
8
0
100
AcDbPolyline
90
4
70
1
43
0.0
10
-40.549999999999997
20
-16.449999999998948
10
-54.450000000000003
20
-16.449999999998948
10
-54.450000000000003
20
-2.549999999998942
10
-40.550000000000004
20
-2.5499999999989429
0
LWPOLYLINE
5
105
100
AcDbEntity
8
0
100
AcDbPolyline
90
4
70
1
43
0.0
10
-2.5499999999999998
20
-16.449999999998948
10
-16.450000000000003
20
-16.449999999998948
10
-16.450000000000003
20
-2.549999999998942
10
-2.5499999999999989
20
-2.5499999999989429
0
LWPOLYLINE
5
106
100
AcDbEntity
8
0
100
AcDbPolyline
90
4
70
1
43
0.0
10
-21.550000000000004
20
-16.449999999998948
10
-35.450000000000003
20
-16.449999999998948
10
-35.450000000000003
20
-2.549999999998942
10
-21.550000000000004
20
-2.5499999999989429
0
LWPOLYLINE
5
107
100
AcDbEntity
8
0
100
AcDbPolyline
90
4
70
1
43
0.0
10
-97.550000000000011
20
-21.549999999998946
10
-97.550000000000011
20
-35.449999999998951
10
-111.44999999999999
20
-35.449999999998951
10
-111.44999999999999
20
-21.549999999998946
0
LWPOLYLINE
5
108
100
AcDbEntity
8
0
100
AcDbPolyline
90
4
70
1
43
0.0
10
-21.550000000000004
20
-92.449999999998937
10
-35.450000000000003
20
-92.449999999998937
10
-35.450000000000003
20
-78.549999999998946
10
-21.550000000000004
20
-78.549999999998946
0
CIRCLE
5
109
100
AcDbEntity
8
0
100
AcDbCircle
10
-19.000000000000004
20
-18.999999999998948
30
0
40
1.1500000000000021
210
0
220
-0
230
1
0
CIRCLE
5
110
100
AcDbEntity
8
0
100
AcDbCircle
10
-114
20
-18.999999999998948
30
0
40
1.1499999999999844
210
0
220
-0
230
1
0
CIRCLE
5
111
100
AcDbEntity
8
0
100
AcDbCircle
10
-95
20
-75.999999999998948
30
0
40
1.1499999999999844
210
0
220
-0
230
1
0
LWPOLYLINE
5
112
100
AcDbEntity
8
0
100
AcDbPolyline
90
4
70
1
43
0.0
10
-2.5499999999999998
20
-92.449999999998937
10
-16.450000000000003
20
-92.449999999998937
10
-16.450000000000003
20
-78.549999999998946
10
-2.5499999999999989
20
-78.549999999998946
0
LWPOLYLINE
5
113
100
AcDbEntity
8
0
100
AcDbPolyline
90
4
70
1
43
0.0
10
-16.450000000000003
20
-54.449999999998944
10
-16.450000000000003
20
-40.549999999998938
10
-2.5499999999999989
20
-40.549999999998938
10
-2.5499999999999998
20
-54.449999999998944
0
CIRCLE
5
114
100
AcDbEntity
8
0
100
AcDbCircle
10
-19
20
-75.999999999998948
30
0
40
1.1500000000000021
210
0
220
-0
230
1
0
LWPOLYLINE
5
115
100
AcDbEntity
8
0
100
AcDbPolyline
90
8
70
1
43
0.0
10
-59.549999999999997
20
-35.449999999998951
10
-92.449999999999989
20
-35.449999999998951
10
-92.449999999999989
20
-21.549999999998946
10
-78.550000000000011
20
-21.549999999998946
10
-78.550000000000011
20
-30.299999999998946
10
-73.450000000000003
20
-30.299999999998946
10
-73.450000000000003
20
-21.549999999998946
10
-59.549999999999997
20
-21.549999999998946
0
LWPOLYLINE
5
116
100
AcDbEntity
8
0
100
AcDbPolyline
90
4
70
1
43
0.0
10
-40.549999999999997
20
-35.449999999998951
10
-54.450000000000003
20
-35.449999999998951
10
-54.450000000000003
20
-21.549999999998946
10
-40.550000000000004
20
-21.549999999998946
0
LWPOLYLINE
5
117
100
AcDbEntity
8
0
100
AcDbPolyline
90
4
70
1
43
0.0
10
-2.5499999999999998
20
-35.449999999998951
10
-16.450000000000003
20
-35.449999999998951
10
-16.450000000000003
20
-21.549999999998946
10
-2.5499999999999989
20
-21.549999999998946
0
LWPOLYLINE
5
118
100
AcDbEntity
8
0
100
AcDbPolyline
90
4
70
1
43
0.0
10
-116.55000000000001
20
-35.449999999998951
10
-130.44999999999999
20
-35.449999999998951
10
-130.44999999999999
20
-21.549999999998946
10
-116.55000000000001
20
-21.549999999998946
0
LWPOLYLINE
5
119
100
AcDbEntity
8
0
100
AcDbPolyline
90
8
70
1
43
0.0
10
-78.550000000000011
20
-54.449999999998944
10
-111.44999999999999
20
-54.449999999998944
10
-111.44999999999999
20
-40.549999999998938
10
-97.550000000000011
20
-40.549999999998938
10
-97.550000000000011
20
-49.299999999998938
10
-92.449999999999989
20
-49.299999999998938
10
-92.449999999999989
20
-40.549999999998938
10
-78.550000000000011
20
-40.549999999998938
0
LWPOLYLINE
5
120
100
AcDbEntity
8
0
100
AcDbPolyline
90
4
70
1
43
0.0
10
-21.550000000000004
20
-35.449999999998951
10
-35.450000000000003
20
-35.449999999998951
10
-35.450000000000003
20
-21.549999999998946
10
-21.550000000000004
20
-21.549999999998946
0
LWPOLYLINE
5
121
100
AcDbEntity
8
0
100
AcDbPolyline
90
8
70
1
43
0.0
10
-40.549999999999997
20
-54.449999999998944
10
-73.450000000000003
20
-54.449999999998944
10
-73.450000000000003
20
-40.549999999998938
10
-59.549999999999997
20
-40.549999999998938
10
-59.549999999999997
20
-49.299999999998946
10
-54.450000000000003
20
-49.299999999998946
10
-54.450000000000003
20
-40.549999999998938
10
-40.550000000000004
20
-40.549999999998938
0
LWPOLYLINE
5
122
100
AcDbEntity
8
0
100
AcDbPolyline
90
4
70
1
43
0.0
10
-21.550000000000004
20
-54.449999999998944
10
-35.450000000000003
20
-54.449999999998944
10
-35.450000000000003
20
-40.549999999998938
10
-21.550000000000004
20
-40.549999999998938
0
LWPOLYLINE
5
123
100
AcDbEntity
8
0
100
AcDbPolyline
90
4
70
1
43
0.0
10
-97.550000000000011
20
-73.449999999998951
10
-111.44999999999999
20
-73.449999999998951
10
-111.44999999999999
20
-59.549999999998946
10
-97.550000000000011
20
-59.549999999998946
0
LWPOLYLINE
5
124
100
AcDbEntity
8
0
100
AcDbPolyline
90
8
70
1
43
0.0
10
-59.549999999999997
20
-73.449999999998951
10
-92.449999999999989
20
-73.449999999998951
10
-92.449999999999989
20
-59.549999999998946
10
-78.550000000000011
20
-59.549999999998946
10
-78.550000000000011
20
-68.29999999999896
10
-73.450000000000003
20
-68.29999999999896
10
-73.450000000000003
20
-59.549999999998946
10
-59.549999999999997
20
-59.549999999998946
0
LWPOLYLINE
5
125
100
AcDbEntity
8
0
100
AcDbPolyline
90
4
70
1
43
0.0
10
-40.549999999999997
20
-73.449999999998951
10
-54.450000000000003
20
-73.449999999998951
10
-54.450000000000003
20
-59.549999999998946
10
-40.550000000000004
20
-59.549999999998946
0
LWPOLYLINE
5
126
100
AcDbEntity
8
0
100
AcDbPolyline
90
4
70
1
43
0.0
10
-2.5499999999999998
20
-73.449999999998951
10
-16.450000000000003
20
-73.449999999998951
10
-16.450000000000003
20
-59.549999999998946
10
-2.5499999999999989
20
-59.549999999998946
0
LWPOLYLINE
5
127
100
AcDbEntity
8
0
100
AcDbPolyline
90
4
70
1
43
0.0
10
-21.550000000000004
20
-73.449999999998951
10
-35.450000000000003
20
-73.449999999998951
10
-35.450000000000003
20
-59.549999999998946
10
-21.550000000000004
20
-59.549999999998946
0
LWPOLYLINE
5
128
100
AcDbEntity
8
0
100
AcDbPolyline
90
4
70
1
43
0.0
10
-97.550000000000011
20
-78.549999999998946
10
-97.550000000000011
20
-92.449999999998937
10
-111.44999999999999
20
-92.449999999998937
10
-111.44999999999999
20
-78.549999999998946
0
LWPOLYLINE
5
129
100
AcDbEntity
8
0
100
AcDbPolyline
90
4
70
1
43
0.0
10
-78.550000000000011
20
-78.549999999998946
10
-78.550000000000011
20
-92.449999999998937
10
-92.449999999999989
20
-92.449999999998937
10
-92.449999999999989
20
-78.549999999998946
0
LWPOLYLINE
5
130
100
AcDbEntity
8
0
100
AcDbPolyline
90
4
70
1
43
0.0
10
-59.549999999999997
20
-78.549999999998946
10
-59.549999999999997
20
-92.449999999998937
10
-73.450000000000003
20
-92.449999999998937
10
-73.450000000000003
20
-78.549999999998946
0
LWPOLYLINE
5
131
100
AcDbEntity
8
0
100
AcDbPolyline
90
4
70
1
43
0.0
10
-40.550000000000004
20
-78.549999999998946
10
-40.549999999999997
20
-92.449999999998937
10
-54.450000000000003
20
-92.449999999998937
10
-54.450000000000003
20
-78.549999999998946
0
LWPOLYLINE
5
132
100
AcDbEntity
8
0
100
AcDbPolyline
90
12
70
1
43
0.0
10
-113.35000000000001
20
-39.49999999999897
10
-113.35000000000001
20
-93.499999999998948
42
0.41421356237309503
10
-111.8
20
-95.04999999999896
10
-1.5000000000000036
20
-95.04999999999896
42
0.41421356237309503
10
0.050000000000007816
20
-93.499999999998948
10
0.050000000000000044
20
-1.5000000000000036
42
0.41421356237309592
10
-1.4999999999999993
20
0.049999999999999767
10
-131.5
20
0.050000000000000044
42
0.41421356237309503
10
-133.05000000000001
20
-1.5000000000000036
10
-133.05000000000001
20
-36.499999999998948
42
0.41421356237309503
10
-131.5
20
-38.04999999999896
10
-114.80000000000003
20
-38.04999999999896
42
-0.41421356237309503
0
ENDSEC
0
SECTION
2
OBJECTS
0
DICTIONARY
5
C
100
AcDbDictionary
3
ACAD_GROUP
350
D
3
ACAD_MLINESTYLE
350
17
0
DICTIONARY
5
D
100
AcDbDictionary
0
DICTIONARY
5
1A
330
C
100
AcDbDictionary
0
DICTIONARY
5
17
100
AcDbDictionary
0
ENDSEC
0
EOF
