0
SECTION
2
HEADER
9
$INSUNITS
70
4
9
$ACADVER
1
AC1014
9
$HANDSEED
5
FFFF
0
ENDSEC
0
SECTION
2
TABLES
0
TABLE
2
VPORT
5
8
100
AcDbSymbolTable
0
ENDTAB
0
TABLE
2
LTYPE
5
5
100
AcDbSymbolTable
0
LTYPE
5
14
100
AcDbSymbolTableRecord
100
AcDbLinetypeTableRecord
2
BYBLOCK
70
0
0
LTYPE
5
15
100
AcDbSymbolTableRecord
100
AcDbLinetypeTableRecord
2
BYLAYER
70
0
0
ENDTAB
0
TABLE
2
LAYER
5
2
100
AcDbSymbolTable
70
2
0
LAYER
5
50
100
AcDbSymbolTableRecord
100
AcDbLayerTableRecord
2
0
70
0
6
CONTINUOUS
0
ENDTAB
0
TABLE
2
STYLE
5
3
100
AcDbSymbolTable
70
1
0
STYLE
5
11
100
AcDbSymbolTableRecord
100
AcDbTextStyleTableRecord
2
STANDARD
70
0
0
ENDTAB
0
TABLE
2
VIEW
5
6
100
AcDbSymbolTable
70
0
0
ENDTAB
0
TABLE
2
UCS
5
7
100
AcDbSymbolTable
70
0
0
ENDTAB
0
TABLE
2
APPID
5
9
100
AcDbSymbolTable
70
2
0
APPID
5
12
100
AcDbSymbolTableRecord
100
AcDbRegAppTableRecord
2
ACAD
70
0
0
ENDTAB
0
TABLE
2
DIMSTYLE
5
A
100
AcDbSymbolTable
70
1
0
ENDTAB
0
TABLE
2
BLOCK_RECORD
5
1
100
AcDbSymbolTable
70
1
0
BLOCK_RECORD
5
1F
100
AcDbSymbolTableRecord
100
AcDbBlockTableRecord
2
*MODEL_SPACE
0
BLOCK_RECORD
5
1B
100
AcDbSymbolTableRecord
100
AcDbBlockTableRecord
2
*PAPER_SPACE
0
ENDTAB
0
ENDSEC
0
SECTION
2
BLOCKS
0
BLOCK
5
20
100
AcDbEntity
100
AcDbBlockBegin
2
*MODEL_SPACE
0
ENDBLK
5
21
100
AcDbEntity
100
AcDbBlockEnd
0
BLOCK
5
1C
100
AcDbEntity
100
AcDbBlockBegin
2
*PAPER_SPACE
0
ENDBLK
5
1D
100
AcDbEntity
100
AcDbBlockEnd
0
ENDSEC
0
SECTION
2
ENTITIES
0
CIRCLE
5
100
100
AcDbEntity
8
0
100
AcDbCircle
10
157.25
20
-105.75000000000001
30
0
40
1.0999999999999943
210
0
220
-0
230
1
0
CIRCLE
5
101
100
AcDbEntity
8
0
100
AcDbCircle
10
176.25
20
-105.5
30
0
40
1.0999999999999943
210
0
220
-0
230
1
0
CIRCLE
5
102
100
AcDbEntity
8
0
100
AcDbCircle
10
133
20
-122.75
30
0
40
1.0999999999999943
210
0
220
-0
230
1
0
CIRCLE
5
103
100
AcDbEntity
8
0
100
AcDbCircle
10
157.25
20
-86.75
30
0
40
1.0999999999999943
210
0
220
-0
230
1
0
CIRCLE
5
104
100
AcDbEntity
8
0
100
AcDbCircle
10
86.5
20
-130.5
30
0
40
1.1000000000000119
210
0
220
-0
230
1
0
CIRCLE
5
105
100
AcDbEntity
8
0
100
AcDbCircle
10
176.25
20
-86.75
30
0
40
1.0999999999999943
210
0
220
-0
230
1
0
CIRCLE
5
106
100
AcDbEntity
8
0
100
AcDbCircle
10
100.25
20
-83
30
0
40
1.0999999999999943
210
0
220
-0
230
1
0
LWPOLYLINE
5
107
100
AcDbEntity
8
0
100
AcDbPolyline
90
35
70
1
43
0.0
10
82.25
20
-65.75
42
0.41421356237310542
10
81.75
20
-66.25
10
81.75
20
-67.5
42
-0.41421356237312623
10
81.249999999999972
20
-68.000000000000014
10
61.5
20
-68
42
0.41421356237311063
10
61.000000000000014
20
-68.5
10
61.000000000000014
20
-128.5
10
74.950000000000017
20
-152.80000000000001
42
0.41421356237309503
10
76.180000000000021
20
-153.03
10
91
20
-144.5
10
128
20
-138.99999450639999
42
0.19761610742884869
10
128.35178127951886
20
-138.8553089329165
10
138.89643999999981
20
-124.39643999999971
42
-0.19891236737969378
10
139.25000000000006
20
-124.24999065288704
10
175.25000000000003
20
-124.25
10
194.25
20
-124.25
42
0.41421356237314705
10
194.75
20
-123.75
10
194.75
20
-68.5
42
0.4142135623730222
10
194.25000000000014
20
-67.999999999999986
10
157.25
20
-68
42
-0.41421356237309503
10
156.75
20
-67.5
10
156.75
20
-63.75
42
0.41421356237311063
10
156.24999999999997
20
-63.249999999999986
10
138.25
20
-63.250000000000028
42
-0.41421356237306384
10
137.75
20
-62.75
10
137.75
20
-61.5
42
0.4142135623730378
10
137.25000000000006
20
-61.000000000000021
10
120.25
20
-61.000000000000014
42
0.41421356237311585
10
119.75000000000001
20
-61.5
10
119.75000000000001
20
-62.75
42
-0.41421356237311585
10
119.25
20
-63.250000000000014
10
101.25
20
-63.25
42
0.4142135623730534
10
100.75
20
-63.75
10
100.75
20
-65.25
42
-0.41421356237308982
10
100.25
20
-65.750000000000014
0
ENDSEC
0
SECTION
2
OBJECTS
0
DICTIONARY
5
C
100
AcDbDictionary
3
ACAD_GROUP
350
D
3
ACAD_MLINESTYLE
350
17
0
DICTIONARY
5
D
100
AcDbDictionary
0
DICTIONARY
5
1A
330
C
100
AcDbDictionary
0
DICTIONARY
5
17
100
AcDbDictionary
0
ENDSEC
0
EOF
