0
SECTION
2
HEADER
9
$INSUNITS
70
4
9
$ACADVER
1
AC1014
9
$HANDSEED
5
FFFF
0
ENDSEC
0
SECTION
2
TABLES
0
TABLE
2
VPORT
5
8
100
AcDbSymbolTable
0
ENDTAB
0
TABLE
2
LTYPE
5
5
100
AcDbSymbolTable
0
LTYPE
5
14
100
AcDbSymbolTableRecord
100
AcDbLinetypeTableRecord
2
BYBLOCK
70
0
0
LTYPE
5
15
100
AcDbSymbolTableRecord
100
AcDbLinetypeTableRecord
2
BYLAYER
70
0
0
ENDTAB
0
TABLE
2
LAYER
5
2
100
AcDbSymbolTable
70
2
0
LAYER
5
50
100
AcDbSymbolTableRecord
100
AcDbLayerTableRecord
2
0
70
0
6
CONTINUOUS
0
ENDTAB
0
TABLE
2
STYLE
5
3
100
AcDbSymbolTable
70
1
0
STYLE
5
11
100
AcDbSymbolTableRecord
100
AcDbTextStyleTableRecord
2
STANDARD
70
0
0
ENDTAB
0
TABLE
2
VIEW
5
6
100
AcDbSymbolTable
70
0
0
ENDTAB
0
TABLE
2
UCS
5
7
100
AcDbSymbolTable
70
0
0
ENDTAB
0
TABLE
2
APPID
5
9
100
AcDbSymbolTable
70
2
0
APPID
5
12
100
AcDbSymbolTableRecord
100
AcDbRegAppTableRecord
2
ACAD
70
0
0
ENDTAB
0
TABLE
2
DIMSTYLE
5
A
100
AcDbSymbolTable
70
1
0
ENDTAB
0
TABLE
2
BLOCK_RECORD
5
1
100
AcDbSymbolTable
70
1
0
BLOCK_RECORD
5
1F
100
AcDbSymbolTableRecord
100
AcDbBlockTableRecord
2
*MODEL_SPACE
0
BLOCK_RECORD
5
1B
100
AcDbSymbolTableRecord
100
AcDbBlockTableRecord
2
*PAPER_SPACE
0
ENDTAB
0
ENDSEC
0
SECTION
2
BLOCKS
0
BLOCK
5
20
100
AcDbEntity
100
AcDbBlockBegin
2
*MODEL_SPACE
0
ENDBLK
5
21
100
AcDbEntity
100
AcDbBlockEnd
0
BLOCK
5
1C
100
AcDbEntity
100
AcDbBlockBegin
2
*PAPER_SPACE
0
ENDBLK
5
1D
100
AcDbEntity
100
AcDbBlockEnd
0
ENDSEC
0
SECTION
2
ENTITIES
0
LWPOLYLINE
5
100
100
AcDbEntity
8
0
100
AcDbPolyline
90
8
70
1
43
0.0
10
-116.7
20
65.875
42
0.41421356237311818
10
-116.25
20
65.425000000000011
10
-103.25000000000001
20
65.425000000000011
42
0.41421356237306617
10
-102.80000000000001
20
65.875
10
-102.80000000000001
20
78.875000000000014
42
0.41421356237310081
10
-103.25000000000001
20
79.325000000000017
10
-116.25
20
79.325000000000017
42
0.4142135623731355
10
-116.7
20
78.875000000000014
0
CIRCLE
5
101
100
AcDbEntity
8
0
100
AcDbCircle
10
-157.25
20
86.75
30
0
40
1.0499999999999865
210
0
220
0
230
1
0
LWPOLYLINE
5
102
100
AcDbEntity
8
0
100
AcDbPolyline
90
8
70
1
43
0.0
10
-97.699999999999989
20
68.25
42
0.41421356237310081
10
-97.25
20
67.799999999999997
10
-84.25
20
67.800000000000011
42
0.4142135623731355
10
-83.800000000000011
20
68.250000000000014
10
-83.800000000000011
20
81.25
42
0.41421356237314128
10
-84.25
20
81.700000000000003
10
-97.25
20
81.700000000000003
42
0.41421356237310658
10
-97.699999999999989
20
81.25
0
LWPOLYLINE
5
103
100
AcDbEntity
8
0
100
AcDbPolyline
90
8
70
1
43
0.0
10
-135.69999999999999
20
63.499999999999986
42
0.41421356237312978
10
-135.24999999999997
20
63.049999999999997
10
-122.25
20
63.049999999999997
42
0.41421356237306617
10
-121.8
20
63.5
10
-121.8
20
76.500000000000014
42
0.41421356237310081
10
-122.25
20
76.950000000000017
10
-135.25
20
76.950000000000003
42
0.4142135623731355
10
-135.69999999999999
20
76.5
0
LWPOLYLINE
5
104
100
AcDbEntity
8
0
100
AcDbPolyline
90
8
70
1
43
0.0
10
-173.70000000000002
20
70.625000000000014
42
0.41421356237306617
10
-173.25000000000003
20
70.174999999999997
10
-160.25000000000003
20
70.175000000000011
42
0.4142135623731355
10
-159.80000000000001
20
70.625000000000014
10
-159.79999999999998
20
83.625
42
0.41421356237314128
10
-160.25
20
84.075000000000003
10
-173.25
20
84.075000000000003
42
0.41421356237307194
10
-173.69999999999999
20
83.625
0
LWPOLYLINE
5
105
100
AcDbEntity
8
0
100
AcDbPolyline
90
8
70
1
43
0.0
10
-192.69999999999999
20
89.625000000000028
42
0.41421356237308343
10
-192.25
20
89.175000000000011
10
-179.25
20
89.175000000000026
42
0.41421356237307194
10
-178.80000000000001
20
89.625000000000028
10
-178.79999999999995
20
102.625
42
0.41421356237306034
10
-179.24999999999997
20
103.07500000000002
10
-192.24999999999997
20
103.07499999999999
42
0.41421356237307194
10
-192.69999999999996
20
102.625
0
LWPOLYLINE
5
106
100
AcDbEntity
8
0
100
AcDbPolyline
90
10
70
1
43
0.0
10
-154.69999999999999
20
84.875000000000028
42
0.41421356237309503
10
-154.25
20
84.425000000000026
10
-141.25
20
84.425000000000026
42
0.41421356237310658
10
-140.80000000000001
20
84.875000000000028
10
-140.80000000000001
20
95.796475951143648
42
-0.30736845131238127
10
-139.50654761904764
20
97.7017674511807
42
1.7163584595188728
10
-142.42205208940618
20
100.04553571428572
42
-0.36768881206651777
10
-144.44540408163067
20
98.324999999999989
10
-154.25
20
98.324999999999989
42
0.41421356237309503
10
-154.69999999999999
20
97.875
0
LWPOLYLINE
5
107
100
AcDbEntity
8
0
100
AcDbPolyline
90
10
70
1
43
0.0
10
-116.7
20
84.875000000000028
42
0.41421356237310658
10
-116.25
20
84.425000000000026
10
-103.25000000000003
20
84.425000000000026
42
0.41421356237310658
10
-102.80000000000003
20
84.875000000000028
10
-102.80000000000001
20
95.758236435299551
42
-0.31435722602862265
10
-101.45773809523811
20
97.682192460927141
42
1.7417836785360254
10
-104.32205208940617
20
100.04553571428572
42
-0.36768881206651777
10
-106.34540408163065
20
98.324999999999989
10
-116.25
20
98.324999999999989
42
0.41421356237310658
10
-116.7
20
97.875
0
LWPOLYLINE
5
108
100
AcDbEntity
8
0
100
AcDbPolyline
90
8
70
1
43
0.0
10
-97.700000000000017
20
106.25000000000001
42
0.41421356237310658
10
-97.250000000000014
20
105.80000000000001
10
-84.25
20
105.80000000000001
42
0.41421356237310658
10
-83.800000000000011
20
106.25000000000001
10
-83.800000000000011
20
119.25
42
0.41421356237314128
10
-84.25
20
119.7
10
-97.250000000000014
20
119.7
42
0.41421356237314128
10
-97.700000000000017
20
119.25
0
LWPOLYLINE
5
109
100
AcDbEntity
8
0
100
AcDbPolyline
90
8
70
1
43
0.0
10
-135.69999999999999
20
101.50000000000003
42
0.41421356237314128
10
-135.25
20
101.05000000000003
10
-122.25000000000001
20
101.05000000000003
42
0.41421356237314128
10
-121.80000000000001
20
101.50000000000003
10
-121.80000000000001
20
114.5
42
0.41421356237314128
10
-122.25000000000001
20
114.94999999999999
10
-135.25
20
114.94999999999999
42
0.41421356237314128
10
-135.69999999999999
20
114.5
0
LWPOLYLINE
5
110
100
AcDbEntity
8
0
100
AcDbPolyline
90
8
70
1
43
0.0
10
-173.70000000000002
20
108.625
42
0.41421356237308343
10
-173.25000000000003
20
108.17499999999998
10
-160.25000000000003
20
108.17500000000001
42
0.41421356237314128
10
-159.80000000000001
20
108.625
10
-159.79999999999998
20
121.625
42
0.41421356237311818
10
-160.25
20
122.07499999999999
10
-173.25
20
122.07499999999999
42
0.41421356237306034
10
-173.69999999999999
20
121.625
0
CIRCLE
5
111
100
AcDbEntity
8
0
100
AcDbCircle
10
-157.25
20
105.75000000000001
30
0
40
1.0499999999999865
210
0
220
0
230
1
0
LWPOLYLINE
5
112
100
AcDbEntity
8
0
100
AcDbPolyline
90
8
70
1
43
0.0
10
-126.20000000000002
20
123.50000000000001
42
0.41421356237310658
10
-125.75000000000001
20
123.05000000000001
10
-112.75000000000003
20
123.05000000000001
42
0.41421356237314128
10
-112.30000000000003
20
123.50000000000001
10
-112.30000000000003
20
136.5
42
0.41421356237314128
10
-112.75000000000003
20
136.94999999999999
10
-125.75000000000001
20
136.94999999999999
42
0.41421356237310658
10
-126.20000000000002
20
136.5
0
CIRCLE
5
113
100
AcDbEntity
8
0
100
AcDbCircle
10
-133
20
122.75
30
0
40
1.0499999999999865
210
0
220
0
230
1
0
LWPOLYLINE
5
114
100
AcDbEntity
8
0
100
AcDbPolyline
90
8
70
1
43
0.0
10
-78.768876556429575
20
127.39583487544002
42
0.41421356237306134
10
-78.154165124728863
20
127.23112344372838
10
-66.895834875440016
20
133.73112344357043
42
0.41421356237311585
10
-66.731123443728379
20
134.34583487527112
10
-73.231123443570425
20
145.60416512456001
42
0.41421356237312162
10
-73.845834875271109
20
145.76887655627164
10
-85.104165124559984
20
139.2688765564296
42
0.41421356237311086
10
-85.268876556271621
20
138.65416512472888
0
CIRCLE
5
115
100
AcDbEntity
8
0
100
AcDbCircle
10
-176.25
20
105.5
30
0
40
1.0500000000000043
210
0
220
0
230
1
0
CIRCLE
5
116
100
AcDbEntity
8
0
100
AcDbCircle
10
-176.25
20
86.75
30
0
40
1.0500000000000043
210
0
220
0
230
1
0
CIRCLE
5
117
100
AcDbEntity
8
0
100
AcDbCircle
10
-121.25
20
118.75
30
0
40
2.1499999999999986
210
0
220
0
230
1
0
CIRCLE
5
118
100
AcDbEntity
8
0
100
AcDbCircle
10
-86.5
20
130.5
30
0
40
1.0499999999999865
210
0
220
0
230
1
0
LWPOLYLINE
5
119
100
AcDbEntity
8
0
100
AcDbPolyline
90
8
70
1
43
0.0
10
-154.70000000000002
20
65.875
42
0.41421356237311818
10
-154.25
20
65.425000000000011
10
-141.25000000000003
20
65.425000000000011
42
0.41421356237306617
10
-140.80000000000001
20
65.875
10
-140.80000000000001
20
78.875
42
0.41421356237310081
10
-141.25000000000003
20
79.325000000000003
10
-154.25
20
79.324999999999989
42
0.4142135623731355
10
-154.70000000000002
20
78.875
0
LWPOLYLINE
5
120
100
AcDbEntity
8
0
100
AcDbPolyline
90
8
70
1
43
0.0
10
-173.70000000000002
20
89.625000000000028
42
0.41421356237308343
10
-173.25000000000003
20
89.175000000000011
10
-160.25000000000003
20
89.175000000000026
42
0.41421356237314128
10
-159.80000000000001
20
89.625000000000028
10
-159.79999999999998
20
102.62500000000001
42
0.41421356237311818
10
-160.25
20
103.07500000000002
10
-173.25
20
103.07500000000002
42
0.41421356237306034
10
-173.69999999999999
20
102.62500000000001
0
LWPOLYLINE
5
121
100
AcDbEntity
8
0
100
AcDbPolyline
90
8
70
1
43
0.0
10
-192.69999999999999
20
70.625000000000014
42
0.41421356237306617
10
-192.25
20
70.174999999999997
10
-179.25
20
70.175000000000011
42
0.41421356237310658
10
-178.80000000000001
20
70.625000000000014
10
-178.79999999999995
20
83.625
42
0.41421356237306034
10
-179.24999999999997
20
84.075000000000017
10
-192.24999999999997
20
84.075000000000003
42
0.41421356237307194
10
-192.69999999999996
20
83.625
0
LWPOLYLINE
5
122
100
AcDbEntity
8
0
100
AcDbPolyline
90
8
70
1
43
0.0
10
-97.699999999999989
20
87.250000000000014
42
0.41421356237310658
10
-97.25
20
86.800000000000011
10
-84.25
20
86.800000000000011
42
0.41421356237314128
10
-83.800000000000011
20
87.250000000000014
10
-83.800000000000011
20
100.24999999999999
42
0.41421356237314128
10
-84.25
20
100.69999999999999
10
-97.25
20
100.69999999999999
42
0.41421356237310658
10
-97.699999999999989
20
100.24999999999999
0
LWPOLYLINE
5
123
100
AcDbEntity
8
0
100
AcDbPolyline
90
8
70
1
43
0.0
10
-116.70000000000002
20
103.87500000000003
42
0.41421356237310658
10
-116.25000000000001
20
103.42500000000003
10
-103.25000000000003
20
103.42500000000003
42
0.41421356237314128
10
-102.80000000000003
20
103.87500000000003
10
-102.80000000000003
20
116.875
42
0.41421356237314128
10
-103.25000000000003
20
117.325
10
-116.25000000000001
20
117.325
42
0.41421356237310658
10
-116.70000000000002
20
116.875
0
LWPOLYLINE
5
124
100
AcDbEntity
8
0
100
AcDbPolyline
90
8
70
1
43
0.0
10
-154.70000000000002
20
103.87500000000001
42
0.41421356237310658
10
-154.25
20
103.42500000000001
10
-141.25
20
103.42500000000001
42
0.41421356237310658
10
-140.80000000000001
20
103.87500000000001
10
-140.80000000000001
20
116.875
42
0.41421356237314128
10
-141.25
20
117.325
10
-154.25
20
117.325
42
0.41421356237314128
10
-154.70000000000002
20
116.875
0
LWPOLYLINE
5
125
100
AcDbEntity
8
0
100
AcDbPolyline
90
8
70
1
43
0.0
10
-192.69999999999999
20
108.625
42
0.41421356237308343
10
-192.25
20
108.17499999999998
10
-179.25
20
108.17500000000001
42
0.41421356237307194
10
-178.80000000000001
20
108.625
10
-178.79999999999995
20
121.625
42
0.41421356237306034
10
-179.24999999999997
20
122.07500000000002
10
-192.24999999999997
20
122.07499999999999
42
0.41421356237306034
10
-192.69999999999996
20
121.625
0
LWPOLYLINE
5
126
100
AcDbEntity
8
0
100
AcDbPolyline
90
10
70
1
43
0.0
10
-121.8
20
95.499999999999986
42
0.41421356237309503
10
-122.25
20
95.949999999999989
10
-135.25
20
95.949999999999989
42
0.41421356237310658
10
-135.69999999999999
20
95.499999999999986
10
-135.69999999999999
20
82.5
42
0.41421356237314128
10
-135.25
20
82.049999999999997
10
-125.39939754663253
20
82.049999999999969
42
-0.36940045914307351
10
-123.37409636315714
20
80.317261904761907
42
1.7350598279742941
10
-120.48214285714283
20
82.658207013274122
42
-0.3108678928628375
10
-121.8
20
84.573009049186624
0
LWPOLYLINE
5
127
100
AcDbEntity
8
0
100
AcDbPolyline
90
8
70
1
43
0.0
10
-103.2808606993666
20
124.6726897655489
42
0.41421356237308388
10
-102.7297255072335
20
124.35449171402698
10
-90.17268976554891
20
127.71913930063343
42
0.41421356237310919
10
-89.854491714026977
20
128.27027449276659
10
-93.219139300633401
20
140.82731023445115
42
0.41421356237310919
10
-93.770274492766546
20
141.14550828597305
10
-106.32731023445112
20
137.7808606993666
42
0.41421356237310919
10
-106.64550828597305
20
137.22972550723344
0
LWPOLYLINE
5
128
100
AcDbEntity
8
0
100
AcDbPolyline
90
37
70
1
43
0.0
10
-100.25
20
65.700000000000003
10
-82.25
20
65.700000000000003
42
0.41421356237309503
10
-81.700000000000003
20
66.25
10
-81.700000000000003
20
67.5
42
-0.41421356237309503
10
-81.25
20
67.950000000000003
42
0.41421356237307611
10
-80.700000000000003
20
68.5
10
-80.700000000000017
20
116.16875106070231
42
-0.26860862559726201
10
-80.222974142625674
20
116.99264150269536
10
-61.663476988136111
20
127.64716764693929
42
0.41421356237308399
10
-61.275622130940576
20
129.08054429309681
10
-74.907612560048292
20
152.82659213734894
42
0.41422252528712578
10
-76.206615773089283
20
153.07237132523579
10
-91.016727226264379
20
144.54806291122884
10
-128.0037834603053
20
139.04998149286888
42
0.19777057180711882
10
-128.38987000557711
20
138.88793728336097
10
-138.93448521844383
20
124.42912800822042
42
-0.1967255209053157
10
-139.25000000000003
20
124.29999065288703
10
-175.24999998701793
20
124.3
10
-194.25
20
124.30000000000001
42
0.41421356237309503
10
-194.80000000000004
20
123.75
10
-194.80000000000001
20
68.5
42
0.41421356237309503
10
-194.25
20
67.950000000000003
10
-157.25
20
67.950000000000003
42
-0.41421356237309503
10
-156.80000000000001
20
67.5
10
-156.80000000000001
20
63.75
42
0.41421356237309503
10
-156.25
20
63.199999999999989
10
-138.25
20
63.200000000000003
42
-0.41421356237309503
10
-137.80000000000001
20
62.75
10
-137.80000000000001
20
61.5
42
0.41421356237309503
10
-137.25
20
60.950000000000003
10
-120.25
20
60.950000000000003
42
0.41421356237309503
10
-119.7
20
61.5
10
-119.7
20
62.75
42
-0.41421356237309503
10
-119.25
20
63.200000000000003
10
-101.25
20
63.200000000000003
42
0.41421356237309503
10
-100.7
20
63.75
10
-100.7
20
65.25
42
-0.41421356237309503
0
CIRCLE
5
129
100
AcDbEntity
8
0
100
AcDbCircle
10
-100.25
20
83
30
0
40
1.0999999999999943
210
0
220
0
230
1
0
ENDSEC
0
SECTION
2
OBJECTS
0
DICTIONARY
5
C
100
AcDbDictionary
3
ACAD_GROUP
350
D
3
ACAD_MLINESTYLE
350
17
0
DICTIONARY
5
D
100
AcDbDictionary
0
DICTIONARY
5
1A
330
C
100
AcDbDictionary
0
DICTIONARY
5
17
100
AcDbDictionary
0
ENDSEC
0
EOF
