0
SECTION
2
HEADER
9
$INSUNITS
70
4
9
$ACADVER
1
AC1014
9
$HANDSEED
5
FFFF
0
ENDSEC
0
SECTION
2
TABLES
0
TABLE
2
VPORT
5
8
100
AcDbSymbolTable
0
ENDTAB
0
TABLE
2
LTYPE
5
5
100
AcDbSymbolTable
0
LTYPE
5
14
100
AcDbSymbolTableRecord
100
AcDbLinetypeTableRecord
2
BYBLOCK
70
0
0
LTYPE
5
15
100
AcDbSymbolTableRecord
100
AcDbLinetypeTableRecord
2
BYLAYER
70
0
0
ENDTAB
0
TABLE
2
LAYER
5
2
100
AcDbSymbolTable
70
2
0
LAYER
5
50
100
AcDbSymbolTableRecord
100
AcDbLayerTableRecord
2
0
70
0
6
CONTINUOUS
0
ENDTAB
0
TABLE
2
STYLE
5
3
100
AcDbSymbolTable
70
1
0
STYLE
5
11
100
AcDbSymbolTableRecord
100
AcDbTextStyleTableRecord
2
STANDARD
70
0
0
ENDTAB
0
TABLE
2
VIEW
5
6
100
AcDbSymbolTable
70
0
0
ENDTAB
0
TABLE
2
UCS
5
7
100
AcDbSymbolTable
70
0
0
ENDTAB
0
TABLE
2
APPID
5
9
100
AcDbSymbolTable
70
2
0
APPID
5
12
100
AcDbSymbolTableRecord
100
AcDbRegAppTableRecord
2
ACAD
70
0
0
ENDTAB
0
TABLE
2
DIMSTYLE
5
A
100
AcDbSymbolTable
70
1
0
ENDTAB
0
TABLE
2
BLOCK_RECORD
5
1
100
AcDbSymbolTable
70
1
0
BLOCK_RECORD
5
1F
100
AcDbSymbolTableRecord
100
AcDbBlockTableRecord
2
*MODEL_SPACE
0
BLOCK_RECORD
5
1B
100
AcDbSymbolTableRecord
100
AcDbBlockTableRecord
2
*PAPER_SPACE
0
ENDTAB
0
ENDSEC
0
SECTION
2
BLOCKS
0
BLOCK
5
20
100
AcDbEntity
100
AcDbBlockBegin
2
*MODEL_SPACE
0
ENDBLK
5
21
100
AcDbEntity
100
AcDbBlockEnd
0
BLOCK
5
1C
100
AcDbEntity
100
AcDbBlockBegin
2
*PAPER_SPACE
0
ENDBLK
5
1D
100
AcDbEntity
100
AcDbBlockEnd
0
ENDSEC
0
SECTION
2
ENTITIES
0
LWPOLYLINE
5
100
100
AcDbEntity
8
0
100
AcDbPolyline
90
8
70
1
43
0.0
10
97.250000000000014
20
-81.650000000000006
42
0.41421356237319906
10
97.65000000000002
20
-81.25
10
97.650000000000006
20
-68.25
42
0.41421356237301049
10
97.250000000000028
20
-67.849999999999994
10
84.249999999999986
20
-67.850000000000023
42
0.41421356237307549
10
83.849999999999994
20
-68.250000000000028
10
83.849999999999994
20
-81.25
42
0.41421356237314705
10
84.25
20
-81.650000000000006
0
LWPOLYLINE
5
101
100
AcDbEntity
8
0
100
AcDbPolyline
90
8
70
1
43
0.0
10
97.250000000000014
20
-119.65000000000002
42
0.41421356237309503
10
97.650000000000063
20
-119.25
10
97.650000000000034
20
-106.25
42
0.41421356237313406
10
97.250000000000014
20
-105.85000000000001
10
84.25
20
-105.85000000000001
42
0.41421356237319906
10
83.849999999999994
20
-106.25
10
83.849999999999994
20
-119.25
42
0.41421356237314705
10
84.25
20
-119.65000000000002
0
LWPOLYLINE
5
102
100
AcDbEntity
8
0
100
AcDbPolyline
90
8
70
1
43
0.0
10
84.25
20
-86.850000000000009
42
0.41421356237314705
10
83.849999999999994
20
-87.250000000000014
10
83.849999999999994
20
-100.25
42
0.41421356237310802
10
84.25
20
-100.65000000000001
10
97.250000000000014
20
-100.65000000000001
42
0.41421356237318607
10
97.650000000000006
20
-100.25
10
97.650000000000006
20
-87.250000000000014
42
0.41421356237319906
10
97.250000000000014
20
-86.850000000000009
0
CIRCLE
5
103
100
AcDbEntity
8
0
100
AcDbCircle
10
100.25
20
-83
30
0
40
2.0500000000000007
210
0
220
-0
230
1
0
LWPOLYLINE
5
104
100
AcDbEntity
8
0
100
AcDbPolyline
90
8
70
1
43
0.0
10
102.75000000000006
20
-116.875
42
0.41421356237310542
10
103.25000000000004
20
-117.375
10
116.25
20
-117.375
42
0.41421356237309503
10
116.75000000000004
20
-116.875
10
116.75000000000006
20
-103.87500000000004
42
0.4142135623730534
10
116.25
20
-103.37500000000006
10
103.25000000000004
20
-103.37500000000006
42
0.41421356237309503
10
102.75000000000006
20
-103.87500000000004
0
CIRCLE
5
105
100
AcDbEntity
8
0
100
AcDbCircle
10
121.25
20
-118.75
30
0
40
2.1000000000000085
210
0
220
-0
230
1
0
LWPOLYLINE
5
106
100
AcDbEntity
8
0
100
AcDbPolyline
90
4
70
1
43
0.0
10
101.86500000000001
20
-92.265000000000001
10
98.364999999999995
20
-92.265000000000001
10
98.364999999999995
20
-86.465000000000018
10
101.86500000000001
20
-86.465000000000003
0
LWPOLYLINE
5
107
100
AcDbEntity
8
0
100
AcDbPolyline
90
10
70
1
43
0.0
10
116.25
20
-98.275000000000006
42
0.41421356237319906
10
116.64999999999999
20
-97.875000000000014
10
116.65000000000001
20
-84.875000000000028
42
0.41421356237310802
10
116.25
20
-84.475000000000023
10
103.25000000000004
20
-84.475000000000023
42
0.41421356237305601
10
102.85000000000005
20
-84.875000000000028
10
102.85000000000008
20
-95.758236435299565
42
-0.31435722602862565
10
101.47500000000002
20
-97.729118217649798
42
1.7417836785360128
10
104.27270204081535
20
-100.03749999999999
42
-0.3676888120665176
10
106.34540408163065
20
-98.275000000000006
0
LWPOLYLINE
5
108
100
AcDbEntity
8
0
100
AcDbPolyline
90
8
70
1
43
0.0
10
160.25000000000003
20
-70.225000000000037
42
0.41421356237311452
10
159.84999999999999
20
-70.625000000000014
10
159.84999999999999
20
-83.625
42
0.41421356237313406
10
160.25000000000003
20
-84.025000000000006
10
173.25
20
-84.02500000000002
42
0.41421356237314705
10
173.64999999999998
20
-83.625000000000028
10
173.64999999999998
20
-70.625000000000014
42
0.4142135623730625
10
173.25000000000003
20
-70.225000000000009
0
CIRCLE
5
109
100
AcDbEntity
8
0
100
AcDbCircle
10
133
20
-122.75
30
0
40
2.0500000000000007
210
0
220
-0
230
1
0
LWPOLYLINE
5
110
100
AcDbEntity
8
0
100
AcDbPolyline
90
10
70
1
43
0.0
10
123.32469877331627
20
-80.324999999999989
42
1.7350598279743155
10
120.49999999999994
20
-82.611504524593343
42
-0.31086789286284638
10
121.85000000000001
20
-84.573009049186624
10
121.85000000000001
20
-95.499999999999986
42
0.41421356237309503
10
122.25
20
-95.90000000000002
10
135.25
20
-95.900000000000034
42
0.41421356237299095
10
135.65000000000001
20
-95.499999999999986
10
135.65000000000001
20
-82.5
42
0.41421356237318607
10
135.25
20
-82.100000000000009
10
125.39939754663251
20
-82.099999999999966
42
-0.36940045914307912
0
LWPOLYLINE
5
111
100
AcDbEntity
8
0
100
AcDbPolyline
90
8
70
1
43
0.0
10
154.25
20
-79.274999999999991
42
0.41421356237313406
10
154.65000000000001
20
-78.875
10
154.65000000000001
20
-65.875
42
0.41421356237313406
10
154.25000000000003
20
-65.475000000000009
10
141.25000000000003
20
-65.474999999999994
42
0.41421356237314055
10
140.85000000000002
20
-65.875
10
140.84999999999999
20
-78.875
42
0.41421356237304302
10
141.25000000000003
20
-79.27500000000002
0
CIRCLE
5
112
100
AcDbEntity
8
0
100
AcDbCircle
10
176.25
20
-86.75
30
0
40
2.0499999999999829
210
0
220
-0
230
1
0
LWPOLYLINE
5
113
100
AcDbEntity
8
0
100
AcDbPolyline
90
8
70
1
43
0.0
10
135.25
20
-76.900000000000006
42
0.41421356237308854
10
135.64999999999998
20
-76.5
10
135.65000000000001
20
-63.5
42
0.41421356237313406
10
135.25000000000003
20
-63.09999999999998
10
122.25
20
-63.100000000000009
42
0.41421356237307549
10
121.85000000000001
20
-63.500000000000014
10
121.85000000000001
20
-76.500000000000028
42
0.41421356237313406
10
122.25
20
-76.90000000000002
0
LWPOLYLINE
5
114
100
AcDbEntity
8
0
100
AcDbPolyline
90
8
70
1
43
0.0
10
66.920834875439411
20
-133.77442471376003
42
0.41421356237312412
10
66.774424713917966
20
-134.32083487527177
10
73.274424713759984
20
-145.5791651245606
42
0.41421356237310392
10
73.820834875271728
20
-145.72557528608203
10
85.079165124560618
20
-139.22557528624
42
0.41421356237317086
10
85.225575286082062
20
-138.67916512472829
10
78.725575286239987
20
-127.4208348754394
42
0.4142135623731007
10
78.179165124728257
20
-127.27442471391797
0
LWPOLYLINE
5
115
100
AcDbEntity
8
0
100
AcDbPolyline
90
8
70
1
43
0.0
10
90.185630717805068
20
-127.76743559194765
42
0.41421356237308249
10
89.902788005341165
20
-128.25733354051042
10
93.26743559194756
20
-140.81436928219495
42
0.41421356237306994
10
93.757333540510388
20
-141.09721199465892
10
106.31436928219493
20
-137.73256440805244
42
0.4142135623731269
10
106.59721199465889
20
-137.24266645948967
10
103.23256440805244
20
-124.68563071780508
42
0.41421356237312018
10
102.74266645948963
20
-124.40278800534115
0
CIRCLE
5
116
100
AcDbEntity
8
0
100
AcDbCircle
10
157.25
20
-86.75
30
0
40
2.0500000000000007
210
0
220
-0
230
1
0
CIRCLE
5
117
100
AcDbEntity
8
0
100
AcDbCircle
10
176.25
20
-105.5
30
0
40
2.0499999999999829
210
0
220
-0
230
1
0
LWPOLYLINE
5
118
100
AcDbEntity
8
0
100
AcDbPolyline
90
8
70
1
43
0.0
10
116.25000000000001
20
-79.27500000000002
42
0.41421356237307549
10
116.65000000000003
20
-78.875000000000014
10
116.65000000000001
20
-65.875
42
0.41421356237313406
10
116.25000000000001
20
-65.475000000000009
10
103.25
20
-65.475000000000009
42
0.41421356237309503
10
102.85000000000005
20
-65.875
10
102.85000000000002
20
-78.875000000000014
42
0.41421356237311452
10
103.25000000000001
20
-79.275000000000034
0
LWPOLYLINE
5
119
100
AcDbEntity
8
0
100
AcDbPolyline
90
8
70
1
43
0.0
10
122.25000000000001
20
-101.10000000000001
42
0.41421356237309503
10
121.85000000000001
20
-101.50000000000006
10
121.85000000000001
20
-114.50000000000001
42
0.41421356237310802
10
122.25000000000001
20
-114.90000000000001
10
135.25
20
-114.90000000000001
42
0.41421356237305601
10
135.65000000000001
20
-114.50000000000001
10
135.65000000000001
20
-101.50000000000006
42
0.41421356237308204
10
135.25
20
-101.10000000000001
0
LWPOLYLINE
5
120
100
AcDbEntity
8
0
100
AcDbPolyline
90
8
70
1
43
0.0
10
179.25
20
-108.22499999999999
42
0.41421356237314705
10
178.85000000000002
20
-108.62499999999999
10
178.85000000000002
20
-121.62500000000001
42
0.41421356237309503
10
179.24999999999997
20
-122.02500000000003
10
192.25
20
-122.02500000000002
42
0.41421356237297796
10
192.64999999999998
20
-121.62500000000001
10
192.65000000000001
20
-108.625
42
0.414213562373004
10
192.25
20
-108.22500000000005
0
LWPOLYLINE
5
121
100
AcDbEntity
8
0
100
AcDbPolyline
90
8
70
1
43
0.0
10
160.25000000000003
20
-89.225000000000023
42
0.414213562373069
10
159.84999999999997
20
-89.625000000000043
10
159.84999999999997
20
-102.62500000000001
42
0.41421356237301699
10
160.25000000000003
20
-103.02500000000002
10
173.25000000000003
20
-103.02500000000001
42
0.41421356237305601
10
173.64999999999998
20
-102.62500000000001
10
173.64999999999998
20
-89.625000000000043
42
0.41421356237308204
10
173.25000000000006
20
-89.225000000000051
0
LWPOLYLINE
5
122
100
AcDbEntity
8
0
100
AcDbPolyline
90
8
70
1
43
0.0
10
179.25000000000006
20
-89.224999999999994
42
0.41421356237310802
10
178.84999999999997
20
-89.625000000000028
10
178.84999999999997
20
-102.62500000000001
42
0.41421356237296497
10
179.25
20
-103.02500000000003
10
192.25
20
-103.02499999999998
42
0.41421356237312101
10
192.65000000000003
20
-102.62500000000001
10
192.65000000000001
20
-89.625000000000043
42
0.41421356237296497
10
192.24999999999997
20
-89.225000000000009
0
LWPOLYLINE
5
123
100
AcDbEntity
8
0
100
AcDbPolyline
90
8
70
1
43
0.0
10
160.25000000000003
20
-108.22499999999999
42
0.41421356237314705
10
159.85000000000002
20
-108.625
10
159.84999999999999
20
-121.62500000000001
42
0.41421356237313406
10
160.25000000000003
20
-122.02500000000001
10
173.25000000000003
20
-122.02500000000001
42
0.41421356237293894
10
173.64999999999998
20
-121.62500000000001
10
173.64999999999998
20
-108.625
42
0.41421356237308204
10
173.25000000000003
20
-108.22500000000005
0
LWPOLYLINE
5
124
100
AcDbEntity
8
0
100
AcDbPolyline
90
8
70
1
43
0.0
10
112.75000000000006
20
-123.10000000000001
42
0.41421356237309503
10
112.35000000000001
20
-123.50000000000001
10
112.35000000000001
20
-136.5
42
0.41421356237308204
10
112.75000000000006
20
-136.90000000000001
10
125.75000000000001
20
-136.90000000000001
42
0.41421356237305601
10
126.15000000000001
20
-136.5
10
126.15000000000001
20
-123.50000000000001
42
0.41421356237310802
10
125.75000000000001
20
-123.10000000000001
0
LWPOLYLINE
5
125
100
AcDbEntity
8
0
100
AcDbPolyline
90
8
70
1
43
0.0
10
179.25
20
-70.224999999999994
42
0.41421356237317308
10
178.85000000000005
20
-70.625
10
178.85000000000002
20
-83.625
42
0.41421356237316009
10
179.24999999999994
20
-84.025000000000034
10
192.25
20
-84.025000000000034
42
0.414213562373069
10
192.65000000000001
20
-83.625
10
192.65000000000001
20
-70.625000000000014
42
0.41421356237293894
10
192.24999999999997
20
-70.224999999999994
0
LWPOLYLINE
5
126
100
AcDbEntity
8
0
100
AcDbPolyline
90
10
70
1
43
0.0
10
154.25
20
-98.275000000000006
42
0.41421356237319906
10
154.65000000000001
20
-97.875000000000014
10
154.65000000000001
20
-84.875000000000028
42
0.41421356237310802
10
154.25
20
-84.475000000000023
10
141.25
20
-84.475000000000023
42
0.41421356237318607
10
140.85000000000002
20
-84.875000000000028
10
140.85000000000002
20
-95.796475951143648
42
-0.30736845131238355
10
139.52499999999998
20
-97.748237975571811
42
1.7163584595188728
10
142.37270204081537
20
-100.03750000000002
42
-0.36768881206652476
10
144.44540408163073
20
-98.275000000000006
0
CIRCLE
5
127
100
AcDbEntity
8
0
100
AcDbCircle
10
86.5
20
-130.5
30
0
40
2.0500000000000007
210
0
220
-0
230
1
0
CIRCLE
5
128
100
AcDbEntity
8
0
100
AcDbCircle
10
157.25
20
-105.75000000000001
30
0
40
2.0500000000000007
210
0
220
-0
230
1
0
LWPOLYLINE
5
129
100
AcDbEntity
8
0
100
AcDbPolyline
90
8
70
1
43
0.0
10
141.25
20
-103.47499999999999
42
0.41421356237318607
10
140.85000000000002
20
-103.87500000000001
10
140.85000000000002
20
-116.875
42
0.41421356237319906
10
141.25
20
-117.27500000000001
10
154.25
20
-117.27500000000001
42
0.41421356237314705
10
154.65000000000001
20
-116.875
10
154.65000000000001
20
-103.87500000000001
42
0.41421356237310802
10
154.25
20
-103.47499999999999
0
LWPOLYLINE
5
130
100
AcDbEntity
8
0
100
AcDbPolyline
90
37
70
1
43
0.0
10
81.249999999999943
20
-67.90000000000002
42
0.41421356237303869
10
80.650000000000034
20
-68.5
10
80.650000000000006
20
-116.16875106070232
42
-0.26860862559726262
10
80.198080766697984
20
-116.94927884785363
10
61.63858361220845
20
-127.60380499209757
42
0.41421356237308127
10
61.232259476098818
20
-129.1054376690245
10
74.86519933221787
20
-152.85313935387708
42
0.41423079571580629
10
76.233187294123752
20
-153.11476812078399
10
91.033454452528773
20
-144.59612582245768
10
128.00772652337503
20
-139.09994475457887
42
0.19790520859038299
10
128.4280621170098
20
-138.92042387145747
10
138.97239473160082
20
-124.46200209595419
42
-0.19414185408168125
10
139.24999997403583
20
-124.34999065288704
10
175.25000000000003
20
-124.35000000000001
10
194.25
20
-124.35000000000001
42
0.41421356237313839
10
194.84999999999999
20
-123.75
10
194.85000000000002
20
-68.5
42
0.41421356237305174
10
194.25000000000011
20
-67.899999999999963
10
157.25
20
-67.900000000000006
42
-0.41421356237312101
10
156.84999999999999
20
-67.5
10
156.84999999999999
20
-63.75
42
0.41421356237310802
10
156.24999999999997
20
-63.149999999999984
10
138.25000000000003
20
-63.150000000000034
42
-0.414213562373069
10
137.84999999999999
20
-62.75
10
137.84999999999999
20
-61.499999999999993
42
0.41421356237306034
10
137.25000000000003
20
-60.900000000000027
10
120.25
20
-60.90000000000002
42
0.41421356237311241
10
119.65000000000002
20
-61.5
10
119.65000000000002
20
-62.750000000000014
42
-0.41421356237314055
10
119.25
20
-63.150000000000013
10
101.25
20
-63.150000000000006
42
0.41421356237306034
10
100.65000000000001
20
-63.75
10
100.64999999999998
20
-65.25
42
-0.41421356237308854
10
100.25
20
-65.650000000000006
10
82.25
20
-65.650000000000006
42
0.41421356237310375
10
81.650000000000034
20
-66.25
10
81.649999999999991
20
-67.5
42
-0.41421356237317308
0
ENDSEC
0
SECTION
2
OBJECTS
0
DICTIONARY
5
C
100
AcDbDictionary
3
ACAD_GROUP
350
D
3
ACAD_MLINESTYLE
350
17
0
DICTIONARY
5
D
100
AcDbDictionary
0
DICTIONARY
5
1A
330
C
100
AcDbDictionary
0
DICTIONARY
5
17
100
AcDbDictionary
0
ENDSEC
0
EOF
