0
SECTION
2
HEADER
9
$INSUNITS
70
4
9
$ACADVER
1
AC1014
9
$HANDSEED
5
FFFF
0
ENDSEC
0
SECTION
2
TABLES
0
TABLE
2
VPORT
5
8
100
AcDbSymbolTable
0
ENDTAB
0
TABLE
2
LTYPE
5
5
100
AcDbSymbolTable
0
LTYPE
5
14
100
AcDbSymbolTableRecord
100
AcDbLinetypeTableRecord
2
BYBLOCK
70
0
0
LTYPE
5
15
100
AcDbSymbolTableRecord
100
AcDbLinetypeTableRecord
2
BYLAYER
70
0
0
ENDTAB
0
TABLE
2
LAYER
5
2
100
AcDbSymbolTable
70
2
0
LAYER
5
50
100
AcDbSymbolTableRecord
100
AcDbLayerTableRecord
2
0
70
0
6
CONTINUOUS
0
ENDTAB
0
TABLE
2
STYLE
5
3
100
AcDbSymbolTable
70
1
0
STYLE
5
11
100
AcDbSymbolTableRecord
100
AcDbTextStyleTableRecord
2
STANDARD
70
0
0
ENDTAB
0
TABLE
2
VIEW
5
6
100
AcDbSymbolTable
70
0
0
ENDTAB
0
TABLE
2
UCS
5
7
100
AcDbSymbolTable
70
0
0
ENDTAB
0
TABLE
2
APPID
5
9
100
AcDbSymbolTable
70
2
0
APPID
5
12
100
AcDbSymbolTableRecord
100
AcDbRegAppTableRecord
2
ACAD
70
0
0
ENDTAB
0
TABLE
2
DIMSTYLE
5
A
100
AcDbSymbolTable
70
1
0
ENDTAB
0
TABLE
2
BLOCK_RECORD
5
1
100
AcDbSymbolTable
70
1
0
BLOCK_RECORD
5
1F
100
AcDbSymbolTableRecord
100
AcDbBlockTableRecord
2
*MODEL_SPACE
0
BLOCK_RECORD
5
1B
100
AcDbSymbolTableRecord
100
AcDbBlockTableRecord
2
*PAPER_SPACE
0
ENDTAB
0
ENDSEC
0
SECTION
2
BLOCKS
0
BLOCK
5
20
100
AcDbEntity
100
AcDbBlockBegin
2
*MODEL_SPACE
0
ENDBLK
5
21
100
AcDbEntity
100
AcDbBlockEnd
0
BLOCK
5
1C
100
AcDbEntity
100
AcDbBlockBegin
2
*PAPER_SPACE
0
ENDBLK
5
1D
100
AcDbEntity
100
AcDbBlockEnd
0
ENDSEC
0
SECTION
2
ENTITIES
0
LWPOLYLINE
5
100
100
AcDbEntity
8
0
100
AcDbPolyline
90
8
70
1
43
0.0
10
-97.75
20
68.25
10
-97.75
20
81.25
42
-0.41421356237309503
10
-97.25
20
81.75
10
-84.25
20
81.75
42
-0.41421356237309503
10
-83.75
20
81.25
10
-83.75
20
68.250000000000014
42
-0.41421356237309503
10
-84.25
20
67.750000000000014
10
-97.25
20
67.75
42
-0.41421356237309503
0
LWPOLYLINE
5
101
100
AcDbEntity
8
0
100
AcDbPolyline
90
8
70
1
43
0.0
10
-78.812177826619148
20
127.37083487544062
10
-85.312177826461181
20
138.6291651247295
42
-0.41421356237309503
10
-85.129165124559378
20
139.31217782661915
10
-73.870834875270504
20
145.81217782646121
42
-0.41421356237309243
10
-73.187822173380852
20
145.62916512455939
10
-66.687822173538805
20
134.37083487527053
42
-0.41421356237310669
10
-66.870834875440622
20
133.68782217338088
10
-78.129165124729468
20
127.18782217353879
42
-0.41421356237309764
0
LWPOLYLINE
5
102
100
AcDbEntity
8
0
100
AcDbPolyline
90
8
70
1
43
0.0
10
-103.32915699068079
20
124.65974881329272
10
-106.69380457728722
20
137.21678455497727
42
-0.41421356237309503
10
-106.34025118670729
20
137.82915699068076
10
-93.783215445022719
20
141.19380457728724
42
-0.41421356237309503
10
-93.170843009319228
20
140.84025118670729
10
-89.806195422712818
20
128.28321544502276
42
-0.41421356237309503
10
-90.159748813292737
20
127.67084300931927
10
-102.71678455497729
20
124.3061954227128
42
-0.41421356237309237
0
LWPOLYLINE
5
103
100
AcDbEntity
8
0
100
AcDbPolyline
90
8
70
1
43
0.0
10
-126.25000000000001
20
123.50000000000001
10
-126.25000000000001
20
136.5
42
-0.41421356237309503
10
-125.75000000000001
20
137
10
-112.75000000000003
20
137
42
-0.41421356237309503
10
-112.25000000000001
20
136.5
10
-112.25000000000001
20
123.50000000000001
42
-0.41421356237309503
10
-112.75000000000003
20
123
10
-125.75000000000001
20
123
42
-0.41421356237309503
0
LWPOLYLINE
5
104
100
AcDbEntity
8
0
100
AcDbPolyline
90
8
70
1
43
0.0
10
-192.75
20
108.625
10
-192.75
20
121.625
42
-0.41421356237309503
10
-192.24999999999997
20
122.125
10
-179.24999999999997
20
122.125
42
-0.41421356237309503
10
-178.74999999999997
20
121.625
10
-178.75
20
108.625
42
-0.41421356237309503
10
-179.25
20
108.125
10
-192.25
20
108.12500000000003
42
-0.41421356237309503
0
LWPOLYLINE
5
105
100
AcDbEntity
8
0
100
AcDbPolyline
90
8
70
1
43
0.0
10
-173.75
20
108.625
10
-173.75
20
121.625
42
-0.41421356237309503
10
-173.25
20
122.125
10
-160.25
20
122.125
42
-0.41421356237309503
10
-159.74999999999997
20
121.625
10
-159.75
20
108.625
42
-0.41421356237309503
10
-160.25000000000003
20
108.125
10
-173.25000000000003
20
108.12500000000003
42
-0.41421356237309503
0
LWPOLYLINE
5
106
100
AcDbEntity
8
0
100
AcDbPolyline
90
8
70
1
43
0.0
10
-154.75
20
103.87500000000001
10
-154.75
20
116.875
42
-0.41421356237309503
10
-154.25
20
117.375
10
-141.25
20
117.375
42
-0.41421356237309503
10
-140.75
20
116.875
10
-140.75
20
103.87500000000001
42
-0.41421356237309503
10
-141.25
20
103.375
10
-154.25
20
103.375
42
-0.41421356237309503
0
LWPOLYLINE
5
107
100
AcDbEntity
8
0
100
AcDbPolyline
90
8
70
1
43
0.0
10
-135.75
20
101.50000000000003
10
-135.75
20
114.5
42
-0.41421356237309503
10
-135.25
20
115
10
-122.25000000000001
20
115
42
-0.41421356237309503
10
-121.75
20
114.5
10
-121.75
20
101.50000000000003
42
-0.41421356237309503
10
-122.25000000000001
20
101.00000000000001
10
-135.25
20
101.00000000000001
42
-0.41421356237309503
0
LWPOLYLINE
5
108
100
AcDbEntity
8
0
100
AcDbPolyline
90
8
70
1
43
0.0
10
-116.75
20
65.875
10
-116.75
20
78.875000000000014
42
-0.41421356237309503
10
-116.25
20
79.375000000000014
10
-103.25000000000001
20
79.375000000000028
42
-0.41421356237309503
10
-102.75
20
78.875000000000014
10
-102.75000000000003
20
65.875
42
-0.41421356237309503
10
-103.25000000000001
20
65.375
10
-116.25
20
65.375
42
-0.41421356237309503
0
LWPOLYLINE
5
109
100
AcDbEntity
8
0
100
AcDbPolyline
90
8
70
1
43
0.0
10
-135.75
20
63.499999999999986
10
-135.75
20
76.5
42
-0.41421356237309503
10
-135.25
20
77
10
-122.25
20
77.000000000000014
42
-0.41421356237309503
10
-121.74999999999999
20
76.500000000000014
10
-121.75
20
63.5
42
-0.41421356237309503
10
-122.25
20
63
10
-135.25
20
62.999999999999979
42
-0.41421356237309503
0
LWPOLYLINE
5
110
100
AcDbEntity
8
0
100
AcDbPolyline
90
8
70
1
43
0.0
10
-116.75000000000003
20
103.87500000000003
10
-116.75000000000003
20
116.875
42
-0.41421356237309503
10
-116.25000000000001
20
117.375
10
-103.25000000000003
20
117.375
42
-0.41421356237309503
10
-102.75000000000003
20
116.875
10
-102.75000000000003
20
103.87500000000003
42
-0.41421356237309503
10
-103.25000000000003
20
103.37500000000003
10
-116.25000000000001
20
103.37500000000003
42
-0.41421356237309503
0
LWPOLYLINE
5
111
100
AcDbEntity
8
0
100
AcDbPolyline
90
8
70
1
43
0.0
10
-97.750000000000028
20
106.25000000000001
10
-97.750000000000028
20
119.25
42
-0.41421356237309503
10
-97.250000000000014
20
119.75000000000001
10
-84.25
20
119.75000000000001
42
-0.41421356237309503
10
-83.75
20
119.25
10
-83.75
20
106.25000000000001
42
-0.41421356237309503
10
-84.25
20
105.75000000000001
10
-97.250000000000014
20
105.75000000000001
42
-0.41421356237309503
0
LWPOLYLINE
5
112
100
AcDbEntity
8
0
100
AcDbPolyline
90
8
70
1
43
0.0
10
-154.75
20
65.875
10
-154.75
20
78.875
42
-0.41421356237309503
10
-154.25
20
79.374999999999986
10
-141.25000000000003
20
79.375000000000014
42
-0.41421356237309503
10
-140.75
20
78.875
10
-140.75000000000003
20
65.875
42
-0.41421356237309503
10
-141.25000000000003
20
65.375
10
-154.25
20
65.375
42
-0.41421356237309503
0
LWPOLYLINE
5
113
100
AcDbEntity
8
0
100
AcDbPolyline
90
8
70
1
43
0.0
10
-173.75
20
70.625000000000014
10
-173.75
20
83.625
42
-0.41421356237309503
10
-173.25
20
84.125000000000014
10
-160.25
20
84.125000000000014
42
-0.41421356237309503
10
-159.74999999999997
20
83.625
10
-159.75
20
70.625000000000014
42
-0.41421356237309503
10
-160.25000000000003
20
70.125000000000014
10
-173.25000000000003
20
70.125000000000043
42
-0.41421356237309503
0
LWPOLYLINE
5
114
100
AcDbEntity
8
0
100
AcDbPolyline
90
8
70
1
43
0.0
10
-192.75
20
70.625000000000014
10
-192.75
20
83.625
42
-0.41421356237309503
10
-192.24999999999997
20
84.125000000000014
10
-179.24999999999997
20
84.125000000000014
42
-0.41421356237309503
10
-178.74999999999997
20
83.625
10
-178.75
20
70.625000000000014
42
-0.41421356237309503
10
-179.25
20
70.125000000000014
10
-192.25
20
70.125000000000043
42
-0.41421356237309503
0
LWPOLYLINE
5
115
100
AcDbEntity
8
0
100
AcDbPolyline
90
8
70
1
43
0.0
10
-192.75
20
89.625000000000028
10
-192.75
20
102.625
42
-0.41421356237309503
10
-192.24999999999997
20
103.125
10
-179.24999999999997
20
103.125
42
-0.41421356237309503
10
-178.74999999999997
20
102.625
10
-178.75
20
89.625000000000028
42
-0.41421356237309503
10
-179.25
20
89.125000000000014
10
-192.25
20
89.125000000000057
42
-0.41421356237309503
0
LWPOLYLINE
5
116
100
AcDbEntity
8
0
100
AcDbPolyline
90
8
70
1
43
0.0
10
-173.75
20
89.625000000000028
10
-173.75
20
102.62500000000001
42
-0.41421356237309503
10
-173.25
20
103.12500000000001
10
-160.25
20
103.12500000000001
42
-0.41421356237309503
10
-159.74999999999997
20
102.62500000000001
10
-159.75
20
89.625000000000028
42
-0.41421356237309503
10
-160.25000000000003
20
89.125000000000014
10
-173.25000000000003
20
89.125000000000057
42
-0.41421356237309503
0
LWPOLYLINE
5
117
100
AcDbEntity
8
0
100
AcDbPolyline
90
8
70
1
43
0.0
10
-97.75
20
87.250000000000014
10
-97.75
20
100.24999999999999
42
-0.41421356237309503
10
-97.25
20
100.75
10
-84.25
20
100.75
42
-0.41421356237309503
10
-83.75
20
100.24999999999999
10
-83.75
20
87.250000000000014
42
-0.41421356237309503
10
-84.25
20
86.75
10
-97.25
20
86.75
42
-0.41421356237309503
0
LWPOLYLINE
5
118
100
AcDbEntity
8
0
100
AcDbPolyline
90
37
70
1
43
0.0
10
-81.25
20
68
42
0.41421356237307422
10
-80.75
20
68.5
10
-80.750000000000028
20
116.16875106070231
42
-0.26860862559726095
10
-80.247867518553335
20
117.03600415753711
10
-61.688370364063786
20
127.69053030178102
42
0.41421356237308082
10
-61.318984785782291
20
129.05565091716915
10
-74.950000000000017
20
152.80000000000001
42
0.41421356237310325
10
-76.180000000000021
20
153.03
10
-91
20
144.5
10
-128
20
138.99999450639999
42
0.19761610742884073
10
-128.35178127951886
20
138.85530893291647
10
-138.89643999999976
20
124.39643999999974
42
-0.19891236737966078
10
-139.25000000000003
20
124.24999065288702
10
-175.25000000000003
20
124.25
10
-194.25
20
124.25
42
0.41421356237309503
10
-194.75
20
123.75
10
-194.75
20
68.5
42
0.41421356237309503
10
-194.25
20
68
10
-157.25
20
68
42
-0.41421356237309503
10
-156.75
20
67.5
10
-156.75
20
63.75
42
0.41421356237309503
10
-156.25
20
63.249999999999993
10
-138.25
20
63.250000000000014
42
-0.41421356237309503
10
-137.75
20
62.75
10
-137.75
20
61.5
42
0.41421356237309503
10
-137.25
20
61.000000000000014
10
-120.25
20
61.000000000000007
42
0.41421356237309503
10
-119.75000000000001
20
61.5
10
-119.75000000000001
20
62.75
42
-0.41421356237309503
10
-119.25
20
63.25
10
-101.25
20
63.25
42
0.41421356237309503
10
-100.75
20
63.75
10
-100.75
20
65.25
42
-0.41421356237309503
10
-100.25
20
65.75
10
-82.25
20
65.75
42
0.41421356237309503
10
-81.75
20
66.25
10
-81.75
20
67.5
42
-0.41421356237309503
0
CIRCLE
5
119
100
AcDbEntity
8
0
100
AcDbCircle
10
-157.25
20
105.75000000000001
30
0
40
1.0999999999999943
210
0
220
0
230
1
0
CIRCLE
5
120
100
AcDbEntity
8
0
100
AcDbCircle
10
-100.25
20
83
30
0
40
1.0999999999999943
210
0
220
0
230
1
0
CIRCLE
5
121
100
AcDbEntity
8
0
100
AcDbCircle
10
-121.25
20
118.75
30
0
40
2.2000000000000064
210
0
220
0
230
1
0
CIRCLE
5
122
100
AcDbEntity
8
0
100
AcDbCircle
10
-176.25
20
105.5
30
0
40
1.0999999999999943
210
0
220
0
230
1
0
CIRCLE
5
123
100
AcDbEntity
8
0
100
AcDbCircle
10
-157.25
20
86.75
30
0
40
1.0999999999999943
210
0
220
0
230
1
0
CIRCLE
5
124
100
AcDbEntity
8
0
100
AcDbCircle
10
-133
20
122.75
30
0
40
1.0999999999999943
210
0
220
0
230
1
0
CIRCLE
5
125
100
AcDbEntity
8
0
100
AcDbCircle
10
-86.5
20
130.5
30
0
40
1.0999999999999943
210
0
220
0
230
1
0
CIRCLE
5
126
100
AcDbEntity
8
0
100
AcDbCircle
10
-176.25
20
86.75
30
0
40
1.0999999999999943
210
0
220
0
230
1
0
LWPOLYLINE
5
127
100
AcDbEntity
8
0
100
AcDbPolyline
90
10
70
1
43
0.0
10
-106.34540408163065
20
98.375
42
0.3676888120665176
10
-104.37140213799701
20
100.05357142857143
42
-1.7417836785360237
10
-101.4404761904762
20
97.635266704204525
42
0.31435722602862332
10
-102.75000000000003
20
95.758236435299551
10
-102.75000000000003
20
84.875000000000028
42
-0.41421356237309503
10
-103.25000000000003
20
84.375000000000014
10
-116.25
20
84.375000000000014
42
-0.41421356237309503
10
-116.75
20
84.875000000000028
10
-116.75
20
97.875
42
-0.41421356237309503
10
-116.25
20
98.375
0
LWPOLYLINE
5
128
100
AcDbEntity
8
0
100
AcDbPolyline
90
10
70
1
43
0.0
10
-123.423493952998
20
80.309523809523796
42
0.36940045914307473
10
-125.39939754663253
20
81.999999999999957
10
-135.25
20
82
42
-0.41421356237309503
10
-135.75
20
82.5
10
-135.75
20
95.499999999999986
42
-0.41421356237309503
10
-135.25
20
96
10
-122.25
20
96
42
-0.41421356237309503
10
-121.74999999999999
20
95.499999999999986
10
-121.74999999999999
20
84.573009049186624
42
0.31086789286283628
10
-120.46428571428569
20
82.70490950195493
42
-1.7350598279743066
0
LWPOLYLINE
5
129
100
AcDbEntity
8
0
100
AcDbPolyline
90
10
70
1
43
0.0
10
-144.44540408163067
20
98.375
42
0.3676888120665176
10
-142.47140213799702
20
100.05357142857143
42
-1.7163584595188639
10
-139.48809523809524
20
97.655296926789532
42
0.3073684513123815
10
-140.75
20
95.796475951143648
10
-140.75
20
84.875000000000028
42
-0.41421356237309503
10
-141.25
20
84.375000000000014
10
-154.25
20
84.375000000000014
42
-0.41421356237309503
10
-154.75
20
84.875000000000028
10
-154.75
20
97.875
42
-0.41421356237309503
10
-154.25
20
98.375
0
ENDSEC
0
SECTION
2
OBJECTS
0
DICTIONARY
5
C
100
AcDbDictionary
3
ACAD_GROUP
350
D
3
ACAD_MLINESTYLE
350
17
0
DICTIONARY
5
D
100
AcDbDictionary
0
DICTIONARY
5
1A
330
C
100
AcDbDictionary
0
DICTIONARY
5
17
100
AcDbDictionary
0
ENDSEC
0
EOF
