0
SECTION
2
HEADER
9
$INSUNITS
70
4
9
$ACADVER
1
AC1014
9
$HANDSEED
5
FFFF
0
ENDSEC
0
SECTION
2
TABLES
0
TABLE
2
VPORT
5
8
100
AcDbSymbolTable
0
ENDTAB
0
TABLE
2
LTYPE
5
5
100
AcDbSymbolTable
0
LTYPE
5
14
100
AcDbSymbolTableRecord
100
AcDbLinetypeTableRecord
2
BYBLOCK
70
0
0
LTYPE
5
15
100
AcDbSymbolTableRecord
100
AcDbLinetypeTableRecord
2
BYLAYER
70
0
0
ENDTAB
0
TABLE
2
LAYER
5
2
100
AcDbSymbolTable
70
2
0
LAYER
5
50
100
AcDbSymbolTableRecord
100
AcDbLayerTableRecord
2
0
70
0
6
CONTINUOUS
0
ENDTAB
0
TABLE
2
STYLE
5
3
100
AcDbSymbolTable
70
1
0
STYLE
5
11
100
AcDbSymbolTableRecord
100
AcDbTextStyleTableRecord
2
STANDARD
70
0
0
ENDTAB
0
TABLE
2
VIEW
5
6
100
AcDbSymbolTable
70
0
0
ENDTAB
0
TABLE
2
UCS
5
7
100
AcDbSymbolTable
70
0
0
ENDTAB
0
TABLE
2
APPID
5
9
100
AcDbSymbolTable
70
2
0
APPID
5
12
100
AcDbSymbolTableRecord
100
AcDbRegAppTableRecord
2
ACAD
70
0
0
ENDTAB
0
TABLE
2
DIMSTYLE
5
A
100
AcDbSymbolTable
70
1
0
ENDTAB
0
TABLE
2
BLOCK_RECORD
5
1
100
AcDbSymbolTable
70
1
0
BLOCK_RECORD
5
1F
100
AcDbSymbolTableRecord
100
AcDbBlockTableRecord
2
*MODEL_SPACE
0
BLOCK_RECORD
5
1B
100
AcDbSymbolTableRecord
100
AcDbBlockTableRecord
2
*PAPER_SPACE
0
ENDTAB
0
ENDSEC
0
SECTION
2
BLOCKS
0
BLOCK
5
20
100
AcDbEntity
100
AcDbBlockBegin
2
*MODEL_SPACE
0
ENDBLK
5
21
100
AcDbEntity
100
AcDbBlockEnd
0
BLOCK
5
1C
100
AcDbEntity
100
AcDbBlockBegin
2
*PAPER_SPACE
0
ENDBLK
5
1D
100
AcDbEntity
100
AcDbBlockEnd
0
ENDSEC
0
SECTION
2
ENTITIES
0
LWPOLYLINE
5
100
100
AcDbEntity
8
0
100
AcDbPolyline
90
8
70
1
43
0.0
10
173.25000000000003
20
-122.125
42
0.4142135623730222
10
173.75
20
-121.62500000000001
10
173.75
20
-108.625
42
0.4142135623730846
10
173.25000000000003
20
-108.12500000000006
10
160.25000000000003
20
-108.125
42
0.41421356237309503
10
159.75
20
-108.625
10
159.75
20
-121.62500000000001
42
0.41421356237311585
10
160.25000000000003
20
-122.125
0
LWPOLYLINE
5
101
100
AcDbEntity
8
0
100
AcDbPolyline
90
8
70
1
43
0.0
10
173.25000000000003
20
-103.125
42
0.41421356237310542
10
173.75
20
-102.62500000000001
10
173.75
20
-89.625000000000043
42
0.41421356237310542
10
173.25000000000003
20
-89.125000000000057
10
160.25000000000003
20
-89.125000000000028
42
0.41421356237307422
10
159.75
20
-89.625000000000043
10
159.74999999999997
20
-102.62500000000001
42
0.41421356237301177
10
160.25
20
-103.125
0
LWPOLYLINE
5
102
100
AcDbEntity
8
0
100
AcDbPolyline
90
8
70
1
43
0.0
10
112.75000000000006
20
-123
42
0.41421356237309503
10
112.25000000000001
20
-123.50000000000001
10
112.25000000000001
20
-136.5
42
0.41421356237309503
10
112.75000000000006
20
-137
10
125.75000000000001
20
-137
42
0.4142135623730846
10
126.25
20
-136.5
10
126.25
20
-123.50000000000001
42
0.41421356237310542
10
125.75000000000001
20
-123
0
LWPOLYLINE
5
103
100
AcDbEntity
8
0
100
AcDbPolyline
90
10
70
1
43
0.0
10
139.48809523809524
20
-97.655296926789518
42
0.30736845131238355
10
140.75
20
-95.796475951143648
10
140.75
20
-84.875000000000028
42
-0.41421356237316787
10
141.25
20
-84.375000000000014
10
154.25
20
-84.375000000000014
42
-0.41421356237307422
10
154.75
20
-84.875000000000028
10
154.75
20
-97.875000000000014
42
-0.41421356237316787
10
154.25
20
-98.375
10
144.44540408163073
20
-98.375
42
0.36768881206652299
10
142.47140213799702
20
-100.05357142857143
42
-1.7163584595188797
0
LWPOLYLINE
5
104
100
AcDbEntity
8
0
100
AcDbPolyline
90
8
70
1
43
0.0
10
141.25
20
-103.375
42
0.41421356237316787
10
140.75
20
-103.87500000000001
10
140.75
20
-116.875
42
0.41421356237316787
10
141.25
20
-117.375
10
154.25
20
-117.375
42
0.41421356237309503
10
154.75
20
-116.875
10
154.75
20
-103.87500000000001
42
0.41421356237307422
10
154.25
20
-103.375
0
LWPOLYLINE
5
105
100
AcDbEntity
8
0
100
AcDbPolyline
90
8
70
1
43
0.0
10
135.25
20
-115
42
0.4142135623730846
10
135.75
20
-114.50000000000001
10
135.75
20
-101.50000000000006
42
0.41421356237309503
10
135.25
20
-101.00000000000001
10
122.25000000000001
20
-101.00000000000001
42
0.41421356237309503
10
121.75
20
-101.50000000000006
10
121.75
20
-114.50000000000001
42
0.41421356237310542
10
122.25000000000001
20
-115
0
CIRCLE
5
106
100
AcDbEntity
8
0
100
AcDbCircle
10
157.25
20
-105.75000000000001
30
0
40
2.1499999999999986
210
0
220
-0
230
1
0
LWPOLYLINE
5
107
100
AcDbEntity
8
0
100
AcDbPolyline
90
8
70
1
43
0.0
10
116.75
20
-65.875
42
0.41421356237315227
10
116.25
20
-65.375
10
103.25
20
-65.375
42
0.41421356237312623
10
102.75000000000006
20
-65.875
10
102.75000000000003
20
-78.875000000000014
42
0.41421356237307944
10
103.25
20
-79.375000000000028
10
116.25000000000001
20
-79.375000000000014
42
0.41421356237307944
10
116.75
20
-78.875000000000014
0
LWPOLYLINE
5
108
100
AcDbEntity
8
0
100
AcDbPolyline
90
8
70
1
43
0.0
10
97.75
20
-87.250000000000014
42
0.41421356237316787
10
97.250000000000014
20
-86.75
10
84.25
20
-86.75
42
0.41421356237309503
10
83.75
20
-87.250000000000014
10
83.75
20
-100.25
42
0.41421356237307422
10
84.25
20
-100.75000000000001
10
97.250000000000014
20
-100.75000000000001
42
0.41421356237316787
10
97.75
20
-100.25
0
CIRCLE
5
109
100
AcDbEntity
8
0
100
AcDbCircle
10
157.25
20
-86.75
30
0
40
2.1499999999999986
210
0
220
-0
230
1
0
CIRCLE
5
110
100
AcDbEntity
8
0
100
AcDbCircle
10
176.25
20
-86.75
30
0
40
2.1499999999999986
210
0
220
-0
230
1
0
LWPOLYLINE
5
111
100
AcDbEntity
8
0
100
AcDbPolyline
90
10
70
1
43
0.0
10
101.44047619047623
20
-97.635266704204554
42
1.7417836785360146
10
104.37140213799702
20
-100.05357142857143
42
-0.36768881206651799
10
106.34540408163065
20
-98.375
10
116.25
20
-98.375
42
0.41421356237316787
10
116.75
20
-97.875000000000014
10
116.75
20
-84.875000000000028
42
0.41421356237307422
10
116.25
20
-84.375000000000014
10
103.25000000000004
20
-84.375000000000014
42
0.4142135623730846
10
102.75000000000006
20
-84.875000000000028
10
102.75000000000009
20
-95.758236435299565
42
-0.31435722602862481
0
CIRCLE
5
112
100
AcDbEntity
8
0
100
AcDbCircle
10
133
20
-122.75
30
0
40
2.1499999999999986
210
0
220
-0
230
1
0
LWPOLYLINE
5
113
100
AcDbEntity
8
0
100
AcDbPolyline
90
8
70
1
43
0.0
10
178.74999999999997
20
-102.62500000000001
42
0.41421356237298057
10
179.24999999999997
20
-103.12500000000003
10
192.25
20
-103.12499999999999
42
0.41421356237313667
10
192.75000000000006
20
-102.62500000000001
10
192.75000000000003
20
-89.625000000000043
42
0.41421356237298057
10
192.25
20
-89.125000000000028
10
179.25000000000006
20
-89.125
42
0.4142135623731783
10
178.75
20
-89.625000000000043
0
LWPOLYLINE
5
114
100
AcDbEntity
8
0
100
AcDbPolyline
90
8
70
1
43
0.0
10
160.25000000000003
20
-70.125000000000043
42
0.41421356237311063
10
159.75
20
-70.625000000000014
10
159.75
20
-83.625
42
0.41421356237311585
10
160.25000000000003
20
-84.125
10
173.25
20
-84.125000000000014
42
0.41421356237314705
10
173.75
20
-83.625
10
173.75
20
-70.625000000000014
42
0.41421356237307422
10
173.25000000000003
20
-70.125000000000043
0
LWPOLYLINE
5
115
100
AcDbEntity
8
0
100
AcDbPolyline
90
8
70
1
43
0.0
10
97.750000000000043
20
-106.25
42
0.41421356237311585
10
97.250000000000014
20
-105.75000000000001
10
84.25
20
-105.75000000000001
42
0.41421356237316787
10
83.75
20
-106.25
10
83.75
20
-119.25
42
0.41421356237309503
10
84.25
20
-119.75000000000001
10
97.250000000000014
20
-119.75000000000001
42
0.41421356237309503
10
97.750000000000057
20
-119.25
0
LWPOLYLINE
5
116
100
AcDbEntity
8
0
100
AcDbPolyline
90
4
70
1
43
0.0
10
101.965
20
-92.364999999999995
10
98.264999999999986
20
-92.364999999999995
10
98.264999999999986
20
-86.365000000000009
10
101.965
20
-86.364999999999995
0
CIRCLE
5
117
100
AcDbEntity
8
0
100
AcDbCircle
10
100.25
20
-83
30
0
40
2.1499999999999986
210
0
220
-0
230
1
0
LWPOLYLINE
5
118
100
AcDbEntity
8
0
100
AcDbPolyline
90
10
70
1
43
0.0
10
135.75
20
-82.5
42
0.41421356237316787
10
135.25
20
-82.000000000000014
10
125.39939754663251
20
-81.999999999999972
42
-0.36940045914307934
10
123.423493952998
20
-80.309523809523796
42
1.7350598279743243
10
120.46428571428569
20
-82.704909501954944
42
-0.31086789286284205
10
121.75
20
-84.573009049186624
10
121.75
20
-95.499999999999986
42
0.41421356237312623
10
122.25000000000001
20
-96.000000000000014
10
135.25
20
-96.000000000000028
42
0.41421356237303258
10
135.75
20
-95.499999999999986
0
LWPOLYLINE
5
119
100
AcDbEntity
8
0
100
AcDbPolyline
90
8
70
1
43
0.0
10
83.75
20
-81.25
42
0.41421356237309503
10
84.25
20
-81.75
10
97.250000000000014
20
-81.75
42
0.41421356237316787
10
97.75
20
-81.25
10
97.75
20
-68.25
42
0.41421356237305862
10
97.250000000000014
20
-67.75
10
84.249999999999986
20
-67.750000000000028
42
0.41421356237307944
10
83.75
20
-68.250000000000014
0
LWPOLYLINE
5
120
100
AcDbEntity
8
0
100
AcDbPolyline
90
8
70
1
43
0.0
10
116.75000000000006
20
-103.87500000000004
42
0.4142135623730534
10
116.25
20
-103.37500000000006
10
103.25000000000004
20
-103.37500000000006
42
0.41421356237309503
10
102.75000000000006
20
-103.87500000000004
10
102.75000000000006
20
-116.875
42
0.41421356237310542
10
103.25000000000004
20
-117.375
10
116.25
20
-117.375
42
0.41421356237309503
10
116.75000000000004
20
-116.875
0
LWPOLYLINE
5
121
100
AcDbEntity
8
0
100
AcDbPolyline
90
8
70
1
43
0.0
10
178.75
20
-83.625
42
0.41421356237316787
10
179.24999999999997
20
-84.125000000000028
10
192.25
20
-84.125000000000028
42
0.41421356237307422
10
192.75000000000003
20
-83.625
10
192.75000000000003
20
-70.625000000000014
42
0.41421356237298057
10
192.25
20
-70.125000000000014
10
179.25
20
-70.125
42
0.41421356237316787
10
178.75000000000003
20
-70.625000000000014
0
LWPOLYLINE
5
122
100
AcDbEntity
8
0
100
AcDbPolyline
90
8
70
1
43
0.0
10
179.25
20
-108.125
42
0.41421356237314705
10
178.75
20
-108.625
10
178.75
20
-121.62500000000001
42
0.4142135623730846
10
179.24999999999997
20
-122.12500000000003
10
192.25
20
-122.12500000000003
42
0.41421356237304302
10
192.75
20
-121.62500000000001
10
192.75000000000003
20
-108.625
42
0.4142135623730222
10
192.25
20
-108.12500000000006
0
CIRCLE
5
123
100
AcDbEntity
8
0
100
AcDbCircle
10
176.25
20
-105.5
30
0
40
2.1499999999999986
210
0
220
-0
230
1
0
LWPOLYLINE
5
124
100
AcDbEntity
8
0
100
AcDbPolyline
90
8
70
1
43
0.0
10
85.129165124559393
20
-139.31217782661915
42
0.41421356237315571
10
85.312177826461209
20
-138.6291651247295
10
78.812177826619134
20
-127.37083487544062
42
0.41421356237309503
10
78.129165124729468
20
-127.18782217353882
10
66.870834875440622
20
-133.68782217338088
42
0.41421356237311374
10
66.687822173538805
20
-134.37083487527053
10
73.187822173380837
20
-145.62916512455939
42
0.41421356237307183
10
73.870834875270504
20
-145.81217782646118
0
LWPOLYLINE
5
125
100
AcDbEntity
8
0
100
AcDbPolyline
90
8
70
1
43
0.0
10
154.25
20
-79.374999999999986
42
0.41421356237310542
10
154.75
20
-78.875
10
154.75
20
-65.875
42
0.41421356237315227
10
154.25
20
-65.375000000000014
10
141.25000000000003
20
-65.375
42
0.41421356237311585
10
140.75000000000003
20
-65.875
10
140.75
20
-78.875
42
0.41421356237307944
10
141.25000000000003
20
-79.375000000000014
0
CIRCLE
5
126
100
AcDbEntity
8
0
100
AcDbCircle
10
86.5
20
-130.5
30
0
40
2.1499999999999986
210
0
220
-0
230
1
0
LWPOLYLINE
5
127
100
AcDbEntity
8
0
100
AcDbPolyline
90
8
70
1
43
0.0
10
135.25
20
-77.000000000000014
42
0.41421356237308982
10
135.75
20
-76.5
10
135.75
20
-63.5
42
0.41421356237314189
10
135.25
20
-62.999999999999986
10
122.25
20
-63.000000000000007
42
0.41421356237307944
10
121.75
20
-63.500000000000007
10
121.75
20
-76.500000000000028
42
0.41421356237315227
10
122.25000000000001
20
-77.000000000000014
0
CIRCLE
5
128
100
AcDbEntity
8
0
100
AcDbCircle
10
121.25
20
-118.75
30
0
40
2.2000000000000064
210
0
220
-0
230
1
0
LWPOLYLINE
5
129
100
AcDbEntity
8
0
100
AcDbPolyline
90
8
70
1
43
0.0
10
90.159748813292708
20
-127.6708430093193
42
0.41421356237310514
10
89.806195422712833
20
-128.28321544502276
10
93.170843009319228
20
-140.84025118670729
42
0.41421356237308499
10
93.783215445022734
20
-141.19380457728727
10
106.34025118670729
20
-137.82915699068076
42
0.41421356237315071
10
106.69380457728721
20
-137.21678455497732
10
103.32915699068079
20
-124.65974881329272
42
0.41421356237311785
10
102.71678455497728
20
-124.3061954227128
0
LWPOLYLINE
5
130
100
AcDbEntity
8
0
100
AcDbPolyline
90
37
70
1
43
0.0
10
137.75
20
-62.75
10
137.75
20
-61.5
42
0.41421356237305862
10
137.25000000000003
20
-61.000000000000021
10
120.25
20
-61.000000000000014
42
0.41421356237311585
10
119.75000000000001
20
-61.5
10
119.75000000000001
20
-62.75
42
-0.41421356237311585
10
119.25
20
-63.250000000000014
10
101.25
20
-63.25
42
0.4142135623730534
10
100.75
20
-63.75
10
100.75
20
-65.25
42
-0.41421356237308982
10
100.25
20
-65.750000000000014
10
82.25
20
-65.75
42
0.41421356237310542
10
81.75
20
-66.25
10
81.75
20
-67.5
42
-0.41421356237312623
10
81.249999999999972
20
-68.000000000000014
42
0.4142135623730378
10
80.750000000000028
20
-68.5
10
80.750000000000028
20
-116.16875106070232
42
-0.26860862559727711
10
80.247867518553321
20
-117.03600415753711
10
61.688370364063786
20
-127.69053030178102
42
0.41421356237307988
10
61.318984785782291
20
-129.05565091716915
10
74.950000000000017
20
-152.80000000000001
42
0.41421356237309503
10
76.180000000000021
20
-153.03
10
91
20
-144.5
10
128
20
-138.99999450639999
42
0.19761610742884869
10
128.35178127951886
20
-138.8553089329165
10
138.89643999999981
20
-124.39643999999971
42
-0.19891236737969378
10
139.25000000000006
20
-124.24999065288704
10
175.25000000000003
20
-124.25
10
194.25
20
-124.25
42
0.41421356237314705
10
194.75
20
-123.75
10
194.75
20
-68.5
42
0.4142135623730222
10
194.25000000000014
20
-67.999999999999986
10
157.25
20
-68
42
-0.41421356237309503
10
156.75
20
-67.5
10
156.75
20
-63.75
42
0.41421356237311063
10
156.24999999999997
20
-63.249999999999986
10
138.25
20
-63.250000000000028
42
-0.41421356237306384
0
ENDSEC
0
SECTION
2
OBJECTS
0
DICTIONARY
5
C
100
AcDbDictionary
3
ACAD_GROUP
350
D
3
ACAD_MLINESTYLE
350
17
0
DICTIONARY
5
D
100
AcDbDictionary
0
DICTIONARY
5
1A
330
C
100
AcDbDictionary
0
DICTIONARY
5
17
100
AcDbDictionary
0
ENDSEC
0
EOF
